<?xml version="1.0" encoding="utf-8"?>
<!-- Generator: Adobe Illustrator 13.0.0, SVG Export Plug-In . SVG Version: 6.00 Build 14948)  -->
<!DOCTYPE svg PUBLIC "-//W3C//DTD SVG 1.1//EN" "http://www.w3.org/Graphics/SVG/1.1/DTD/svg11.dtd">
<svg version="1.1" xmlns="http://www.w3.org/2000/svg" xmlns:xlink="http://www.w3.org/1999/xlink" x="0px" y="0px" width="16px"
	 height="16px" viewBox="0 0 16 16" enable-background="new 0 0 16 16" xml:space="preserve">
<g id="Area" display="none">
	<path display="inline" fill-rule="evenodd" clip-rule="evenodd" d="M2.344,3.088l2.129,10.828l7.141-1.776l3.368-8.929L8.144,6.262
		L2.344,3.088z"/>
</g>
<g id="Line" display="none">
	<g display="inline">
		<g>
			<path d="M13.058,2.456c-1.57,0-2.844,1.273-2.844,2.844c0,0.764,0.305,1.454,0.795,1.965l-2.188,4.423L5.565,6.417
				c-0.173-0.278-0.474-0.456-0.8-0.473c-0.328-0.016-0.645,0.13-0.843,0.39L0,11.438l1.585,1.219l3.039-3.955l3.444,5.572
				c0.183,0.293,0.504,0.475,0.848,0.475c0.019,0,0.034-0.002,0.052-0.002c0.362-0.016,0.688-0.229,0.85-0.557l3.002-6.07
				c0.08,0.006,0.158,0.023,0.24,0.023c1.57,0,2.844-1.273,2.844-2.844C15.903,3.728,14.628,2.456,13.058,2.456z"/>
		</g>
	</g>
</g>
<g id="Crosshair" display="none">
	<g display="inline">
		<g>
			<path d="M8.011,0.004c-4.382,0-7.935,3.553-7.935,7.936c0,4.384,3.553,7.937,7.935,7.937s7.935-3.553,7.935-7.937
				C15.945,3.558,12.395,0.004,8.011,0.004z M8.994,13.867v-2.986H7.003v2.984C4.485,13.438,2.5,11.453,2.081,8.932h2.912v-1.99
				H2.082c0.42-2.511,2.392-4.492,4.897-4.926v2.938h2.024V2.012c2.522,0.421,4.513,2.406,4.937,4.93h-2.967v1.99h2.967
				C13.52,11.461,11.523,13.449,8.994,13.867z"/>
		</g>
	</g>
</g>
<g id="Routing" display="none">
	<g display="inline">
		<g>
			<path fill-rule="evenodd" clip-rule="evenodd" d="M15.663,7.191L8.805,0.333c-0.446-0.445-1.168-0.445-1.614,0L0.333,7.191
				c-0.446,0.445-0.446,1.168,0,1.614l6.858,6.858c0.446,0.445,1.168,0.445,1.614,0l6.858-6.858
				C16.108,8.359,16.108,7.636,15.663,7.191z M8.951,9.896V7.902H8.119c-0.283,0-0.513,0.23-0.513,0.514v3.537H5.604V8.087
				c0-1.204,0.976-2.181,2.18-2.181h1.167V3.884l3.641,3.031L8.951,9.896z"/>
		</g>
	</g>
</g>
<g id="Navigate" display="none">
	<path display="inline" d="M14.701,1.324c-0.481-0.482-0.942-0.027-2.503,0.724C8.022,4.054,0.744,8.133,0.744,8.133l6.253,0.895
		l0.894,6.254c0,0,4.079-7.279,6.086-11.455C14.728,2.265,15.183,1.805,14.701,1.324"/>
</g>
<g id="Measure" display="none">
	<g display="inline">
		<g>
			<path fill-rule="evenodd" clip-rule="evenodd" d="M15.049,4.037H1.943c-0.526,0-0.953,0.427-0.953,0.953v6.074
				c0,0.526,0.427,0.952,0.953,0.952h13.105c0.525,0,0.952-0.426,0.952-0.952V4.99C16.001,4.463,15.574,4.037,15.049,4.037z
				 M13.965,9.985H2.985V7.018h0.953v2.016H6.01V7.986h0.953v1.047h3.045V7.986h0.953v1.047h2.052V6.986h0.952V9.985z"/>
		</g>
	</g>
</g>
<g id="Print" display="none">
	<path display="inline" d="M1.523,5.805h12.978c0.436,0,0.364-0.464,0.147-0.54S12.02,4.278,11.6,4.278h-0.687v-2.29H5.111v2.29
		H4.425c-0.42,0-2.832,0.912-3.049,0.987S1.088,5.805,1.523,5.805 M14.653,6.645H1.371c-0.42,0-0.84,0.496-0.84,0.916v2.672
		c0,0.42,0.42,0.916,0.84,0.916h1.513l-0.673,3.817h11.603l-0.673-3.817h1.513c0.42,0,0.84-0.496,0.84-0.916V7.561
		C15.493,7.141,15.073,6.645,14.653,6.645 M3.737,13.438l1.068-4.962h6.413l1.068,4.962H3.737z"/>
</g>
<g id="Share" display="none">
	<path display="inline" d="M0.445,14.562c0,0,0.369-9.095,8.569-9.095V1.854l6.584,6.116l-6.584,6.252v-4.156
		C4.562,10.065,2.766,10.46,0.445,14.562"/>
</g>
<g id="Manstanding" display="none">
	<g display="inline">
		<g>
			<path d="M8.019,4.08c1.318,0,1.853-0.658,1.853-1.977c0-1.335-0.534-2.097-1.853-2.097S6.167,0.768,6.167,2.103
				C6.167,3.421,6.7,4.08,8.019,4.08z M8.889,4.989H7.234C4.952,4.989,4,7.218,4,7.891v3.073l0.992-0.031l0.04-2.609l1.006-0.001
				L6.012,16h1.203l0.796-5.032L8.879,16h1.162l-0.027-7.677l0.943,0.001l0.041,2.615l0.992,0.031V7.898
				C11.99,7.225,11.17,4.989,8.889,4.989z"/>
		</g>
	</g>
</g>
<g id="Location" display="none">
	<path display="inline" fill-rule="evenodd" clip-rule="evenodd" d="M8.026,1.989c2.809,0,5.087,2.278,5.087,5.087
		c0,2.809-4.981,7.577-5.142,7.577c-0.161,0-5.033-4.768-5.033-7.577C2.938,4.267,5.216,1.989,8.026,1.989z"/>
</g>
<g id="Location2" display="none">
	<g display="inline">
		<g>
			<path fill-rule="evenodd" clip-rule="evenodd" d="M8.026,1.989c-2.81,0-5.087,2.278-5.087,5.087c0,2.809,4.873,7.577,5.033,7.577
				c0.16,0,5.142-4.768,5.142-7.577C13.113,4.267,10.835,1.989,8.026,1.989z M7.999,9.312c-1.3,0-2.355-1.055-2.355-2.355
				c0-1.301,1.055-2.355,2.355-2.355s2.355,1.055,2.355,2.355C10.354,8.257,9.299,9.312,7.999,9.312z"/>
		</g>
	</g>
</g>
<g id="List" display="none">
	<g display="inline">
		<g>
			<path fill-rule="evenodd" clip-rule="evenodd" d="M14.011,6.258H6.996c-0.565,0-1.024,0.458-1.024,1.024
				c0,0.564,0.459,1.023,1.024,1.023h7.015c0.565,0,1.023-0.459,1.023-1.023C15.034,6.716,14.576,6.258,14.011,6.258z M6.996,4.302
				h7.015c0.565,0,1.023-0.458,1.023-1.023s-0.458-1.024-1.023-1.024H6.996c-0.565,0-1.024,0.458-1.024,1.024
				S6.431,4.302,6.996,4.302z M14.011,10.258H6.996c-0.565,0-1.024,0.458-1.024,1.024c0,0.564,0.459,1.023,1.024,1.023h7.015
				c0.565,0,1.023-0.459,1.023-1.023C15.034,10.716,14.576,10.258,14.011,10.258z M2.979,2.254H1.995
				c-0.564,0-1.023,0.458-1.023,1.024s0.459,1.023,1.023,1.023h0.983c0.565,0,1.024-0.458,1.024-1.023S3.544,2.254,2.979,2.254z
				 M2.979,10.255H1.995c-0.564,0-1.023,0.458-1.023,1.023s0.459,1.023,1.023,1.023h0.983c0.565,0,1.024-0.458,1.024-1.023
				S3.544,10.255,2.979,10.255z M2.979,6.254H1.995c-0.564,0-1.023,0.458-1.023,1.024s0.459,1.023,1.023,1.023h0.983
				c0.565,0,1.024-0.458,1.024-1.023S3.544,6.254,2.979,6.254z"/>
		</g>
	</g>
</g>
<g id="Expand" display="none">
	<g display="inline">
		<g>
			<path fill-rule="evenodd" clip-rule="evenodd" d="M5.503,8.989l-2.388,2.399L0.999,9.263l0.005,5.72h5.715l-2.137-2.137
				l2.4-2.389L5.503,8.989z M14.999,1.001H9.284l2.137,2.136L8.989,5.526l1.479,1.468l2.419-2.4l2.116,2.126L14.999,1.001z"/>
		</g>
	</g>
</g>
<g id="Contract" display="none">
	<g display="inline">
		<g>
			<path fill-rule="evenodd" clip-rule="evenodd" d="M2.25,7.986l2.137,2.137l-2.4,2.389l1.48,1.468l2.387-2.399l2.117,2.126
				l-0.005-5.72H2.25z M14.011,3.474l-1.479-1.468l-2.419,2.4L7.996,2.279l0.005,5.72h5.715l-2.137-2.136L14.011,3.474z"/>
		</g>
	</g>
</g>
<g id="Dropdown" display="none">
	<path display="inline" fill-rule="evenodd" clip-rule="evenodd" d="M2.942,6.081l10.246-0.049l-5.166,4.885L2.942,6.081z"/>
</g>
<g id="Hemnet" display="none">
	<g display="inline">
		<g>
			<path d="M8.003,0.085c-4.368,0-7.909,3.541-7.909,7.909c0,1.771,0.583,3.408,1.567,4.726l-1.24,1.24
				c-0.447,0.445-0.447,1.168,0,1.615c0.222,0.223,0.515,0.334,0.808,0.334s0.585-0.111,0.808-0.334l1.24-1.24
				c1.319,0.984,2.955,1.566,4.727,1.566c4.368,0,7.909-3.541,7.909-7.908C15.912,3.626,12.371,0.085,8.003,0.085z M8.003,13.904
				c-3.264,0-5.91-2.646-5.91-5.91c0-3.264,2.646-5.91,5.91-5.91c3.262,0,5.91,2.646,5.91,5.91
				C13.913,11.258,11.266,13.904,8.003,13.904z M4.84,6.573v4.152h2.571V9.236h1.186v1.488h2.569V6.573L8.003,4.398L4.84,6.573z"/>
		</g>
	</g>
</g>
<g id="Posten" display="none">
	<g display="inline">
		<g>
			<path fill-rule="evenodd" clip-rule="evenodd" d="M13.662,2.37c-1.501-1.501-3.498-2.329-5.621-2.329
				c-2.12,0-4.116,0.828-5.619,2.332S0.09,5.872,0.09,7.992c0,2.123,0.827,4.121,2.329,5.623c1.501,1.502,3.498,2.328,5.622,2.328
				c2.123,0,4.12-0.826,5.621-2.328c1.502-1.502,2.33-3.5,2.33-5.623C15.992,5.868,15.164,3.872,13.662,2.37z M7.938,3.052
				C7.836,2.999,7.76,2.892,7.76,2.772c0-0.146,0.114-0.276,0.25-0.306V2.285H7.87V2.17h0.14V2.036h0.114V2.17h0.14v0.115h-0.14
				v0.181c0.138,0.029,0.253,0.159,0.253,0.307c0,0.119-0.075,0.227-0.177,0.279c0.542,0.009,2.588,0.154,2.782,1.797h-0.653
				c-0.047-0.904-0.461-1.214-1.205-1.406c0.559,0.474,0.533,0.847,0.569,1.406H9.016c0-0.978-0.25-1.463-0.708-1.531
				c0.116,0.456,0.145,1.385,0.108,1.531H7.718C7.681,4.703,7.71,3.774,7.826,3.318C7.368,3.386,7.118,3.872,7.118,4.849H6.441
				c0.036-0.559,0.011-0.932,0.57-1.406C6.267,3.635,5.852,3.945,5.807,4.849H5.152C5.346,3.203,7.399,3.061,7.938,3.052z
				 M5.372,4.931c0.142,0,0.256,0.115,0.256,0.256c0,0.069-0.028,0.158-0.072,0.204C5.582,5.383,5.636,5.38,5.665,5.38
				c0.142,0,0.256,0.115,0.256,0.256c0,0.142-0.115,0.256-0.256,0.256c-0.091,0-0.163-0.042-0.208-0.113
				c0.079,0.255,0.267,0.422,0.597,0.422c0.418,0,0.556-0.278,0.6-0.422C6.607,5.848,6.528,5.893,6.439,5.893
				c-0.142,0-0.256-0.114-0.256-0.256c0-0.141,0.114-0.256,0.256-0.256c0.036,0,0.069-0.002,0.1,0.011
				C6.493,5.344,6.462,5.258,6.462,5.187c0-0.141,0.114-0.256,0.256-0.256c0.141,0,0.256,0.115,0.256,0.256
				c0,0.069-0.028,0.158-0.072,0.204C6.928,5.383,6.982,5.38,7.011,5.38c0.142,0,0.256,0.115,0.256,0.256
				c0,0.142-0.114,0.256-0.256,0.256c-0.089,0-0.182-0.044-0.228-0.113c0.072,0.196,0.146,0.422,0.619,0.422
				c0.461,0,0.54-0.25,0.602-0.422c-0.046,0.069-0.14,0.113-0.228,0.113c-0.142,0-0.256-0.114-0.256-0.256
				c0-0.141,0.114-0.256,0.256-0.256c0.029,0,0.083,0.003,0.109,0.011C7.84,5.345,7.812,5.256,7.812,5.187
				c0-0.141,0.115-0.256,0.257-0.256c0.141,0,0.256,0.115,0.256,0.256c0,0.071-0.032,0.157-0.078,0.204
				c0.031-0.013,0.064-0.011,0.1-0.011c0.142,0,0.257,0.115,0.257,0.256c0,0.142-0.115,0.256-0.257,0.256
				c-0.089,0-0.17-0.045-0.216-0.113c0.071,0.196,0.134,0.424,0.605,0.424c0.473,0,0.543-0.228,0.613-0.424
				C9.304,5.848,9.211,5.893,9.123,5.893c-0.143,0-0.257-0.114-0.257-0.256c0-0.141,0.114-0.256,0.257-0.256
				c0.028,0,0.082,0.003,0.108,0.011C9.188,5.345,9.16,5.256,9.16,5.187c0-0.141,0.114-0.256,0.256-0.256
				c0.141,0,0.256,0.115,0.256,0.256c0,0.071-0.031,0.157-0.078,0.204C9.625,5.377,9.66,5.38,9.695,5.38
				c0.141,0,0.256,0.115,0.256,0.256c0,0.142-0.115,0.256-0.256,0.256c-0.09,0-0.168-0.045-0.215-0.113
				c0.045,0.144,0.182,0.422,0.601,0.422c0.329,0,0.518-0.167,0.596-0.422c-0.045,0.071-0.116,0.113-0.207,0.113
				c-0.142,0-0.257-0.114-0.257-0.256c0-0.141,0.115-0.256,0.257-0.256c0.028,0,0.083,0.003,0.108,0.011
				c-0.045-0.046-0.072-0.135-0.072-0.204c0-0.141,0.115-0.256,0.257-0.256s0.256,0.115,0.256,0.256c0,0.04-0.008,0.078-0.015,0.09
				c0.002-0.004-0.604,1.402-0.604,1.402H5.734c0,0-0.606-1.406-0.604-1.402c-0.006-0.012-0.015-0.05-0.015-0.09
				C5.115,5.046,5.23,4.931,5.372,4.931z M13.734,8.424c-0.52,3.469-3.349,5.01-5.666,5.01c-2.988,0-5.374-2.078-5.924-4.898
				l-0.319-0.24V8.262h3.04v0.035L4.548,8.536c0,0-0.142,1.605,0.593,2.475c-0.04-0.195-0.077-0.348-0.077-0.555
				c0-1.639,1.369-3.01,3.007-3.01s3.001,1.372,3.001,3.01c0,0.586-0.147,1.086-0.439,1.545c1.145-0.623,2.099-1.66,2.443-3.577
				l-0.087-0.126l-0.001-0.036h0.837v0.036L13.734,8.424z M8.068,8.222c-1.23,0-2.229,0.998-2.229,2.228
				c0,1.232,0.998,2.229,2.229,2.229c1.231,0,2.229-0.996,2.229-2.229C10.297,9.22,9.299,8.222,8.068,8.222z"/>
		</g>
	</g>
</g>
<g id="Telia" display="none">
	<path display="inline" d="M15.312,3.631c-0.008,0.012-0.013,0.021-0.018,0.034c-0.344,0.765-1.044,1.657-1.973,2.554
		c0.74,0.346,1.32,0.77,1.682,1.315c0.006,0.01,0.012,0.018,0.016,0.026c0.141-0.565,0.242-1.123,0.303-1.663
		C15.415,5.079,15.407,4.317,15.312,3.631z M12.502,6.962c-2.989,2.546-7.532,4.851-10.54,4.069c-0.013-0.004-0.018-0.002-0.024,0
		c0.027,0.043,0.053,0.087,0.08,0.131c0.04,0.045,0.083,0.092,0.104,0.123l0.006,0.009c2.955,4.754,11.167,1.117,12.106-1.899
		C14.449,8.37,13.73,7.587,12.502,6.962z M4.067,13.732c-0.024-0.012-0.046-0.021-0.07-0.031c0.152,0.154,0.304,0.302,0.457,0.439
		c0.729,0.658,1.458,1.122,2.164,1.381c0.443,0.162,0.881,0.245,1.303,0.245c0.322,0,0.642-0.048,0.95-0.144
		c0.832-0.258,1.649-0.746,2.428-1.451c0.921-0.833,1.752-1.947,2.426-3.22c-0.019,0.017-0.035,0.032-0.055,0.052
		C11.94,13.1,7.325,15.129,4.067,13.732z M6.695,4.619c2.08,0.366,4.083,0.687,5.643,1.21c1.52-1.167,2.582-2.405,2.647-3.428
		c0.001-0.017,0.004-0.031,0.005-0.047c-0.021-0.056-0.04-0.113-0.062-0.167c-0.068-0.157-0.148-0.312-0.236-0.462
		c-0.066-0.11-0.145-0.213-0.23-0.311c-0.004,0.006-0.01,0.01-0.014,0.016C12.512,3.881,9.694,4.684,6.695,4.619z M3.396,3.821
		c4.622,0.837,8.511,0.154,10.803-2.629c0.006-0.006,0.012-0.012,0.018-0.019c-0.545-0.466-1.36-0.763-2.408-0.867
		c-0.269-0.026-0.551-0.04-0.844-0.04c-2.107,0-4.56,0.662-6.561,1.771C3.593,2.486,2.892,2.993,2.316,3.536
		c0.01,0.003,0.017,0.007,0.025,0.01C2.689,3.644,3.04,3.737,3.396,3.821z M11.416,6.493c-2.807-1.042-7.05-1.588-9.779-2.197
		C1.629,4.294,1.624,4.292,1.616,4.291C1.149,4.874,0.817,5.488,0.64,6.115C0.513,6.568,0.461,7.032,0.487,7.492
		c0.019,0.36,0.156,0.869,0.386,1.451c0.015,0.017,0.029,0.032,0.043,0.05C2.143,10.926,7.662,9.026,11.416,6.493z"/>
</g>
<g id="Opus" display="none">
	<g display="inline">
		<g>
			<path d="M9.26,15.651c3.7-0.59,6.529-3.786,6.529-7.651c0-1.652-0.521-3.181-1.401-4.439c0-0.001-0.001-0.002-0.001-0.003
				c-0.003-0.004-0.007-0.007-0.01-0.012c-0.281-0.399-0.598-0.771-0.947-1.11c-0.001,0-0.001-0.001-0.002-0.002c0,0,0,0,0,0.001
				c-0.286-0.278-0.595-0.532-0.921-0.764l0,0l-0.002-0.001c-0.231-0.165-0.471-0.319-0.721-0.457v0c-0.001,0-0.001,0-0.002-0.001
				c-0.277-0.154-0.566-0.288-0.862-0.407c-0.002,0-0.003-0.001-0.004-0.001v0c-0.109-0.044-0.223-0.083-0.335-0.123v0
				c-0.062-0.021-0.121-0.047-0.184-0.067l0,0c-0.064-0.021-0.13-0.038-0.194-0.057l0,0c-0.039-0.011-0.08-0.02-0.119-0.031v0
				c-0.075-0.021-0.15-0.04-0.227-0.059l0,0c-0.041-0.01-0.079-0.021-0.119-0.031c0,0,0,0,0,0C9.665,0.42,9.593,0.402,9.519,0.388
				l0,0C9.461,0.376,9.401,0.371,9.344,0.361c0,0,0,0,0,0c-0.428-0.073-0.865-0.12-1.313-0.12c-1.206,0-2.342,0.283-3.36,0.774
				c-0.001,0-0.002,0-0.003,0.001l0,0c-1.305,0.63-2.405,1.61-3.178,2.824h0C1.486,3.845,1.484,3.85,1.481,3.854
				C1.353,4.058,1.233,4.267,1.123,4.482C1.12,4.487,1.118,4.493,1.115,4.498c-0.11,0.217-0.21,0.439-0.3,0.668
				c0,0.001-0.001,0.002-0.001,0.003l0,0C0.588,5.743,0.431,6.35,0.348,6.98h0c0,0.001,0,0.003,0,0.005
				C0.304,7.318,0.273,7.655,0.273,8c0,0.217,0.015,0.431,0.032,0.644l0,0c0.048,0.581,0.155,1.146,0.324,1.684h0
				c0.001,0.005,0.004,0.01,0.006,0.015c0.124,0.392,0.284,0.767,0.465,1.128c0.011,0.021,0.02,0.043,0.031,0.063
				c0.19,0.371,0.41,0.722,0.655,1.055c0,0.001,0.001,0.002,0.002,0.003c0,0,0,0,0,0c0.155,0.211,0.321,0.413,0.497,0.607h0
				c0.001,0.001,0.002,0.002,0.002,0.003c0.297,0.327,0.619,0.63,0.968,0.903c0.01,0.008,0.021,0.015,0.031,0.022
				c0.94,0.729,2.048,1.25,3.261,1.485h0c0.009,0.002,0.018,0.002,0.026,0.004c0.231,0.044,0.465,0.08,0.703,0.104
				c0.233,0.023,0.47,0.034,0.709,0.036c0.016,0,0.031,0.002,0.047,0.002h0c0,0,0,0,0.001,0c0.348,0,0.687-0.031,1.023-0.075
				C9.123,15.673,9.191,15.662,9.26,15.651z M15.305,8c-0.005,2.617-1.392,4.902-3.466,6.184c2.657-2.401,3.505-5.27,3.271-7.821
				C15.232,6.89,15.304,7.436,15.305,8z M8.729,0.762C7.816,1.247,6.958,1.2,6.337,0.935c0.544-0.13,1.109-0.208,1.693-0.208
				C8.266,0.727,8.498,0.74,8.729,0.762z M9.18,0.827c0.126,0.021,0.253,0.038,0.377,0.064C8.458,3.26,5.422,2.653,3.972,1.967
				C4.353,1.71,4.76,1.489,5.188,1.307C6.273,1.79,8.097,1.991,9.18,0.827z M3.011,2.749c1.601,0.723,5.676,1.373,6.71-1.815
				c0.092,0.022,0.183,0.045,0.273,0.071C9.17,5.278,3.896,4.772,1.939,4.039C2.246,3.568,2.606,3.136,3.011,2.749z M1.282,5.306
				c2.584,0.669,8.478,0.945,8.88-4.258c0.112,0.034,0.219,0.077,0.328,0.117c0.631,4.294-4.144,6.248-9.657,5.849
				C0.915,6.418,1.066,5.846,1.282,5.306z M0.792,8.667C6.926,9.01,11.928,5.689,10.752,1.26c0.146,0.059,0.287,0.126,0.429,0.194
				c1.774,4.8-3.999,8.456-10.046,8.837C0.962,9.773,0.844,9.23,0.792,8.667z M2.313,12.479c6.121-1.273,11.305-4.639,9.669-10.577
				c0.106,0.069,0.21,0.144,0.312,0.218c1.548,5.164-2.488,9.2-9.476,10.941C2.64,12.877,2.472,12.682,2.313,12.479z M5.093,14.646
				c6.657-1.931,9.706-7.344,7.9-11.949c0.362,0.338,0.689,0.712,0.977,1.118C15.361,8.433,12.131,13,7.385,15.24
				C6.575,15.167,5.805,14.962,5.093,14.646z"/>
		</g>
	</g>
</g>
<g id="Synoptik" display="none">
	<g display="inline">
		<g>
			<path d="M1.013,1.012v14.976h14.975V1.012H1.013z M8.319,7.888c2.127,0.092,4.138-0.116,4.138,2.149
				c0,1.688-1.572,2.197-4.138,2.174c-2.451-0.023-3.815-0.508-3.815-2.219h1.525c0,0.809,0.486,1.133,2.266,1.133
				c1.758,0,2.521-0.139,2.521-1.18c0-0.879-0.67-0.855-2.149-0.901c-2.059-0.07-4.001,0-3.978-2.128
				c0.023-1.688,1.596-2.15,4.139-2.127c2.29,0.023,3.677,0.532,3.677,2.22h-1.526c0-0.833-0.555-1.11-2.127-1.133
				c-2.012-0.022-2.497,0.301-2.52,0.971C6.307,7.934,7.14,7.841,8.319,7.888z"/>
		</g>
	</g>
</g>
<g id="Navigateright" display="none">
	<g display="inline">
		<g>
			<polygon fill-rule="evenodd" clip-rule="evenodd" points="11.578,8.007 9.965,6.394 9.956,6.402 6.05,2.496 4.438,4.109 
				8.344,8.016 4.438,11.922 6.05,13.535 9.957,9.629 9.965,9.637 11.578,8.024 11.569,8.016 			"/>
		</g>
	</g>
</g>
<g id="Navigatedown" display="none">
	<g display="inline">
		<g>
			<polygon fill-rule="evenodd" clip-rule="evenodd" points="13.535,6.05 11.922,4.438 8.016,8.344 4.109,4.438 2.496,6.05 
				6.402,9.956 6.394,9.965 8.007,11.578 8.016,11.569 8.024,11.578 9.637,9.965 9.629,9.957 			"/>
		</g>
	</g>
</g>
<g id="Navigateleft" display="none">
	<g display="inline">
		<g>
			<polygon fill-rule="evenodd" clip-rule="evenodd" points="11.594,4.109 9.981,2.496 6.074,6.403 6.065,6.394 4.453,8.007 
				4.462,8.016 4.453,8.024 6.065,9.637 6.074,9.628 9.981,13.535 11.594,11.922 7.687,8.016 			"/>
		</g>
	</g>
</g>
<g id="Navigateup" display="none">
	<g display="inline">
		<g>
			<polygon fill-rule="evenodd" clip-rule="evenodd" points="13.535,9.98 9.629,6.074 9.637,6.066 8.024,4.453 8.016,4.461 
				8.007,4.453 6.395,6.066 6.403,6.074 2.496,9.98 4.109,11.594 8.016,7.687 11.922,11.594 			"/>
		</g>
	</g>
</g>
<g id="Foretagsombud" display="none">
	<path display="inline" fill-rule="evenodd" clip-rule="evenodd" d="M14.476,13.996c-0.844,0-2.088-0.002-3.286-0.004
		c-1.098,0.662-2.349,1.036-3.666,1.036c-1.895,0-3.677-0.731-5.017-2.062S0.429,9.869,0.429,7.989c0-1.877,0.739-3.644,2.081-4.975
		s3.122-2.064,5.014-2.064c1.327,0,2.589,0.378,3.691,1.05c1.192,0,2.425,0,3.261,0C15.341,2,15.5,2.97,15.5,2.97v10.057
		C15.5,13.027,15.367,13.996,14.476,13.996z M11.83,3.716c-1.15-1.141-2.68-1.77-4.307-1.77c-1.625,0-3.153,0.629-4.306,1.772
		C2.066,4.861,1.433,6.378,1.433,7.989c0,1.614,0.633,3.132,1.783,4.272c1.151,1.143,2.681,1.771,4.308,1.771
		s3.156-0.629,4.307-1.771c1.15-1.141,1.784-2.658,1.784-4.272C13.614,6.375,12.98,4.858,11.83,3.716z M7.541,12.508
		c-1.212,0-2.351-0.468-3.206-1.318c-0.856-0.85-1.328-1.979-1.328-3.18c0-1.2,0.472-2.329,1.329-3.18S6.332,3.51,7.541,3.51
		c1.211,0,2.35,0.468,3.206,1.318s1.328,1.979,1.328,3.181s-0.472,2.331-1.328,3.18C9.891,12.04,8.752,12.508,7.541,12.508z
		 M7.605,5.415c0.052-0.026,0.089-0.08,0.089-0.139c0-0.074-0.058-0.139-0.127-0.153v-0.09h0.07V4.976h-0.07V4.909H7.51v0.067h-0.07
		v0.057h0.07v0.09c-0.068,0.015-0.125,0.08-0.125,0.153c0,0.059,0.038,0.113,0.089,0.139C7.203,5.42,6.172,5.491,6.074,6.312h0.329
		c0.022-0.451,0.23-0.605,0.605-0.701C6.728,5.847,6.74,6.033,6.723,6.312h0.34c0-0.487,0.125-0.729,0.355-0.764
		c-0.059,0.228-0.072,0.69-0.055,0.764h0.352C7.733,6.238,7.719,5.775,7.66,5.548c0.23,0.034,0.355,0.276,0.355,0.764h0.341
		C8.338,6.033,8.351,5.847,8.069,5.611c0.375,0.095,0.583,0.25,0.605,0.701h0.329C8.906,5.492,7.879,5.42,7.605,5.415z M8.894,6.352
		c-0.071,0-0.129,0.058-0.129,0.128c0,0.035,0.014,0.079,0.036,0.102c-0.013-0.004-0.04-0.005-0.054-0.005
		c-0.071,0-0.129,0.057-0.129,0.128s0.058,0.128,0.129,0.128c0.045,0,0.081-0.021,0.104-0.057c-0.039,0.127-0.134,0.21-0.299,0.21
		c-0.211,0-0.279-0.139-0.302-0.21C8.273,6.81,8.312,6.832,8.357,6.832c0.07,0,0.129-0.057,0.129-0.128S8.428,6.576,8.357,6.576
		c-0.019,0-0.035-0.001-0.051,0.005C8.33,6.558,8.346,6.516,8.346,6.48c0-0.07-0.058-0.128-0.129-0.128S8.088,6.41,8.088,6.48
		c0,0.035,0.015,0.079,0.036,0.102c-0.013-0.004-0.04-0.005-0.055-0.005c-0.07,0-0.129,0.057-0.129,0.128s0.059,0.128,0.129,0.128
		c0.045,0,0.092-0.022,0.114-0.057c-0.035,0.098-0.07,0.211-0.309,0.211c-0.236,0-0.268-0.113-0.304-0.211
		C7.595,6.81,7.636,6.832,7.681,6.832c0.071,0,0.129-0.057,0.129-0.128S7.752,6.576,7.681,6.576c-0.019,0-0.035-0.001-0.051,0.005
		C7.653,6.558,7.669,6.516,7.669,6.48c0-0.07-0.058-0.128-0.129-0.128S7.411,6.41,7.411,6.48c0,0.035,0.014,0.079,0.036,0.102
		c-0.013-0.004-0.04-0.005-0.055-0.005c-0.071,0-0.128,0.057-0.128,0.128s0.057,0.128,0.128,0.128c0.045,0,0.092-0.022,0.115-0.057
		c-0.031,0.086-0.071,0.21-0.303,0.21c-0.238,0-0.275-0.113-0.311-0.21C6.917,6.81,6.964,6.832,7.009,6.832
		c0.071,0,0.129-0.057,0.129-0.128S7.08,6.576,7.009,6.576c-0.015,0-0.042,0.001-0.055,0.005C6.977,6.559,6.99,6.515,6.99,6.48
		c0-0.07-0.058-0.128-0.129-0.128S6.732,6.41,6.732,6.48c0,0.036,0.016,0.078,0.039,0.101C6.756,6.575,6.739,6.576,6.721,6.576
		c-0.07,0-0.128,0.057-0.128,0.128S6.65,6.832,6.721,6.832c0.045,0,0.085-0.022,0.107-0.057c-0.021,0.072-0.091,0.21-0.301,0.21
		c-0.166,0-0.261-0.083-0.3-0.21C6.25,6.811,6.286,6.832,6.332,6.832c0.071,0,0.129-0.057,0.129-0.128S6.403,6.576,6.332,6.576
		c-0.015,0-0.042,0.001-0.055,0.005C6.3,6.559,6.313,6.515,6.313,6.48c0-0.07-0.058-0.128-0.129-0.128S6.056,6.41,6.056,6.48
		c0,0.02,0.004,0.039,0.008,0.045C6.062,6.523,6.367,7.224,6.367,7.224h1.172h1.172c0,0,0.306-0.701,0.304-0.699
		C9.019,6.519,9.022,6.5,9.022,6.48C9.022,6.41,8.965,6.352,8.894,6.352z M10.434,8.013h-0.421v0.018l0.044,0.063
		C9.883,9.05,9.404,9.567,8.829,9.877C8.976,9.648,9.05,9.398,9.05,9.107c0-0.816-0.686-1.501-1.509-1.501S6.029,8.291,6.029,9.107
		c0,0.104,0.019,0.18,0.039,0.276C5.699,8.951,5.771,8.15,5.771,8.15l0.159-0.12V8.013H4.402v0.018l0.16,0.12
		c0.276,1.406,1.476,2.441,2.978,2.441c1.164,0,2.586-0.768,2.848-2.498l0.046-0.063V8.013z M7.539,10.216
		c-0.618,0-1.119-0.497-1.119-1.111c0-0.613,0.501-1.111,1.119-1.111c0.619,0,1.12,0.498,1.12,1.111
		C8.659,9.719,8.158,10.216,7.539,10.216z"/>
</g>
<g id="Postombud" display="none">
	<g display="inline">
		<g>
			<path fill-rule="evenodd" clip-rule="evenodd" d="M14.5,2h-3.285c-1.103-0.672-2.364-1.05-3.691-1.05
				c-1.892,0-3.672,0.732-5.014,2.064C1.168,4.346,0.429,6.112,0.429,7.989c0,1.88,0.738,3.647,2.078,4.978s3.122,2.062,5.017,2.062
				c1.317,0,2.569-0.374,3.666-1.036c1.183,0.002,2.418,0.003,3.311,0.003c0.885,0,1-1.04,1-1.04V3.042C15.5,3.042,15.386,2,14.5,2z
				 M11.254,11.691c-0.996,0.989-2.321,1.533-3.73,1.533c-1.41,0-2.734-0.544-3.731-1.533C2.795,10.703,2.246,9.388,2.246,7.99
				c0-1.396,0.55-2.71,1.548-3.7c0.998-0.99,2.322-1.535,3.729-1.535c1.409,0,2.734,0.544,3.73,1.533
				C12.251,5.276,12.8,6.591,12.8,7.99C12.8,9.388,12.251,10.703,11.254,11.691z M7.541,3.51c-1.209,0-2.348,0.469-3.205,1.319
				S3.007,6.809,3.007,8.009c0,1.202,0.472,2.331,1.328,3.181c0.855,0.851,1.994,1.318,3.206,1.318c1.211,0,2.35-0.468,3.206-1.318
				c0.856-0.85,1.328-1.979,1.328-3.181c0-1.201-0.472-2.331-1.328-3.181S8.752,3.51,7.541,3.51z M7.474,5.415
				c-0.051-0.026-0.089-0.08-0.089-0.139c0-0.073,0.057-0.137,0.125-0.152v-0.09h-0.07V4.976h0.07V4.909h0.058v0.067h0.07v0.057
				h-0.07v0.09c0.069,0.014,0.127,0.08,0.127,0.153c0,0.06-0.037,0.113-0.089,0.139C7.879,5.42,8.906,5.492,9.004,6.312H8.675
				c-0.022-0.451-0.23-0.605-0.605-0.701c0.281,0.236,0.269,0.422,0.287,0.701H8.016c0-0.487-0.125-0.729-0.355-0.764
				c0.059,0.228,0.073,0.69,0.055,0.764H7.363C7.346,6.238,7.359,5.775,7.418,5.548c-0.23,0.034-0.355,0.276-0.355,0.764h-0.34
				C6.74,6.033,6.728,5.847,7.009,5.61c-0.375,0.096-0.583,0.25-0.605,0.701H6.074C6.172,5.491,7.203,5.42,7.474,5.415z
				 M6.185,6.352c0.071,0,0.129,0.058,0.129,0.128c0,0.035-0.014,0.079-0.036,0.102c0.013-0.004,0.04-0.005,0.055-0.005
				c0.071,0,0.129,0.057,0.129,0.128S6.403,6.832,6.332,6.832c-0.046,0-0.082-0.021-0.104-0.057c0.039,0.127,0.134,0.21,0.3,0.21
				c0.21,0,0.279-0.139,0.301-0.21C6.806,6.81,6.766,6.832,6.721,6.832c-0.07,0-0.128-0.057-0.128-0.128S6.65,6.576,6.721,6.576
				c0.019,0,0.035-0.001,0.051,0.005C6.748,6.558,6.732,6.516,6.732,6.48c0-0.07,0.058-0.128,0.129-0.128S6.99,6.41,6.99,6.48
				c0,0.035-0.014,0.079-0.036,0.102c0.013-0.004,0.04-0.005,0.055-0.005c0.071,0,0.129,0.057,0.129,0.128S7.08,6.832,7.009,6.832
				c-0.045,0-0.092-0.022-0.114-0.057c0.035,0.098,0.072,0.21,0.311,0.21c0.231,0,0.271-0.125,0.303-0.21
				C7.484,6.81,7.438,6.832,7.393,6.832c-0.071,0-0.128-0.057-0.128-0.128s0.057-0.128,0.128-0.128c0.015,0,0.042,0.001,0.055,0.005
				C7.425,6.559,7.411,6.515,7.411,6.48c0-0.07,0.058-0.128,0.129-0.128S7.669,6.41,7.669,6.48c0,0.036-0.016,0.078-0.039,0.102
				c0.016-0.007,0.032-0.005,0.051-0.005c0.071,0,0.129,0.057,0.129,0.128S7.752,6.832,7.681,6.832
				c-0.045,0-0.086-0.022-0.109-0.057c0.036,0.098,0.067,0.211,0.304,0.211c0.238,0,0.273-0.114,0.309-0.211
				C8.161,6.81,8.114,6.832,8.069,6.832c-0.07,0-0.129-0.057-0.129-0.128s0.059-0.128,0.129-0.128c0.015,0,0.042,0.001,0.055,0.005
				C8.103,6.559,8.088,6.515,8.088,6.48c0-0.07,0.058-0.128,0.129-0.128S8.346,6.41,8.346,6.48c0,0.036-0.016,0.078-0.039,0.102
				c0.016-0.007,0.032-0.005,0.051-0.005c0.07,0,0.129,0.057,0.129,0.128S8.428,6.832,8.357,6.832c-0.045,0-0.084-0.022-0.107-0.057
				c0.022,0.072,0.091,0.21,0.302,0.21c0.165,0,0.26-0.083,0.299-0.21C8.828,6.811,8.792,6.832,8.747,6.832
				c-0.071,0-0.129-0.057-0.129-0.128s0.058-0.128,0.129-0.128c0.014,0,0.041,0.001,0.054,0.005C8.778,6.559,8.765,6.515,8.765,6.48
				c0-0.07,0.058-0.128,0.129-0.128S9.022,6.41,9.022,6.48c0,0.02-0.004,0.039-0.008,0.045c0.002-0.002-0.303,0.699-0.303,0.699
				H6.367c0,0-0.305-0.701-0.304-0.699C6.06,6.519,6.056,6.5,6.056,6.48C6.056,6.41,6.113,6.352,6.185,6.352z M10.434,8.031
				l-0.046,0.063c-0.262,1.73-1.684,2.498-2.848,2.498c-1.502,0-2.701-1.035-2.978-2.441l-0.16-0.12V8.013H5.93v0.018L5.771,8.15
				c0,0-0.071,0.801,0.298,1.233C6.048,9.287,6.029,9.211,6.029,9.107c0-0.816,0.688-1.501,1.512-1.501S9.05,8.291,9.05,9.107
				c0,0.291-0.074,0.541-0.221,0.77c0.575-0.31,1.054-0.827,1.228-1.783l-0.044-0.063V8.013h0.421V8.031z M7.539,7.994
				c-0.618,0-1.119,0.498-1.119,1.111c0,0.614,0.501,1.111,1.119,1.111c0.619,0,1.12-0.497,1.12-1.111
				C8.659,8.491,8.158,7.994,7.539,7.994z"/>
		</g>
	</g>
</g>
<g id="Mailbox" display="none">
	<g display="inline">
		<g>
			<path fill-rule="evenodd" clip-rule="evenodd" d="M8.03,1.708c-3.276,0-5.027,0.785-5.027,1.8v9.032c0,1.401,1,1.419,1,1.419
				l8.011,0.014c0,0,1-0.041,1-1.474V3.527C13.014,2.559,11.307,1.708,8.03,1.708z M8.736,9.834L5.907,7.006h4.181l0.738,0.739
				L8.736,9.834z M11.998,6.001H4.005v-1h7.993V6.001z"/>
		</g>
	</g>
</g>
<g id="Tollroad-se" display="none">
	<path display="inline" d="M13.435,9.399c0.202-0.096,0.394-0.211,0.571-0.354c0.562-0.439,0.854-1.171,0.835-1.802
		c0.026-0.76-0.411-1.446-0.923-1.826l0.168-0.213c0.148-0.176,0.287-0.481,0.285-0.807c0-0.396-0.184-0.72-0.382-0.918
		c-0.203-0.205-0.428-0.32-0.655-0.39l-0.02-0.006l-0.016-0.004c-0.085-0.022-0.172-0.043-0.26-0.062
		c-0.1-0.419-0.393-0.701-0.623-0.837c-0.297-0.179-0.592-0.244-0.903-0.247h-0.446l-0.01,0.001
		c-0.301,0.015-0.583,0.085-0.869,0.265C9.958,2.34,9.656,2.634,9.57,3.091C9.324,3.172,9.088,3.288,8.861,3.436L7.433,1.573
		C4.696,1.665,2.805,2.074,2.805,2.074C2.336,2.167,2,2.577,2,3.055v9.998c0,0.494,0.345,0.919,0.851,0.988
		c0,0,2.45,0.386,5.649,0.386c3.199,0,5.648-0.386,5.648-0.386C14.638,13.967,15,13.547,15,13.053V11.44L13.435,9.399z M4.351,2.139
		h0.944l0.393,0.86H4.617L4.351,2.139z M4.879,3.838h1.192L6.62,5.036H5.252L4.879,3.838z M5.627,6.241H7.17l0.646,1.413
		c-0.05,0.117-0.085,0.242-0.102,0.37H6.183L5.627,6.241z M7.679,12.832L6.766,9.898h2.076l1.34,2.934H7.679z M11.876,8.677v0.608
		c0,0.157-0.206,0.285-0.461,0.285h-0.413c-0.245,0.01-0.451-0.117-0.461-0.285V8.696c-0.56-0.029-1.07-0.128-1.473-0.255
		C8.832,8.382,8.744,8.215,8.842,8.058l0.227-0.304c0.078-0.138,0.354-0.196,0.569-0.138c0.442,0.128,0.913,0.207,1.384,0.207
		c0.736-0.01,0.982-0.177,0.992-0.501c-0.01-0.363-0.236-0.432-0.973-0.56C9.834,6.557,8.95,6.281,8.94,5.329
		C8.93,4.514,9.598,4.102,10.658,3.984l-0.01-0.658c0-0.157,0.206-0.285,0.452-0.294h0.412c0.255,0,0.462,0.127,0.462,0.284
		l0.01,0.658c0.383,0.029,0.736,0.088,1.031,0.167c0.225,0.068,0.322,0.245,0.205,0.383l-0.215,0.275
		c-0.128,0.147-0.403,0.207-0.639,0.147c-0.285-0.069-0.58-0.108-0.982-0.099c-0.529,0-0.766,0.158-0.766,0.412
		c0,0.314,0.138,0.374,0.864,0.511c1.188,0.186,2.248,0.422,2.259,1.473C13.742,8.009,13.211,8.539,11.876,8.677z"/>
</g>
<g id="Snowmobile" display="none">
	<g display="inline">
		<g>
			<path d="M7.121,4.592c0.702,0,1.271-0.57,1.271-1.271c0-0.702-0.57-1.271-1.271-1.271S5.85,2.618,5.85,3.32
				C5.85,4.021,6.419,4.592,7.121,4.592z M14.506,10.318c0.455-0.832,0.348-1.757-1.062-2.845c-1.053-0.812-2.549-1.274-2.549-1.274
				S10.104,7.293,9.752,7.85C9.4,8.408,8.791,8.536,8.226,8.532c-0.171-0.001-0.814-0.021-1.625-0.05
				c-0.064-0.08-0.133-0.146-0.267-0.231C5.823,7.929,5.186,7.885,4.55,7.733C4.91,7.329,5.27,6.974,5.63,6.569
				c0.232,0.275,1.241,1.016,1.496,1.122c0.256,0.105,1.586-0.133,2.231-0.512c0.438-0.256,0.183-0.93-0.286-0.966
				C8.746,6.188,7.844,6.55,7.76,6.53C7.496,6.466,6.641,5.501,6.323,5.029C6.028,4.59,5.513,4.076,4.938,4.242
				C4.474,4.374,4.079,4.834,3.753,5.167C3.327,5.601,2.91,6.043,2.484,6.477C2.104,6.862,1.871,7.46,2.021,8
				c0.036,0.129,0.077,0.228,0.121,0.321c-0.1-0.004-0.169-0.006-0.169-0.006s-1.547,0.83-1.899,3.183h12.678
				C12.752,11.497,13.924,11.381,14.506,10.318z M15.921,10.924c-0.811,1.027-1.315,1.624-2.63,1.629H8.607
				c-0.688-0.005-0.7,0.648-0.7,0.648s-0.042,0.745,0.7,0.75c0,0,3.084,0,4.684,0h0.052c1.987,0,2.306-0.975,2.306-0.975
				C15.984,12.521,15.921,10.924,15.921,10.924z M1.738,13.948h3.484c1.604,0,1.713-1.396,1.713-1.396H0.121
				C0.121,12.553,0.426,13.948,1.738,13.948z"/>
		</g>
	</g>
</g>
<g id="Trafficwarning-se" display="none">
	<g display="inline">
		<g>
			<path d="M14.876,11.82L9.371,2.546C9.082,2.061,8.56,1.763,7.995,1.763h0c-0.565,0-1.088,0.298-1.376,0.785l-5.495,9.275
				C0.831,12.316,0.825,12.93,1.11,13.43c0.285,0.499,0.815,0.808,1.39,0.808h11c0.575,0,1.105-0.309,1.391-0.809
				C15.175,12.93,15.17,12.314,14.876,11.82z M2.5,12.637l5.495-9.274l5.505,9.274H2.5z M7.136,6.75l0.028,4.205
				c0.003,0.468,0.383,0.845,0.85,0.845H8.02c0.47-0.003,0.847-0.387,0.843-0.854L8.836,6.739C8.832,6.27,8.449,5.892,7.979,5.895
				C7.51,5.898,7.132,6.281,7.136,6.75z"/>
		</g>
	</g>
</g>
<g id="Speedcamera-se" display="none">
	<g display="inline">
		<g>
			<path d="M14.197,2.083c0,0-2.396-0.52-5.697-0.52s-5.695,0.52-5.695,0.52C2.336,2.177,2,2.586,2,3.064v9.997
				c0,0.495,0.346,0.919,0.851,0.988c0,0,2.45,0.386,5.649,0.386c3.199,0,5.648-0.386,5.648-0.386
				C14.639,13.977,15,13.557,15,13.062V3.064C15,2.586,14.665,2.177,14.197,2.083z M5.516,9.548
				c-0.341,0.321-0.732,0.694-0.875,0.831c-0.146,0.145-0.263,0.242-0.276,0.227c-0.048-0.051-1.36-2.364-1.348-2.376
				c0.022-0.024,2.24-0.65,2.288-0.645C5.337,7.586,5.56,7.94,5.797,8.354C5.981,8.672,6.13,8.94,6.13,8.95
				C6.13,8.961,5.854,9.229,5.516,9.548z M10.508,13.217H9.385V9.357c0,0,1.113-0.654,1.123-0.654
				C10.516,8.703,10.508,13.217,10.508,13.217z M12.625,6.613L8.358,8.958c-0.726,0.399-1.232,0.251-1.63-0.475L6.039,7.229
				c-0.4-0.726-0.252-1.232,0.474-1.631l4.266-2.345c0.727-0.399,1.232-0.251,1.631,0.475L13.1,4.982
				C13.499,5.708,13.352,6.214,12.625,6.613z"/>
		</g>
	</g>
</g>
<g id="Camera" display="none">
	<g display="inline">
		<g>
			<path d="M7.969,7.107c-1.122,0-2.033,0.912-2.033,2.035c0,1.121,0.911,2.033,2.033,2.033c1.123,0,2.033-0.912,2.033-2.033
				C10.002,8.019,9.092,7.107,7.969,7.107z M14.769,5.729c-0.344-1-1.237-1.04-1.237-1.04h-2.815
				c-0.055-0.567-0.884-1.495-1.838-1.495H7.074c-0.997,0-1.803,0.927-1.856,1.495H2.463c0,0-0.953-0.019-1.257,0.99
				c-0.616,2.055-0.616,5.116,0,7.083c0.341,1.085,1.257,1.042,1.257,1.042h11.068c0,0,0.909,0.029,1.237-1.042
				C15.38,10.766,15.457,7.734,14.769,5.729z M7.969,12.347c-1.771,0-3.206-1.435-3.206-3.205c0-1.771,1.436-3.208,3.206-3.208
				c1.771,0,3.207,1.436,3.207,3.208C11.176,10.912,9.74,12.347,7.969,12.347z"/>
		</g>
	</g>
</g>
<g id="Reststop" display="none">
	<path display="inline" d="M6.177,11.572c-1.039,0-0.893,0-0.893,0v1.877h4.449V8.988c0,0-3.316,0.213-3.316-0.194
		c0-0.886,3.206-2.105,3.206-2.105S7.041,6.815,7.067,6.44c0.05-0.733,2.669-1.474,2.669-1.474C8.847,4.992,7.83,5.05,7.83,4.469
		c0.029-0.232,0.799-0.783,1.394-1.534c0.61-0.769,0.674-1.585,1.306-1.592c0.612,0.042,0.674,0.888,1.278,1.65
		c0.552,0.696,1.294,1.04,1.277,1.476c-0.029,0.523-1.104,0.552-1.914,0.497c0,0,2.783,0.739,2.783,1.491
		c0,0.357-2.548,0.231-2.548,0.231s3.207,1.168,3.207,2.105c0,0.411-3.316,0.194-3.316,0.194v4.461c0,0,0.609,0,1.888,0
		c1.279,0,1.264,1.564,0,1.564c-1.263,0-9.094,0-10.2,0c-1.107,0-1.095-1.564,0-1.564s0.726,0,0.726,0v-1.877c0,0-0.413,0-0.882,0
		c-1.226,0-1.226-1.564,0-1.564c0.617,0,2.551,0,3.349,0C7.49,10.008,7.473,11.572,6.177,11.572z"/>
</g>
<g id="Plus" display="none">
	<g display="inline">
		<g>
			<polygon fill-rule="evenodd" clip-rule="evenodd" points="15.008,7.021 10.008,7.021 10.008,2.021 6.977,2.021 6.977,7.021 
				2.008,7.021 2.008,10.021 6.977,10.021 6.977,15.021 10.008,15.021 10.008,10.021 15.008,10.021 			"/>
		</g>
	</g>
</g>
<g id="Minus" display="none">
	<path display="inline" fill-rule="evenodd" clip-rule="evenodd" d="M14.979,10.029H1.937v-3h13.042V10.029z"/>
</g>
<g id="Search" display="none">
	<path display="inline" d="M15.665,13.547l-3.822-3.822c0.576-0.947,0.908-2.059,0.908-3.249c0-3.456-2.994-6.45-6.45-6.45
		S0.043,2.828,0.043,6.284c0,3.456,2.994,6.45,6.45,6.45c1.149,0,2.226-0.312,3.15-0.852l3.844,3.843
		c0.375,0.377,0.985,0.377,1.36,0l0.954-0.953C16.178,14.396,16.041,13.922,15.665,13.547z M6.493,10.809
		c-2.393,0-4.524-2.133-4.524-4.525c0-2.393,1.939-4.333,4.332-4.333s4.524,2.132,4.524,4.525S8.886,10.809,6.493,10.809z"/>
</g>
<g id="Clear" display="none">
	<g display="inline">
		<g>
			<path fill-rule="evenodd" clip-rule="evenodd" d="M8.024,0.976c-3.888,0-7.039,3.152-7.039,7.04s3.151,7.04,7.039,7.04
				c3.889,0,7.04-3.152,7.04-7.04S11.913,0.976,8.024,0.976z M11.518,10.091l-1.443,1.443L8.019,9.458l-2.057,2.076l-1.443-1.443
				l2.063-2.083L4.497,5.902L5.94,4.459l2.078,2.099l2.273-2.295l1.443,1.443l-2.28,2.302L11.518,10.091z"/>
		</g>
	</g>
</g>
<g id="Rejta" display="none">
	<g display="inline">
		<g>
			<path d="M14.805,7.041l-2.598-1.222l0.24-2.86L9.673,3.692L8.019,1.346L6.364,3.692L3.589,2.958l0.241,2.86L1.232,7.041
				l2.022,2.036l-1.204,2.605l2.858,0.26l0.753,2.771l2.356-1.639l2.356,1.639l0.752-2.771l2.858-0.26l-1.203-2.605L14.805,7.041z
				 M8.032,12.128c-2.175,0-3.938-1.764-3.938-3.938c0-2.175,1.763-3.938,3.938-3.938s3.937,1.763,3.937,3.938
				C11.969,10.364,10.207,12.128,8.032,12.128z M8.032,5.327c-1.582,0-2.863,1.282-2.863,2.863s1.282,2.864,2.863,2.864
				c1.582,0,2.863-1.282,2.863-2.864S9.614,5.327,8.032,5.327z"/>
		</g>
	</g>
</g>
<g id="Rejtaempty" display="none">
	<g display="inline">
		<g>
			<path d="M14.805,7.041l-2.598-1.222l0.24-2.86L9.673,3.692L8.019,1.346L6.364,3.692L3.589,2.958l0.241,2.86L1.232,7.041
				l2.022,2.036l-1.204,2.605l2.858,0.26l0.753,2.771l2.356-1.639l2.356,1.639l0.752-2.771l2.858-0.26l-1.203-2.605L14.805,7.041z
				 M10.342,11.007L9.78,13.079l-1.764-1.225l-0.57,0.397l-1.192,0.827l-0.563-2.072l-2.138-0.193l0.901-1.951L2.94,7.342
				l1.944-0.916L4.704,4.288L6.78,4.837L8.017,3.08l1.238,1.755l2.075-0.549l-0.18,2.14l1.945,0.916l-1.515,1.521l0.901,1.951
				L10.342,11.007z"/>
		</g>
	</g>
</g>
<g id="Rejtahalf_1_" display="none">
	<path display="inline" d="M14.805,7.041l-2.598-1.222l0.24-2.86L9.673,3.692L8.249,1.673l-0.23-0.327L6.364,3.692L3.589,2.958
		l0.241,2.86L1.232,7.041l2.022,2.036l-1.204,2.605l2.858,0.26l0.753,2.771l2.356-1.639l0.23,0.16l2.126,1.479l0.752-2.771
		l2.858-0.26l-1.203-2.605L14.805,7.041z M10.342,11.007L9.78,13.079l-1.531-1.063v0.091c-0.073,0.004-0.143,0.021-0.217,0.021
		c-2.175,0-3.938-1.764-3.938-3.938c0-2.175,1.763-3.938,3.938-3.938c0.074,0,0.144,0.018,0.217,0.022V3.409l1.006,1.426
		l2.075-0.549l-0.18,2.14l1.945,0.916l-1.515,1.521l0.901,1.951L10.342,11.007z M5.169,8.19c0,1.582,1.282,2.864,2.863,2.864
		c0.074,0,0.144-0.017,0.217-0.021V5.349C8.176,5.343,8.106,5.327,8.032,5.327C6.451,5.327,5.169,6.608,5.169,8.19z"/>
</g>
<g id="Rejtahalf_design" display="none">
	<g display="inline">
		<g>
			<polygon points="12.207,5.818 12.447,2.958 9.673,3.692 8.249,1.673 8.249,3.409 9.255,4.835 11.33,4.286 11.15,6.426 
				13.096,7.342 11.581,8.862 12.482,10.813 10.342,11.007 9.78,13.079 8.249,12.016 8.249,13.233 10.375,14.712 11.127,11.941 
				13.985,11.682 12.782,9.076 14.805,7.041 			"/>
		</g>
	</g>
	<g display="inline">
		<g>
			<path d="M5.169,8.19c0,1.582,1.282,2.864,2.863,2.864c0.074,0,0.144-0.017,0.217-0.021V5.349
				C8.176,5.343,8.106,5.327,8.032,5.327C6.451,5.327,5.169,6.608,5.169,8.19z M8.019,1.346L6.364,3.692L3.589,2.958l0.241,2.86
				L1.232,7.041l2.022,2.036l-1.204,2.605l2.858,0.26l0.753,2.771l2.356-1.639l0.23,0.16v-1.127
				c-0.073,0.004-0.143,0.021-0.217,0.021c-2.175,0-3.938-1.764-3.938-3.938c0-2.175,1.763-3.938,3.938-3.938
				c0.074,0,0.144,0.018,0.217,0.022V1.673L8.019,1.346z"/>
		</g>
	</g>
</g>
<g id="Rows" display="none">
	<g display="inline">
		<g>
			<path fill-rule="evenodd" clip-rule="evenodd" d="M12.885,7.005H3.121c-0.565,0-1.024,0.428-1.024,0.993S2.555,8.99,3.121,8.99
				h9.764c0.566,0,1.024-0.427,1.024-0.992S13.451,7.005,12.885,7.005z M3.121,4.986h9.764c0.566,0,1.024-0.427,1.024-0.992
				s-0.458-0.992-1.024-0.992H3.121c-0.565,0-1.024,0.427-1.024,0.992S2.555,4.986,3.121,4.986z M12.885,11.005H3.121
				c-0.565,0-1.024,0.427-1.024,0.993c0,0.565,0.458,0.992,1.024,0.992h9.764c0.566,0,1.024-0.427,1.024-0.992
				C13.909,11.432,13.451,11.005,12.885,11.005z"/>
		</g>
	</g>
</g>
<g id="Columns" display="none">
	<g display="inline">
		<g>
			<path fill-rule="evenodd" clip-rule="evenodd" d="M8.002,2.097c-0.565,0-0.992,0.459-0.992,1.024v9.765
				c0,0.565,0.427,1.023,0.992,1.023s0.993-0.458,0.993-1.023V3.121C8.995,2.556,8.567,2.097,8.002,2.097z M12.006,2.097
				c-0.565,0-0.992,0.459-0.992,1.024v9.765c0,0.565,0.427,1.023,0.992,1.023s0.992-0.458,0.992-1.023V3.121
				C12.998,2.556,12.571,2.097,12.006,2.097z M4.002,2.097c-0.565,0-0.992,0.459-0.992,1.024v9.765c0,0.565,0.427,1.023,0.992,1.023
				c0.566,0,0.993-0.458,0.993-1.023V3.121C4.995,2.556,4.568,2.097,4.002,2.097z"/>
		</g>
	</g>
</g>
<g id="Bus" display="none">
	<g display="inline">
		<g>
			<path fill-rule="evenodd" clip-rule="evenodd" d="M11.514,2.802c-3.607,0.002-4.188-0.022-7.04,0C2.983,2.8,1.71,4.094,1.71,5.55
				v6.996c0,1,0.789,1,0.789,1l-0.006,0.52c0,0,0.004,0.938,1.007,0.938c1.03,0,0.997-0.938,0.997-0.938v-0.52h6.96l-0.004,0.521
				c0,0,0.057,0.938,1.047,0.938c0.985,0,1.031-0.938,1.031-0.938v-0.521c0,0,0.768,0,0.768-1V5.532
				C14.299,4.077,13.055,2.8,11.514,2.802z M3.016,6.041c0-0.973,0.972-1.024,0.972-1.024l7.995-0.009c0,0,1,0.043,1,1.006
				c0,1.326,0,3.492,0,3.492H3.016C3.016,9.506,3.016,7.366,3.016,6.041z M3.979,12.575c-0.552,0-0.999-0.447-0.999-0.999
				c0-0.551,0.447-0.998,0.999-0.998c0.551,0,0.998,0.447,0.998,0.998C4.977,12.128,4.529,12.575,3.979,12.575z M12.023,12.575
				c-0.551,0-0.998-0.447-0.998-0.999c0-0.551,0.447-0.998,0.998-0.998s0.998,0.447,0.998,0.998
				C13.021,12.128,12.574,12.575,12.023,12.575z"/>
		</g>
	</g>
</g>
<g id="Train" display="none">
	<g display="inline">
		<g>
			<path fill-rule="evenodd" clip-rule="evenodd" d="M12.044,3.32c-0.637,0-1.317-0.005-2.065-0.012V2.026h0.725V1.103H5.27v0.924
				l0.745,0.008v1.253C4.867,3.29,4.813,3.32,4.026,3.32c-1.514,0-2.316,0.78-2.316,2.218c0,2.769,0,7.558,0,7.558
				s-0.014,0.969,0.758,0.969c0.483,0,1.02,0,1.02,0l0.046,0.926h2.65v-0.926h3.616l0.027,0.928H12.5v-0.928c0,0,0.497,0,0.969,0
				c0.77,0,0.83-1,0.83-1s0-4.679,0-7.43C14.299,4.106,13.48,3.32,12.044,3.32z M7.001,2.026h1.991v1.274
				c-0.612-0.005-1.27-0.01-1.991-0.012V2.026z M4.53,12.51c-0.551,0-0.998-0.446-0.998-0.998s0.447-0.998,0.998-0.998
				s0.998,0.446,0.998,0.998S5.081,12.51,4.53,12.51z M7.523,7.757H3.024V6.028c0,0-0.004-0.943,0.941-0.943
				c1.319,0,3.558,0,3.558,0V7.757z M11.472,12.51c-0.552,0-0.998-0.446-0.998-0.998s0.446-0.998,0.998-0.998
				s0.999,0.446,0.999,0.998S12.023,12.51,11.472,12.51z M13.006,7.757H8.507V5.085c0,0,2.134,0,3.462,0
				c1.039,0,1.037,0.943,1.037,0.943V7.757z"/>
		</g>
	</g>
</g>
<g id="Tram" display="none">
	<g display="inline">
		<g>
			<path fill-rule="evenodd" clip-rule="evenodd" d="M12.051,4.049C11.64,3.253,10.645,3.04,9.992,3.04H9.971V1.934h0.785V0.942
				H5.249v0.991l0.78,0.007v1.072C5.223,3.02,4.25,3.417,3.901,4.054C3.126,5.467,2.507,8.006,2.507,9.558
				c0,1.022-0.03,0.88-0.03,2.354c0,2.559,2.059,3.099,3.09,3.099c0.114,0,0.419,0,0.823-0.001
				c-0.024-0.112-0.038-0.229-0.038-0.348c0-0.927,0.751-1.677,1.677-1.677c0.926,0,1.677,0.75,1.677,1.677
				c0,0.117-0.012,0.231-0.035,0.342c-0.18,0.001-0.365,0.001-0.562,0.001c0.035-0.108,0.059-0.223,0.059-0.344
				c0-0.629-0.51-1.138-1.138-1.138c-0.628,0-1.138,0.509-1.138,1.138c0,0.122,0.024,0.237,0.06,0.348
				c-0.168,0.001-0.319,0.001-0.466,0.001c1.434-0.002,4.001-0.007,4.436-0.007c1.093,0,2.581-0.59,2.581-3.018
				c0-1.083,0.002-1.556,0.002-2.488C13.506,8.009,12.869,5.638,12.051,4.049z M6.974,1.934h2.051v1.103
				C8.299,3.03,7.655,3.021,6.974,3.015V1.934z M4.835,4.974c0.043-0.058,0.097-0.108,0.157-0.154v4.207L3.975,9.025
				C3.975,9.025,3.756,6.404,4.835,4.974z M5.747,12.747H5.689c-0.176,0.157-0.403,0.261-0.659,0.261s-0.482-0.104-0.659-0.261
				h-0.15v-0.185c-0.11-0.16-0.189-0.344-0.189-0.553s0.079-0.393,0.189-0.553v-0.235h0.225c0.166-0.123,0.361-0.21,0.584-0.21
				s0.418,0.087,0.584,0.21h0.132v0.098c0.173,0.18,0.282,0.421,0.282,0.69c0,0.269-0.109,0.511-0.282,0.689V12.747z M6.001,9.027
				V4.501c0.273-0.03,0.584-0.045,0.944-0.045c0.632,0,1.571-0.005,2.143-0.005c0.34,0,0.642,0.014,0.909,0.042V9.03L6.001,9.027z
				 M11.747,12.631v0.116h-0.104c-0.176,0.157-0.403,0.261-0.658,0.261s-0.482-0.104-0.658-0.261h-0.104v-0.116
				c-0.14-0.172-0.235-0.383-0.235-0.621c0-0.239,0.096-0.449,0.235-0.621v-0.167H10.4c0.166-0.123,0.361-0.21,0.584-0.21
				s0.418,0.087,0.584,0.21h0.179v0.167c0.14,0.172,0.235,0.382,0.235,0.621C11.982,12.248,11.887,12.459,11.747,12.631z
				 M12.033,9.032l-1.027-0.001V4.816c0.047,0.039,0.088,0.083,0.121,0.131C12.215,6.487,12.033,9.032,12.033,9.032z"/>
		</g>
	</g>
</g>
<g id="Subway" display="none">
	<path display="inline" fill-rule="evenodd" clip-rule="evenodd" d="M7.967,0.939C4.071,0.927,1.007,4.442,0.99,8.929
		c-0.014,3.751-0.01,4.577-0.01,4.577s0.033,1.457,1.469,1.457c0.517,0,1.173,0.001,1.905,0.005
		c-0.918-0.234-1.895-1.037-1.895-3.062c0-1.474,0.03-0.83,0.03-1.854c0-1.551,0.772-4.091,1.547-5.504
		C4.389,3.905,5.379,4.035,6.19,4.035h3.644c0.652,0,1.86-0.078,2.183,0.508c0.861,1.566,1.516,3.96,1.516,5.447
		c0,0.933-0.001,0.906-0.001,1.988c0,2.428-0.99,3.019-2.082,3.019c-0.002,0-0.007,0.006-0.01,0.009
		c0.809,0.004,1.534,0.007,2.097,0.007c1.378,0,1.476-1.441,1.476-1.441s0.008-0.892,0.008-4.648
		C15.021,4.436,11.98,0.934,7.967,0.939z M11.987,12.052c0-0.551-0.446-0.998-0.999-0.998c-0.551,0-0.997,0.447-0.997,0.998
		s0.446,0.999,0.997,0.999C11.541,13.051,11.987,12.603,11.987,12.052z M7.084,10.016c0.495,0,1.308-0.005,1.855-0.005
		c0.966,0,1.565-0.117,1.826-0.517c0.934-1.431,0.745-3.927,0.745-3.927L4.534,5.56c0,0-0.156,2.421,0.786,3.96
		C5.557,9.909,6.182,10.016,7.084,10.016z M5.035,11.054c-0.551,0-0.998,0.447-0.998,0.998s0.447,0.999,0.998,0.999
		c0.552,0,0.998-0.448,0.998-0.999S5.587,11.054,5.035,11.054z M8.035,13.026c-0.926,0-1.677,0.75-1.677,1.677
		c0,0.107,0.012,0.212,0.031,0.313l0.558,0.003c-0.029-0.102-0.05-0.206-0.05-0.317c0-0.628,0.509-1.138,1.138-1.138
		c0.629,0,1.138,0.51,1.138,1.138c0,0.116-0.022,0.225-0.054,0.329l0.56,0.004c0.021-0.107,0.033-0.218,0.033-0.332
		C9.712,13.776,8.961,13.026,8.035,13.026z"/>
</g>
<g id="Ferry" display="none">
	<path display="inline" fill-rule="evenodd" clip-rule="evenodd" d="M5.685,13.481c1.038-0.229,1.976-2.522,1.976-2.522
		S7.653,7.083,7.653,6.444c0-0.544,0.69-0.599,0.69,0.019c0,0.648,0.006,4.51,0.006,4.51s1.075,2.288,1.962,2.51
		c0.897-0.599,1.71-1.468,2.356-2.369c0.005-0.009,0.011-0.02,0.011-0.02l0.003,0.001c1.321-1.85,1.941-3.818,1.155-3.818
		c-0.309,0-0.86-0.151-1.504-0.373c0.514-0.999,1.091-2.174,1.091-2.41c0-0.338-2.074-1.298-4.045-1.681l-0.008-1.03
		c0,0-0.694-0.227-1.392-0.227c-0.657,0-1.319,0.227-1.319,0.227v0.979C4.679,3.082,2.596,4.032,2.596,4.507
		c0,0.318,0.552,1.449,1.047,2.399c-0.629,0.22-1.171,0.37-1.478,0.37C0.993,7.276,2.929,11.646,5.685,13.481z M3.89,4.922
		c0-0.376,2.231-1.312,4.036-1.312c1.804,0,4.289,0.947,4.289,1.299c0,0.191-0.368,0.999-0.703,1.695
		C9.831,5.958,7.953,5.083,7.953,5.083S4.376,6.63,4.545,6.568C4.229,5.892,3.89,5.122,3.89,4.922z M10.352,14.247
		c-0.271,0-0.539-0.137-0.793-0.341c0.004-0.001,0.007-0.003,0.011-0.005c-0.846-0.772-1.539-2.282-1.539-2.282
		s-0.593,1.255-1.332,2.066c-0.325,0.334-0.681,0.575-1.033,0.575c-1.177,0-2.613-2.542-2.613-2.542S2.7,13.016,2.081,13.8v1.27
		h0.058c0.544-0.674,0.964-1.601,0.964-1.601s0.645,0.93,1.374,1.601H6.74c0.66-0.697,1.255-1.686,1.255-1.686
		s0.62,0.98,1.286,1.686h2.251c0.745-0.649,1.482-1.514,1.482-1.514s0.326,0.509,0.767,1.029v-1.361
		c-0.48-0.722-0.791-1.516-0.791-1.516S11.566,14.247,10.352,14.247z"/>
</g>
<g id="Car" display="none">
	<path display="inline" fill-rule="evenodd" clip-rule="evenodd" d="M14.516,10.629c0-1.14-0.009-0.931-0.009-2.125
		c0-1.386-1.402-2.171-1.402-2.171s0.026-1.016-0.077-2.21c-0.103-1.191-1.266-2.08-2.405-2.08H5.219
		c-0.861,0-2.119,0.724-2.172,1.989c-0.053,1.25-0.054,2.24-0.054,2.24S1.547,7.141,1.547,8.227s0.009,1.32,0.009,2.297
		c0,0.896,0.799,1.588,1.173,1.729v1.438c0,1,1.663,0.983,1.663-0.017v-1.212c2.543,0.258,4.773,0.297,7.227,0.02v1.209
		c0,1,1.662,0.983,1.662-0.017v-1.441h-0.008C13.723,12.081,14.516,11.606,14.516,10.629z M3.84,10.54
		c-0.626,0-1.134-0.508-1.134-1.135S3.214,8.271,3.84,8.271c0.627,0,1.135,0.508,1.135,1.135S4.467,10.54,3.84,10.54z M4.188,6.601
		c0,0,0-1.325,0-1.74c0-0.992,0.457-1.56,1.231-1.56h5.117c0.601,0,1.321,0.607,1.332,1.56c0.007,0.556,0,1.74,0,1.74H4.188z
		 M12.23,10.54c-0.626,0-1.135-0.508-1.135-1.135s0.509-1.135,1.135-1.135c0.627,0,1.135,0.508,1.135,1.135
		S12.857,10.54,12.23,10.54z"/>
</g>
<g id="Biking" display="none">
	<g display="inline">
		<g>
			<path fill-rule="evenodd" clip-rule="evenodd" d="M9.58,4.146c0.702,0,1.271-0.569,1.271-1.271S10.282,1.603,9.58,1.603
				S8.309,2.172,8.309,2.874S8.878,4.146,9.58,4.146z M3.568,8.748c-1.687,0-3.055,1.368-3.055,3.055
				c0,1.688,1.368,3.055,3.055,3.055c1.688,0,3.055-1.367,3.055-3.055C6.623,10.116,5.256,8.748,3.568,8.748z M3.568,13.605
				c-0.995,0-1.802-0.808-1.802-1.803s0.807-1.802,1.802-1.802s1.802,0.807,1.802,1.802S4.563,13.605,3.568,13.605z M12.71,8.748
				c-1.687,0-3.055,1.368-3.055,3.055c0,1.688,1.368,3.055,3.055,3.055s3.055-1.367,3.055-3.055
				C15.765,10.116,14.396,8.748,12.71,8.748z M12.71,13.605c-0.995,0-1.802-0.808-1.802-1.803s0.807-1.802,1.802-1.802
				s1.802,0.807,1.802,1.802S13.705,13.605,12.71,13.605z M8.985,8.581L7.009,7.336l1.08-1.213c0.205,0.36,0.587,0.441,0.74,0.666
				c0.144,0.224,0.677,0.506,0.866,0.599c0.191,0.082,0.394,0.096,0.785,0.094c0.39-0.004,1.239,0.103,1.554-0.029
				c0.299-0.138,0.343-0.509,0.294-0.686c-0.05-0.181-0.279-0.286-0.604-0.339c-0.332-0.059-0.743-0.094-1.348-0.105
				c-0.649-0.577-1.2-1.099-1.422-1.465C8.73,4.484,8.603,4.316,8.396,4.133C8.18,3.952,7.936,3.758,7.672,3.763
				C7.411,3.76,7.226,3.819,6.857,4.118C6.48,4.411,5.845,5.104,5.453,5.522C5.062,5.937,4.858,6.064,4.654,6.387
				C4.45,6.693,4.492,6.919,4.499,7.201c0,0.282,0.084,0.45,0.326,0.73c0.244,0.273,0.646,0.483,1.124,0.771
				c0.472,0.282,0.93,0.585,1.595,0.917c-0.015,0.825-0.015,1.508,0,2.069c0.015,0.556-0.062,0.994,0.074,1.274
				c0.133,0.271,0.581,0.381,0.803,0.385c0.212-0.004,0.469,0.002,0.576-0.37c0.1-0.379,0.038-1.109,0.045-1.851
				C9.048,10.377,8.996,9.572,8.985,8.581z"/>
		</g>
	</g>
</g>
<g id="Airplane" display="none">
	<path display="inline" fill-rule="evenodd" clip-rule="evenodd" d="M10.49,15.255l-2.5-0.814L5.5,15.219v-1.229
		c0,0,1.495-1.276,1.517-1.31c0-1.086,0-2.961,0-2.961l-5.761,1.954V9.622l5.761-3.618l0.005-3.261c0,0-0.01-1.347,1.019-1.347
		c0.941,0,0.933,1.352,0.933,1.352L8.964,6.034l5.882,3.547v2.092L8.964,9.719v2.931l1.526,1.338V15.255z"/>
</g>
<g id="Snowmobile_1_" display="none">
	<g display="inline">
		<g>
			<path d="M14.506,10.318c0.455-0.832,0.348-1.757-1.062-2.846c-1.053-0.812-2.549-1.273-2.549-1.273s-0.791,1.094-1.143,1.651
				C9.4,8.407,8.791,8.536,8.226,8.532c-0.171-0.001-0.814-0.021-1.625-0.05c-0.064-0.08-0.133-0.146-0.267-0.231
				C5.823,7.929,5.186,7.885,4.55,7.732C4.91,7.328,5.27,6.974,5.63,6.569C5.863,6.844,6.871,7.585,7.126,7.69
				c0.256,0.106,1.586-0.133,2.231-0.512C9.795,6.922,9.54,6.248,9.071,6.213C8.746,6.188,7.844,6.551,7.76,6.53
				C7.496,6.466,6.641,5.501,6.323,5.028C6.028,4.59,5.513,4.076,4.938,4.241C4.474,4.374,4.079,4.834,3.753,5.167
				C3.327,5.601,2.91,6.043,2.484,6.477C2.104,6.861,1.871,7.46,2.021,7.999c0.036,0.129,0.077,0.228,0.121,0.322
				c-0.1-0.004-0.169-0.006-0.169-0.006s-1.547,0.83-1.899,3.183h12.678C12.752,11.497,13.924,11.381,14.506,10.318z M15.921,10.924
				c-0.811,1.027-1.315,1.624-2.63,1.628H8.607c-0.688-0.004-0.7,0.649-0.7,0.649s-0.042,0.745,0.7,0.75c0,0,3.084,0,4.684,0h0.052
				c1.987,0,2.306-0.975,2.306-0.975C15.984,12.521,15.921,10.924,15.921,10.924z M7.121,4.592c0.702,0,1.271-0.57,1.271-1.271
				c0-0.702-0.57-1.271-1.271-1.271S5.85,2.618,5.85,3.32C5.85,4.021,6.419,4.592,7.121,4.592z M1.738,13.948h3.484
				c1.604,0,1.713-1.396,1.713-1.396H0.121C0.121,12.552,0.426,13.948,1.738,13.948z"/>
		</g>
	</g>
</g>
<g id="Walking" display="none">
	<path display="inline" d="M8.499,4.196c0.689,0,1.248-0.558,1.248-1.247c0-0.688-0.559-1.247-1.248-1.247
		c-0.688,0-1.247,0.56-1.247,1.247C7.252,3.639,7.81,4.196,8.499,4.196z M11.495,7.958c-1.587-0.025-2.046-1.504-2.17-2.127
		C9.32,5.758,9.314,5.685,9.304,5.612C9.248,5.213,8.395,4.884,7.809,4.963c-0.14,0.015-0.27,0.045-0.391,0.093
		C6.907,5.209,5.367,5.847,4.222,8.169c-0.175,0.354-0.177,0.617-0.069,0.78c0.04,0.062,0.162,0.156,0.233,0.176
		c0.138,0.038,0.311,0.051,0.406-0.101c0.553-0.886,1.104-1.463,1.586-1.843C6.261,7.886,6.185,8.661,6.106,9.358
		C6.005,10.257,5.688,11.1,5.688,11.1l-0.812,1.844c-0.272,0.364-0.408,0.98-0.044,1.253c0.365,0.272,0.74,0.195,1.013-0.156
		c0-0.013,1.817-3.636,1.817-3.636l0.947,1.369l0.967,2.059c0.144,0.286,0.441,0.43,0.74,0.43c0.065,0,0.131,0,0.195-0.014
		c0.066-0.013,0.053,0.008,0.117-0.031c0.403-0.22,0.422-0.699,0.214-1.103l-0.802-2.132L8.734,9.09c0,0,0.137-0.516,0.25-0.979
		c0.457,0.486,1.15,0.887,2.203,0.882c0.222-0.001,0.486-0.004,0.656-0.297C11.995,8.434,11.942,7.965,11.495,7.958z"/>
</g>
<g id="Crosscountryskiing" display="none">
	<path display="inline" d="M8.983,4.429c0.688,0,1.247-0.559,1.247-1.247S9.672,1.934,8.983,1.934s-1.247,0.56-1.247,1.248
		S8.295,4.429,8.983,4.429z M3.586,8.615c0.007-0.2,0.039-0.444,0.155-0.712c0.006-0.013,0.014-0.025,0.021-0.038L1.146,6.558
		C0.958,6.471,0.734,6.552,0.647,6.739C0.559,6.927,0.64,7.15,0.828,7.237L3.586,8.615z M15.066,13.038
		c-0.257-0.099-0.547,0.03-0.645,0.289l-0.001-0.001c-0.112,0.315-0.514,0.626-0.889,0.615h-1.991l-0.428-1.495l1.92-5.082
		c0.021-0.058,0.024-0.116,0.019-0.173c0.042-0.25-0.062-0.537-0.411-0.542c-1.688-0.027-2.73-0.827-3.025-1.085
		C9.613,5.563,9.612,5.562,9.611,5.562C9.557,5.514,9.52,5.479,9.52,5.479l-0.01,0.01C9.197,5.275,8.688,5.142,8.294,5.194
		C8.176,5.207,8.064,5.23,7.959,5.266L7.953,5.242c0,0-2.134,0.141-3.525,2.964c-0.175,0.354-0.177,0.617-0.069,0.78
		c0.04,0.062,0.163,0.156,0.233,0.176C4.73,9.2,4.903,9.213,4.998,9.062c0.641-1.027,1.331-1.606,1.917-1.936
		C6.756,7.91,6.637,8.81,6.451,9.59c-0.212,0.898-0.724,1.658-0.724,1.658l-1.521,2.681c-0.004,0.006-0.002,0.007-0.006,0.012H1.229
		c-0.277,0-0.5,0.224-0.5,0.5c0,0.277,0.223,0.501,0.5,0.501l12.303-0.001c0.849-0.012,1.543-0.551,1.823-1.256
		C15.454,13.427,15.324,13.137,15.066,13.038z M9.747,13.941L5.848,13.94c0.62-0.896,2.299-3.304,2.299-3.304l1.15,1.254l0.59,1.68
		L9.747,13.941z M10.729,11.1L9.22,9.321c0,0,0.282-1.07,0.374-1.516C9.638,7.59,9.672,7.411,9.703,7.24
		c0.587,0.203,1.389,0.375,2.428,0.393l-1.362,3.605L10.729,11.1z"/>
</g>
<g id="Skihikikng" display="none">
	<path display="inline" d="M4.68,8.922c0.374,0.124,0.758-0.024,1.13-0.235c0.075-1.03,0.224-2.123,0.497-2.843
		c0.136-0.385,0.373-0.695,0.669-0.919C6.815,4.577,6.58,4.329,6.257,4.229c-0.1-0.037-0.211-0.05-0.323-0.05
		c-0.77,0-1.626,0.807-2.024,1.974C3.787,6.538,3.725,6.911,3.725,7.258C3.725,8.09,4.084,8.735,4.68,8.922z M8.925,4.616
		c0.688,0,1.247-0.559,1.247-1.247S9.613,2.121,8.925,2.121s-1.247,0.56-1.247,1.248S8.236,4.616,8.925,4.616z M15.008,13.101
		c-0.258-0.099-0.547,0.03-0.645,0.289l-0.001-0.001c-0.112,0.315-0.514,0.626-0.889,0.615h-2.026l-0.393-1.371l1.92-5.081
		C12.996,7.497,13,7.44,12.994,7.386c0.045-0.252-0.061-0.544-0.413-0.549C10.896,6.81,9.854,6.012,9.557,5.753
		C9.555,5.751,9.553,5.749,9.551,5.748C9.496,5.7,9.46,5.666,9.46,5.666l-0.01,0.01C9.139,5.463,8.629,5.329,8.235,5.382
		C7.742,5.434,7.322,5.711,7.126,6.278C6.815,7.181,6.667,8.617,6.392,9.777c-0.125,0.897-0.275,1.658-0.275,1.658l-1.17,2.567
		H2.171c-0.278,0-0.5,0.224-0.5,0.5c0,0.277,0.223,0.501,0.5,0.501l11.303-0.001c0.848-0.012,1.543-0.551,1.823-1.256
		C15.396,13.489,15.266,13.199,15.008,13.101z M9.735,14.003H6.705c0.422-0.974,1.383-3.179,1.383-3.179l1.15,1.254l0.59,1.68
		L9.735,14.003z M10.67,11.287L9.161,9.509c0,0,0.281-1.07,0.373-1.516c0.044-0.211,0.079-0.393,0.108-0.561
		c0.588,0.202,1.393,0.375,2.428,0.393l-1.361,3.601L10.67,11.287z"/>
</g>
<g id="Downhillskiing" display="none">
	<path display="inline" d="M12.015,4.479c0.627,0.318,1.394,0.068,1.711-0.559c0.318-0.627,0.068-1.394-0.559-1.712
		c-0.626-0.317-1.393-0.067-1.711,0.559C11.138,3.394,11.388,4.16,12.015,4.479z M3.964,3.736l0.255,0.142
		C4.116,4.199,4.141,4.479,4.302,4.569c0.161,0.089,0.412-0.038,0.631-0.294l7.453,4.147c0.048,0.026,0.1,0.042,0.151,0.046
		c0.143,0.012,0.285-0.059,0.359-0.191c0.001-0.001,0.001-0.003,0.001-0.004c0.038-0.036,0.073-0.079,0.101-0.133
		c0.167-0.331,0.028-0.725-0.289-0.885l-1.161-0.59c-0.132-0.437-0.205-1.19-0.349-1.603c-0.338-0.939-0.506-1.363-1.903-1.126
		C8.578,4.059,7.642,4.712,7.524,4.791C7.51,4.799,7.484,4.816,7.466,4.828L5.284,3.614C5.367,3.316,5.342,3.06,5.189,2.975
		S4.805,3.003,4.596,3.231L4.328,3.082c-0.181-0.101-0.409-0.036-0.51,0.146C3.718,3.407,3.783,3.637,3.964,3.736z M10.017,6.112
		c0.018,0.057,0.031,0.106,0.047,0.16L9.898,6.181L10.017,6.112z M14.136,13.836c-0.167-0.22-0.481-0.262-0.7-0.093l-0.001-0.002
		c-0.261,0.21-0.766,0.263-1.079,0.058l-4.274-2.64c0.019-0.017,0.037-0.026,0.056-0.045c0.562-0.552,1.113-1.199,1.601-1.986
		C9.89,8.882,9.894,8.551,9.742,8.305c-0.279-0.48-1.188-1.34-1.188-1.34l0.188-0.109L6.55,5.635
		C6.256,6.022,6.059,6.518,6.242,7.087c0.214,0.667,1.076,1.226,2.007,1.732l-1.304,1.465c-0.028,0.044-0.038,0.093-0.056,0.14
		L2.525,7.729C2.29,7.582,1.982,7.656,1.837,7.891C1.691,8.127,1.764,8.435,2,8.58l9.831,6.068c0.728,0.436,1.602,0.342,2.211-0.111
		C14.261,14.37,14.303,14.056,14.136,13.836z"/>
</g>
<g id="Users_1_" display="none">
	<path display="inline" d="M1.059,13.822c-0.138-0.016-0.245-0.092-0.321-0.199c-0.077-0.107-0.092-0.229-0.062-0.367
		c0.214-1.01,0.872-1.851,1.79-2.417c0.245-0.138,0.52-0.244,0.811-0.366c0.52-0.215,1.116-0.444,1.224-0.796
		c0.092-0.29-0.138-0.703-0.337-1.009c-0.994-1.546-1.178-2.877-0.52-3.963c0.505-0.841,1.408-1.33,2.402-1.33
		c1.009,0,1.912,0.489,2.417,1.33c0.658,1.086,0.474,2.417-0.52,3.963C7.743,8.974,7.514,9.387,7.605,9.677
		c0.108,0.352,0.704,0.581,1.223,0.796c0.292,0.122,0.567,0.229,0.812,0.366c0.916,0.566,1.574,1.407,1.805,2.417
		c0.029,0.138,0,0.26-0.076,0.367c-0.078,0.107-0.185,0.184-0.322,0.199c-0.046,0.016-1.406,0.153-5.001,0.153
		C2.451,13.976,1.104,13.838,1.059,13.822z M15.27,11.665c-0.078,0.107-0.199,0.184-0.322,0.199
		c-0.03,0.016-0.795,0.122-2.631,0.169c-0.428-0.903-1.132-1.684-2.05-2.249C9.945,9.6,9.609,9.463,9.272,9.34
		C9.211,9.31,9.12,9.265,9.027,9.233c1.515-2.401,1.255-4.191,0.628-5.216c-0.429-0.719-0.888-1.193-1.622-1.53
		c0.52-0.673,1.009-1.07,1.912-1.07c1.01,0,1.897,0.489,2.402,1.33c0.656,1.087,0.489,2.417-0.505,3.963
		c-0.214,0.306-0.444,0.719-0.353,1.009c0.107,0.352,0.704,0.581,1.225,0.796c0.307,0.122,0.581,0.229,0.811,0.366
		c0.933,0.566,1.59,1.407,1.805,2.417C15.36,11.436,15.33,11.558,15.27,11.665z"/>
</g>
<g id="Calendar" display="none">
	<path display="inline" d="M13.145,2.875v1.896h-2.783V2.875H6.703v1.896H3.919V2.875H3.588c-0.867,0-1.576,0.71-1.576,1.576v7.908
		c0,0.867,0.709,1.576,1.576,1.576h9.859c0.867,0,1.576-0.709,1.576-1.576V4.451c0-0.866-0.623-1.576-1.489-1.576 M13.156,12.039
		H3.909V7.045h9.248V12.039z M6.022,1.008H4.57v3.087h1.453V1.008z M12.523,1.008H11.1v3.059h1.424V1.008z"/>
</g>
<g id="Envelope" display="none">
	<path display="inline" fill-rule="evenodd" clip-rule="evenodd" d="M14.981,4v8l-3.665-4L14.981,4z M0.95,3h14.125L8.292,9.344
		L0.95,3z M5.062,8l-4.082,4V4L5.062,8z M8.497,11l2.144-2.219L15.075,13H0.95l4.728-4.188L8.497,11z"/>
</g>
<g id="Cog" display="none">
	<path display="inline" d="M12.964,8.013c0-0.765,0.471-1.368,1.179-1.782c-0.128-0.427-0.297-0.836-0.505-1.221
		c-0.795,0.208-1.438-0.104-1.979-0.644c-0.541-0.541-0.705-1.185-0.498-1.979c-0.385-0.208-0.793-0.378-1.22-0.505
		C9.526,2.592,8.777,3.062,8.013,3.062c-0.764,0-1.514-0.47-1.928-1.179C5.658,2.01,5.249,2.18,4.864,2.388
		c0.208,0.794,0.042,1.438-0.498,1.979C3.825,4.906,3.182,5.218,2.387,5.01C2.179,5.395,2.01,5.804,1.882,6.23
		c0.709,0.414,1.18,1.018,1.18,1.782s-0.471,1.514-1.18,1.929c0.128,0.427,0.297,0.835,0.505,1.22
		c0.795-0.208,1.438-0.042,1.979,0.499c0.54,0.54,0.706,1.184,0.498,1.978c0.385,0.209,0.793,0.378,1.22,0.505
		c0.415-0.709,1.164-1.179,1.928-1.179c0.765,0,1.514,0.47,1.929,1.179c0.427-0.127,0.835-0.296,1.22-0.505
		c-0.207-0.794-0.043-1.438,0.498-1.978c0.541-0.541,1.184-0.853,1.979-0.645c0.208-0.385,0.377-0.794,0.505-1.221
		C13.435,9.381,12.964,8.777,12.964,8.013 M8.013,10.679c-1.472,0-2.666-1.193-2.666-2.666s1.194-2.666,2.666-2.666
		c1.473,0,2.666,1.193,2.666,2.666S9.485,10.679,8.013,10.679"/>
</g>
<g id="Clock" display="none">
	<g display="inline">
		<g>
			<path d="M8,0.918c-3.894,0-7.051,3.156-7.051,7.051c0,3.894,3.157,7.051,7.051,7.051c3.895,0,7.051-3.157,7.051-7.051
				C15.051,4.074,11.895,0.918,8,0.918z M8,13.178c-2.876,0-5.208-2.333-5.208-5.209c0-2.877,2.332-5.208,5.208-5.208
				c2.877,0,5.208,2.331,5.208,5.208C13.208,10.845,10.877,13.178,8,13.178z M8.576,4.002H7.424v4.205l2.489,2.552l0.815-0.814
				L8.576,7.73V4.002z"/>
		</g>
	</g>
</g>
<g id="Key_DESIGN" display="none">
	<g display="inline">
		<g>
			<path fill-rule="evenodd" clip-rule="evenodd" d="M13.596,2.322c-1.854-1.854-4.855-1.854-6.71-0.001
				C5.511,3.697,5.161,5.706,5.827,7.408l-4.646,4.646l0.334,2.351l2.35,0.334l0.557-0.557l-0.208-1.227l1.252,0.183l0.508-0.508
				l-0.667-2.348l2.39,0.625l0.815-0.815c1.701,0.664,3.707,0.313,5.082-1.061C15.451,7.179,15.451,4.175,13.596,2.322z
				 M12.726,6.375c-0.526,0.527-1.666,0.241-2.546-0.637C9.303,4.859,9.018,3.72,9.545,3.193c0.526-0.526,1.666-0.243,2.545,0.636
				C12.967,4.708,13.254,5.847,12.726,6.375z"/>
		</g>
	</g>
</g>
<g id="Key" display="none">
	<g display="inline">
		<g>
			<path fill-rule="evenodd" clip-rule="evenodd" d="M13.347,2.621c-1.854-1.854-4.855-1.854-6.71-0.001
				C5.262,3.996,4.912,6.004,5.578,7.707l-4.646,4.646l0.334,2.351l2.35,0.334l0.557-0.557l-0.208-1.227l1.252,0.183l0.508-0.508
				l-0.667-2.348l2.39,0.625l0.815-0.815c1.701,0.664,3.707,0.313,5.082-1.061C15.202,7.478,15.202,4.474,13.347,2.621z
				 M12.477,6.674c-0.526,0.527-1.666,0.241-2.546-0.637C9.054,5.158,8.769,4.019,9.296,3.492c0.526-0.526,1.666-0.243,2.545,0.636
				C12.718,5.007,13.005,6.146,12.477,6.674z"/>
		</g>
	</g>
</g>
<g id="locationa_1_" display="none">
	<path display="inline" d="M7.059,7.897h1.875l-0.946-2.55L7.059,7.897z M8,1.98c-2.81,0-5.087,2.277-5.087,5.087
		s4.872,7.577,5.033,7.577c0.16,0,5.143-4.768,5.143-7.577S10.809,1.98,8,1.98z M9.979,10.616l-0.6-1.562H6.633l-0.567,1.562H4.593
		l2.677-6.872h1.467l2.751,6.872H9.979z"/>
</g>
<g id="locationb_2_" display="none">
	<path display="inline" d="M8.752,6.755c0.227-0.028,0.41-0.107,0.541-0.239c0.133-0.131,0.198-0.305,0.198-0.52
		c0-0.206-0.058-0.373-0.171-0.502C9.208,5.366,9.037,5.288,8.814,5.261C8.68,5.245,8.298,5.238,7.666,5.238H6.895v1.503h0.88
		C8.298,6.741,8.625,6.771,8.752,6.755z M9.212,7.98C9.027,7.916,8.588,7.885,7.98,7.885H6.895v1.891h1.243
		c0.486,0,0.832,0.021,0.962-0.007c0.2-0.036,0.363-0.123,0.491-0.266c0.12-0.143,0.184-0.477,0.184-0.71
		c0-0.2-0.046-0.37-0.143-0.51C9.533,8.145,9.396,8.043,9.212,7.98z M8,1.958c-2.811,0-5.087,2.277-5.087,5.087
		s4.872,7.577,5.033,7.577c0.159,0,5.142-4.768,5.142-7.577S10.809,1.958,8,1.958z M10.954,9.885
		c-0.141,0.287-0.333,0.514-0.578,0.688c-0.241,0.168-0.543,0.274-0.898,0.312c-0.228,0.027-0.806,0.041-1.661,0.047H5.55v-6.8
		h2.661c0.527,0,0.921,0.021,1.177,0.065c0.258,0.043,0.49,0.136,0.696,0.274c0.202,0.14,0.375,0.325,0.512,0.557
		C10.73,5.259,10.8,5.518,10.8,5.805c0,0.312-0.085,0.599-0.253,0.859c-0.17,0.26-0.396,0.454-0.681,0.585
		c0.403,0.118,0.755,0.319,0.971,0.603c0.221,0.285,0.327,0.621,0.327,1.006C11.164,9.156,11.094,9.599,10.954,9.885z"/>
</g>
<g id="switchupdown" display="none">
	<g display="inline">
		<g>
			<path fill-rule="evenodd" clip-rule="evenodd" d="M7.018,7.63L4.996,7.638l-0.013,3.408l-3.032-0.008L6,15.079l4.042-4.041H6.988
				L7.018,7.63z M10,0.958L5.959,4.999h3.053L8.982,8.407l2.021-0.008l0.014-3.408l3.031,0.008L10,0.958z"/>
		</g>
	</g>
</g>
<g id="switchleftright" display="none">
	<g display="inline">
		<g>
			<path fill-rule="evenodd" clip-rule="evenodd" d="M8.38,4.965L4.973,4.952L4.98,1.92L0.939,5.969L4.98,10.01V6.957l3.408,0.029
				L8.38,4.965z M15.061,9.969L11.02,5.928V8.98L7.612,8.951l0.008,2.021l3.408,0.013l-0.008,3.032L15.061,9.969z"/>
		</g>
	</g>
</g>
<g id="closethin" display="none">
	<g display="inline">
		<g>
			<polygon fill-rule="evenodd" clip-rule="evenodd" points="12.95,3.82 12.243,3.113 8,7.355 3.758,3.113 3.051,3.82 7.293,8.062 
				3.051,12.305 3.758,13.013 8,8.77 12.243,13.013 12.95,12.305 8.708,8.062 			"/>
		</g>
	</g>
</g>
<g id="bike" display="none">
	<path display="inline" d="M12.57,6.981c-0.417,0-0.813,0.084-1.176,0.235l0.002-0.001l-1.014-1.533c0,0,0-0.316,0-1.511
		s-1.2-1.199-1.2-1.199H8.555c-0.332,0-0.601,0.269-0.601,0.6c0,0.332,0.269,0.601,0.601,0.601V4.172h0.628v1.092H5.947L5.574,4.637
		h0.227c0.331,0,0.6-0.269,0.6-0.6c0-0.332-0.269-0.601-0.6-0.601H3.6c-0.331,0-0.601,0.269-0.601,0.601c0,0.331,0.27,0.6,0.601,0.6
		h0.58l0.65,1.097L4.19,7.081c-0.243-0.063-0.498-0.1-0.761-0.1c-1.688,0-3.056,1.367-3.056,3.054c0,1.688,1.368,3.055,3.056,3.055
		c1.508,0,2.759-1.095,3.006-2.533c0,0.001,0,0.001,0,0.002h1.596c0.002,0,0.003,0.001,0.005,0.001c0.055,0,0.111-0.01,0.166-0.025
		c0.018-0.006,0.034-0.016,0.052-0.022c0.029-0.012,0.059-0.021,0.087-0.037c0.004-0.002,0.005-0.006,0.009-0.008
		c0.061-0.037,0.112-0.085,0.157-0.142c0.011-0.015,0.018-0.03,0.027-0.045c0.019-0.028,0.039-0.055,0.053-0.086l1.311-3.069
		l0.504,0.762V7.886c-0.547,0.552-0.886,1.312-0.886,2.149c0,1.688,1.368,3.055,3.055,3.055c1.688,0,3.055-1.367,3.055-3.055
		C15.625,8.349,14.258,6.981,12.57,6.981z M3.43,11.838c-0.995,0-1.803-0.807-1.803-1.802c0-0.996,0.808-1.803,1.803-1.803
		c0.994,0,1.802,0.807,1.802,1.803C5.231,11.031,4.424,11.838,3.43,11.838z M5.023,7.434L5.023,7.434L5.023,7.434z M6.406,9.359
		L6.406,9.359C6.245,8.646,5.834,8.029,5.27,7.602c0,0,0.001,0.001,0.002,0.001l0.297-0.626l1.414,2.383H6.406z M6.464,9.694
		c0-0.006-0.002-0.011-0.002-0.016C6.462,9.684,6.463,9.688,6.464,9.694z M7.947,8.635L6.658,6.464h2.216L7.947,8.635z
		 M12.57,11.838c-0.994,0-1.801-0.807-1.801-1.802c0-0.996,0.807-1.803,1.801-1.803c0.995,0,1.803,0.807,1.803,1.803
		C14.373,11.031,13.565,11.838,12.57,11.838z"/>
</g>
<g id="guestharbour" display="none">
	<path display="inline" d="M13.29,2.063C12.109,0.855,10.331,0.3,8,0.302C5.649,0.299,3.868,0.873,2.692,2.095
		C1.521,3.317,1.062,5.059,1.063,7.146V9.13c-0.003,2.101,0.467,3.791,1.657,4.943C3.915,15.219,5.679,15.698,8,15.698
		c2.334,0,4.097-0.489,5.286-1.629c1.188-1.146,1.653-2.822,1.65-4.878V7.115C14.938,5.011,14.47,3.274,13.29,2.063z M13.586,9.191
		c-0.001,1.88-0.418,3.119-1.236,3.906c-0.816,0.791-2.184,1.251-4.35,1.251c-2.157,0-3.524-0.454-4.341-1.247
		c-0.82-0.789-1.244-2.045-1.246-3.972V7.146c0.001-1.91,0.421-3.254,1.253-4.117C4.495,2.167,5.844,1.655,8,1.652
		c2.141,0.003,3.494,0.502,4.325,1.355c0.834,0.85,1.26,2.182,1.261,4.108V9.191z M10.221,11.312
		c-0.537,0.382-1.04,0.573-1.512,0.653V7.617h1.71c0.345,0,0.625-0.28,0.625-0.625c0-0.345-0.28-0.624-0.625-0.624h-1.71V5.996
		C9.47,5.734,10.02,5.021,10.021,4.17C10.02,3.1,9.153,2.233,8.083,2.233S6.146,3.1,6.145,4.17c0.001,0.85,0.552,1.564,1.313,1.825
		v0.372H5.656c-0.345,0-0.625,0.279-0.625,0.624c0,0.345,0.28,0.625,0.625,0.625h1.802v4.314c-0.545-0.118-1.04-0.35-1.427-0.597
		c-0.022-0.014-0.038-0.027-0.06-0.041l0.583-0.506L3.37,9.404l1.019,3.264l0.608-0.528c0.674,0.497,1.772,1.11,3.17,1.126h0.019
		c0.939,0,1.979-0.328,2.996-1.121l0.604,0.523l1.018-3.264l-3.185,1.384L10.221,11.312z M8.083,4.858
		C7.702,4.857,7.396,4.55,7.396,4.17c0.001-0.38,0.307-0.687,0.688-0.688C8.462,3.483,8.77,3.791,8.771,4.17
		C8.77,4.55,8.462,4.857,8.083,4.858z"/>
</g>
<g id="natureharbour" display="none">
	<path display="inline" fill-rule="evenodd" clip-rule="evenodd" d="M8,0.309C3.752,0.311,0.31,3.752,0.31,8
		c0,4.248,3.442,7.691,7.69,7.691S15.69,12.248,15.69,8C15.69,3.752,12.248,0.311,8,0.309z M6.642,12.524l-3.083-0.007
		C2.39,11.368,1.662,9.771,1.659,8c0.005-3.035,2.135-5.564,4.982-6.189V12.524z M12.421,12.536l-4.529-0.01v-1.075h4.891
		c0,0-2.431-3.497-2.475-8.165c-1.325,0.947-2.034,1.372-2.416,1.57V1.665C7.928,1.664,7.963,1.659,8,1.659
		c3.502,0.007,6.335,2.84,6.341,6.341C14.338,9.78,13.602,11.385,12.421,12.536z M2.944,10.538l2.723-2.052
		c0,0-0.536-2.323,0.828-5.16C2.046,5.927,2.944,10.538,2.944,10.538z"/>
</g>
<g id="turnright_1_" display="none">
	<path display="inline" fill-rule="evenodd" clip-rule="evenodd" d="M14.4,6.648L9.603,2.514v2.964H7.803V5.471
		C7.787,5.472,7.772,5.477,7.754,5.478H7.72v0.005C4.469,5.64,1.877,8.278,1.829,11.557h0.003v2.409h2.35v-2.419H4.179
		c0.052-2.004,1.634-3.615,3.624-3.728V7.816h1.799v3.035L14.4,6.648z"/>
</g>
<g id="turnleft" display="none">
	<path display="inline" fill-rule="evenodd" clip-rule="evenodd" d="M1.6,6.648l4.797-4.135v2.964h1.799V5.471
		c0.016,0.001,0.031,0.006,0.049,0.007H8.28v0.005c3.251,0.157,5.843,2.796,5.891,6.074h-0.003v2.409h-2.35v-2.419h0.002
		c-0.052-2.004-1.634-3.615-3.624-3.728V7.816H6.397v3.035L1.6,6.648z"/>
</g>
<g id="branch_DESIGN" display="none">
	<g display="inline">
		<path d="M4.359,3.344c0,0,1.674,1.876,2.627,4.8c1.101,3.375,1.242,6.878,1.242,6.878H5.755c0,0-0.115-3.196-1.409-6.479
			C3.225,5.699,2.298,4.831,2.298,4.831L4.359,3.344 M4.268,4.026L3.025,4.923c0.396,0.534,1.058,1.588,1.787,3.436
			c1.028,2.608,1.329,5.132,1.413,6.162h1.471c-0.085-1.087-0.364-3.708-1.184-6.223C5.835,6.225,4.771,4.683,4.268,4.026
			L4.268,4.026z"/>
	</g>
	<path display="inline" fill-rule="evenodd" clip-rule="evenodd" d="M8.271,15.021c0,0,0.115-3.196,1.408-6.479
		c1.121-2.844,2.049-3.712,2.049-3.712L9.667,3.344c0,0-1.674,1.876-2.627,4.8c-1.101,3.375-1.242,6.878-1.242,6.878H8.271z"/>
	<path display="inline" fill-rule="evenodd" clip-rule="evenodd" d="M6.526,2.771l7.09,4.389L12.567,0.87"/>
</g>
<g id="branchright_1_" display="none">
	<path display="inline" fill-rule="evenodd" clip-rule="evenodd" d="M13.616,7.161L12.567,0.87L6.526,2.771l2.435,1.507
		C8.39,5.106,7.596,6.439,7.04,8.144C7.031,8.172,7.022,8.202,7.013,8.23C7.004,8.202,6.996,8.172,6.986,8.144
		c-0.953-2.924-2.627-4.8-2.627-4.8L2.298,4.831c0,0,0.927,0.868,2.048,3.712c1.294,3.282,1.409,6.479,1.409,6.479h2.516
		c0,0,0.115-3.196,1.408-6.479c0.562-1.424,1.074-2.352,1.446-2.924L13.616,7.161z M4.81,8.359c-0.73-1.854-1.388-2.906-1.785-3.438
		l1.244-0.897c0.16,0.208,0.378,0.508,0.625,0.893c0.521,0.807,1.157,1.971,1.618,3.38C6.6,8.566,6.678,8.837,6.754,9.106
		c-0.371,1.35-0.603,2.664-0.743,3.71C5.812,11.595,5.454,9.993,4.81,8.359z"/>
</g>
<g id="branchleft" display="none">
	<path display="inline" fill-rule="evenodd" clip-rule="evenodd" d="M2.341,7.115L3.39,0.824l6.041,1.902L6.996,4.233
		c0.571,0.828,1.365,2.16,1.921,3.865c0.009,0.028,0.018,0.058,0.026,0.087c0.01-0.029,0.018-0.059,0.027-0.087
		c0.953-2.924,2.627-4.8,2.627-4.8l2.062,1.487c0,0-0.927,0.868-2.048,3.712c-1.295,3.282-1.41,6.479-1.41,6.479H7.686
		c0,0-0.115-3.196-1.408-6.479C5.716,7.074,5.203,6.146,4.831,5.573L2.341,7.115z M11.147,8.314c0.73-1.854,1.388-2.906,1.784-3.438
		l-1.244-0.897c-0.16,0.209-0.377,0.509-0.625,0.894c-0.52,0.807-1.156,1.971-1.617,3.38c-0.088,0.27-0.166,0.54-0.242,0.81
		c0.371,1.35,0.603,2.664,0.743,3.71C10.145,11.55,10.504,9.948,11.147,8.314z"/>
</g>
<g id="sliproad_DESIGN" display="none">
	<path display="inline" fill-rule="evenodd" clip-rule="evenodd" d="M3.593,14.994c0,0,0.413-3.148,1.524-5.121
		c1.6-2.84,5.005-4.389,5.005-4.389l0.893,2.237c0,0-2.221,1.229-3.377,2.931c-0.978,1.439-1.571,4.342-1.571,4.342H3.593z"/>
	<g display="inline">
		<path d="M6.047,3.05v11.919H3.516V3.05H6.047 M5.547,3.55H4.016v10.919h1.531V3.55L5.547,3.55z"/>
	</g>
	<g id="Layer_77">
		<rect x="5.719" y="4" display="inline" fill-rule="evenodd" clip-rule="evenodd" width="2.531" height="10.969"/>
	</g>
	<path display="inline" fill-rule="evenodd" clip-rule="evenodd" d="M8.321,3.112l3.851,7.396l2.313-5.944"/>
</g>
<g id="sliproadright" display="none">
	<path display="inline" fill-rule="evenodd" clip-rule="evenodd" d="M13.453,3.542L7.289,2.09l1.354,2.6
		C7.877,5.102,6.275,6.07,5.015,7.543V2.027H2.484v11.92h0.081c-0.001,0.012-0.003,0.025-0.003,0.025h2.474
		c0,0,0.594-2.903,1.571-4.342c0.943-1.389,2.576-2.45,3.152-2.799l1.383,2.653L13.453,3.542z M2.983,2.527h1.531v5.657
		C4.362,8.398,4.216,8.618,4.085,8.852c-0.501,0.889-0.859,2.016-1.102,2.986V2.527z"/>
</g>
<g id="sliproadright_NEW" display="none">
	<path display="inline" fill-rule="evenodd" clip-rule="evenodd" d="M7.289,2.09l1.354,2.6C7.877,5.102,6.275,6.07,5.015,7.543
		V2.027H4.514v6.157C4.362,8.398,4.216,8.618,4.085,8.852c-0.501,0.889-0.859,2.016-1.102,2.986V2.027h-0.5v11.92h0.081
		c-0.001,0.012-0.003,0.025-0.003,0.025h2.474c0,0,0.594-2.903,1.571-4.342c0.943-1.389,2.576-2.45,3.152-2.799l1.383,2.653
		l2.312-5.943L7.289,2.09z"/>
</g>
<g id="sliproadleft" display="none">
	<path display="inline" fill-rule="evenodd" clip-rule="evenodd" d="M2.546,3.542L8.711,2.09l-1.354,2.6
		c0.766,0.412,2.368,1.381,3.627,2.854V2.027h2.531v11.92h-0.08c0.002,0.012,0.004,0.025,0.004,0.025h-2.475
		c0,0-0.594-2.903-1.57-4.342C8.451,8.242,6.818,7.182,6.242,6.832L4.86,9.485L2.546,3.542z M13.017,2.527h-1.53v5.657
		c0.151,0.214,0.297,0.435,0.428,0.667c0.502,0.889,0.859,2.016,1.103,2.985V2.527z"/>
</g>
<g id="sliproadleft_NEW" display="none">
	<path display="inline" fill-rule="evenodd" clip-rule="evenodd" d="M13.516,2.027h-0.499v9.81c-0.243-0.97-0.601-2.097-1.103-2.985
		c-0.131-0.232-0.276-0.453-0.428-0.667V2.027h-0.502v5.516C9.725,6.07,8.123,5.102,7.357,4.689l1.354-2.6L2.546,3.542L4.86,9.485
		l1.382-2.653c0.576,0.35,2.209,1.41,3.153,2.799c0.977,1.438,1.57,4.342,1.57,4.342h2.475c0,0-0.002-0.014-0.004-0.025h0.08V2.027z
		"/>
</g>
<g id="roundabout_DESIGN" display="none">
	<g>
		<g display="inline">
			<path fill-rule="evenodd" clip-rule="evenodd" d="M8.05,3.117c-2.723,0-4.93,2.207-4.93,4.931c0,2.723,2.207,4.93,4.93,4.93
				c2.724,0,4.931-2.207,4.931-4.93C12.98,5.324,10.773,3.117,8.05,3.117z M8.051,11.006c-1.634,0-2.959-1.324-2.959-2.958
				S6.417,5.09,8.051,5.09c1.633,0,2.958,1.324,2.958,2.958S9.684,11.006,8.051,11.006z"/>
		</g>
	</g>
	
		<circle fill-rule="evenodd" clip-rule="evenodd" fill="none" stroke="#000000" stroke-width="2.4" cx="8.051" cy="8.048" r="3.65"/>
	<g id="Layer_89" display="inline">
		<path d="M8.051,5.097c-1.629,0.002-2.948,1.323-2.95,2.95c0.002,1.629,1.323,2.945,2.948,2.949
			c1.631-0.004,2.947-1.32,2.949-2.949C10.996,6.417,9.678,5.099,8.051,5.097z M8.051,10.498C6.699,10.494,5.603,9.4,5.601,8.047
			c0.002-1.35,1.098-2.448,2.45-2.45c1.352,0.002,2.447,1.099,2.449,2.45C10.498,9.4,9.404,10.494,8.051,10.498z M8.051,3.198
			c-2.68,0-4.848,2.17-4.851,4.849c0.002,2.68,2.172,4.85,4.851,4.85c2.678,0,4.849-2.17,4.849-4.85
			C12.899,5.369,10.73,3.198,8.051,3.198z M8.051,12.396c-2.403,0-4.349-1.946-4.351-4.349c0.002-2.403,1.946-4.349,4.351-4.349
			c2.402,0.004,4.343,1.946,4.347,4.349C12.394,10.449,10.451,12.392,8.051,12.396z"/>
	</g>
	<g id="Layer_90" display="inline">
		<path fill-rule="evenodd" clip-rule="evenodd" fill="none" stroke="#000000" stroke-width="2.4" stroke-linejoin="round" d="
			M8.051,1.531v2.867c2.017,0,3.65,1.635,3.65,3.65c0,2.017-1.634,3.65-3.65,3.65v2.177"/>
	</g>
	<path display="inline" fill-rule="evenodd" clip-rule="evenodd" d="M3.912,2.514l8.339,0.003L8.049-2.281"/>
</g>
<g id="roundaboutleft" display="none">
	<path display="inline" fill-rule="evenodd" clip-rule="evenodd" d="M14.369,11.306c0.124-0.136,0.242-0.275,0.351-0.425
		c0.067-0.093,0.128-0.187,0.188-0.283c0.096-0.154,0.182-0.314,0.26-0.479c0.048-0.102,0.097-0.201,0.138-0.307
		c0.072-0.185,0.127-0.376,0.177-0.57c0.024-0.095,0.056-0.187,0.074-0.284c0.057-0.295,0.092-0.598,0.092-0.91
		c0-2.134-1.387-3.926-3.302-4.574c-0.488-0.166-1.003-0.275-1.547-0.276c-0.313,0-0.618,0.036-0.915,0.093
		C9.793,3.308,9.707,3.338,9.616,3.36c-0.2,0.051-0.396,0.107-0.585,0.182c-0.103,0.04-0.199,0.087-0.298,0.134
		c-0.169,0.08-0.331,0.167-0.489,0.265C8.151,4,8.059,4.059,7.97,4.124c-0.153,0.11-0.296,0.231-0.435,0.358
		C7.459,4.552,7.382,4.617,7.311,4.69c-0.154,0.16-0.292,0.333-0.424,0.514C6.848,5.258,6.801,5.306,6.764,5.362
		c-0.161,0.241-0.3,0.497-0.417,0.767c-0.028,0.066-0.045,0.137-0.07,0.204C6.213,6.502,6.145,6.669,6.1,6.847H4.818L4.819,3.83
		L0.021,8.032l4.795,4.137l0.001-2.923h1.3c0.438,1.709,1.773,3.045,3.481,3.482v1.261H12l-0.001-1.242
		c0.177-0.045,0.343-0.113,0.512-0.177c0.068-0.026,0.141-0.043,0.208-0.072c0.268-0.115,0.523-0.254,0.764-0.414
		c0.061-0.04,0.112-0.09,0.171-0.133c0.175-0.128,0.344-0.263,0.5-0.413C14.229,11.465,14.298,11.385,14.369,11.306z M9.431,6.017
		c0.391-0.264,0.862-0.418,1.369-0.419c1.015,0.002,1.884,0.618,2.256,1.496c0.036,0.086,0.058,0.179,0.084,0.27
		c0.063,0.218,0.109,0.444,0.109,0.683c-0.002,1.354-1.097,2.448-2.449,2.45c-0.001,0-0.002,0.001-0.003,0.001
		C9.446,10.492,8.352,9.399,8.35,8.047C8.352,7.204,8.78,6.458,9.431,6.017z M6.638,9.246H7.15c0.318,0,0.616-0.122,0.841-0.346
		c0.287,0.938,1.02,1.668,1.956,1.954c-0.221,0.222-0.349,0.53-0.349,0.843v0.509C8.168,11.794,7.052,10.677,6.638,9.246z"/>
</g>
<g id="roundaboutright" display="none">
	<path display="inline" fill-rule="evenodd" clip-rule="evenodd" d="M16,7.984l-4.795-4.137l-0.001,3H9.886
		C9.35,4.753,7.467,3.198,5.204,3.198c-2.68,0-4.848,2.17-4.851,4.849c0.002,2.263,1.557,4.146,3.651,4.682v1.246h2.399v-1.227
		c0.229-0.059,0.451-0.136,0.667-0.226c0.031-0.013,0.06-0.03,0.09-0.044c0.229-0.102,0.446-0.222,0.655-0.355
		c0.06-0.039,0.119-0.077,0.177-0.118c0.227-0.16,0.444-0.332,0.64-0.528c0.001,0,0.001,0,0.001,0
		c0.194-0.194,0.365-0.411,0.524-0.636c0.044-0.062,0.085-0.125,0.126-0.188c0.128-0.2,0.242-0.409,0.34-0.628
		c0.019-0.04,0.041-0.077,0.058-0.117C9.77,9.693,9.846,9.474,9.903,9.246h1.3l-0.001,2.94L16,7.984z M6.055,10.336
		c-0.266,0.099-0.55,0.161-0.851,0.161c-0.001,0-0.002,0.001-0.003,0.001c-1.35-0.006-2.444-1.099-2.446-2.451
		c0.002-1.35,1.098-2.448,2.45-2.45c1.352,0.002,2.447,1.099,2.449,2.45C7.652,9.1,6.986,9.988,6.055,10.336z M0.853,8.047
		c0.002-2.403,1.946-4.349,4.351-4.349c1.983,0.003,3.633,1.336,4.157,3.15H8.854c-0.312,0-0.621,0.127-0.842,0.349
		c-0.368-1.211-1.478-2.098-2.807-2.1c-1.629,0.002-2.948,1.323-2.95,2.95c0.002,1.33,0.889,2.438,2.097,2.808
		c-0.219,0.222-0.346,0.529-0.346,0.844v0.509C2.19,11.684,0.855,10.03,0.853,8.047z"/>
</g>
<g id="roundaboutstraight" display="none">
	<path display="inline" fill-rule="evenodd" clip-rule="evenodd" d="M11.613,13.613c0.129-0.141,0.251-0.285,0.363-0.44
		c0.062-0.087,0.12-0.177,0.178-0.268c0.101-0.161,0.189-0.328,0.271-0.501c0.045-0.095,0.09-0.188,0.128-0.285
		c0.077-0.194,0.136-0.396,0.188-0.603c0.021-0.085,0.049-0.166,0.065-0.253c0.058-0.298,0.094-0.603,0.094-0.917
		c0-0.312-0.036-0.616-0.093-0.912c-0.019-0.097-0.049-0.187-0.073-0.28c-0.05-0.195-0.104-0.387-0.177-0.572
		c-0.042-0.105-0.091-0.207-0.14-0.309c-0.077-0.164-0.162-0.322-0.258-0.475C12.1,7.7,12.038,7.604,11.971,7.512
		c-0.107-0.148-0.225-0.287-0.348-0.421c-0.072-0.08-0.142-0.162-0.219-0.236c-0.154-0.148-0.32-0.28-0.493-0.407
		c-0.061-0.045-0.115-0.097-0.179-0.139c-0.239-0.16-0.494-0.298-0.761-0.414c-0.069-0.03-0.145-0.047-0.216-0.074
		C9.59,5.758,9.425,5.691,9.25,5.646V4.814l3.001,0.001L8.049,0.018L3.912,4.812l2.939,0.001v0.851
		C4.756,6.2,3.202,8.084,3.2,10.346c0.002,2.263,1.557,4.146,3.651,4.682v0.997H9.25v-0.979c0.176-0.045,0.342-0.112,0.51-0.176
		c0.069-0.026,0.143-0.044,0.21-0.073c0.269-0.115,0.524-0.255,0.765-0.415c0.058-0.038,0.106-0.085,0.161-0.125
		c0.18-0.131,0.353-0.269,0.513-0.423C11.48,13.765,11.545,13.688,11.613,13.613z M8.047,7.896c0.001,0,0.002,0,0.003,0
		c1.154,0.001,2.114,0.804,2.375,1.879c0.044,0.184,0.074,0.373,0.074,0.57c-0.002,1.008-0.608,1.869-1.477,2.246
		c-0.007,0.003-0.013,0.008-0.02,0.011s-0.015,0.004-0.022,0.007c-0.287,0.118-0.601,0.186-0.931,0.187
		c-0.001,0-0.002,0.001-0.003,0.001c-1.35-0.006-2.444-1.099-2.446-2.451C5.603,8.997,6.697,7.899,8.047,7.896z M3.7,10.346
		c0.002-1.984,1.335-3.638,3.151-4.161v0.512c0,0.312,0.126,0.618,0.346,0.84c-1.209,0.369-2.095,1.481-2.097,2.809
		c0.002,1.33,0.889,2.439,2.098,2.808c-0.221,0.223-0.347,0.53-0.347,0.844v0.509C5.037,13.982,3.702,12.329,3.7,10.346z"/>
</g>
<g id="phone" display="none">
	<path display="inline" d="M10.307,9.46c0.079-0.104,0.196-0.17,0.341-0.17c0.078,0,0.223,0.078,0.223,0.078l2.907,1.466
		c0.144,0.079,0.234,0.223,0.234,0.394c-0.052,0.72-0.354,1.439-0.824,1.897c-0.537,0.537-1.297,0.799-2.16,0.799
		c-1.768,0-4.053-1.094-5.911-2.952C2.341,8.184,1.274,4.459,2.897,2.836c0.458-0.459,1.257-0.694,1.964-0.76
		c0.17,0,0.301,0.092,0.38,0.235l1.596,2.907c0.04,0.078,0.066,0.144,0.066,0.235c0,0.131-0.066,0.248-0.158,0.341l-1.243,1.23
		C5.371,7.169,5.345,7.378,5.45,7.549c0.353,0.589,0.844,1.21,1.367,1.721c0.523,0.524,1.146,1.028,1.723,1.382
		c0.17,0.104,0.38,0.079,0.522-0.065L10.307,9.46z"/>
</g>
<g id="house" display="none">
	<path display="inline" d="M14.807,8.788L8.562,2.38c-0.328-0.34-0.801-0.34-1.128,0L1.188,8.788
		C0.86,9.127,0.982,9.405,1.459,9.405h1.585l-0.031,4.89c0,0.356,0.046,0.676,0.688,0.676h2.701v-4.967h3.158v4.967h2.919
		c0.49,0,0.534-0.319,0.534-0.676l-0.031-4.89h1.554C15.013,9.405,15.135,9.127,14.807,8.788"/>
</g>
<g id="briefcase" display="none">
	<path display="inline" d="M7.386,7.085h1.213v1.51h6.479c0,0-0.111-1.931-0.15-2.984c-0.037-1-0.396-1.619-1.51-1.619h-2.421
		c-0.375-0.707-0.778-1.468-0.903-1.701c-0.249-0.472-0.334-0.562-0.89-0.562H6.858c-0.555,0-0.64,0.091-0.89,0.562
		C5.845,2.523,5.441,3.284,5.066,3.991H2.646c-1.114,0-1.469,0.619-1.51,1.619c-0.041,1.001-0.15,2.984-0.15,2.984h6.4V7.085z
		 M6.758,3.173c0.173-0.326,0.231-0.39,0.616-0.39h1.314c0.384,0,0.443,0.063,0.616,0.39c0.064,0.122,0.24,0.453,0.434,0.818H6.323
		C6.518,3.626,6.693,3.295,6.758,3.173 M8.599,10.928H7.386v-0.927H1.362c0,0,0.094,1.357,0.15,2.508
		c0.023,0.477,0.164,1.266,1.358,1.266h10.32c1.194,0,1.331-0.789,1.357-1.266c0.066-1.184,0.151-2.508,0.151-2.508H8.599V10.928z"
		/>
</g>
<g id="briefcase_1_">
	<path d="M7.386,7.179h1.213v1.51h6.479c0,0-0.111-2.024-0.15-3.078c-0.037-1-0.396-1.619-1.51-1.619h-2.421
		c-0.375-0.707-0.778-1.468-0.903-1.701c-0.249-0.472-0.334-0.562-0.89-0.562H6.858c-0.555,0-0.64,0.091-0.89,0.562
		C5.845,2.523,5.441,3.284,5.066,3.991H2.646c-1.114,0-1.469,0.619-1.51,1.619c-0.041,1.001-0.15,3.078-0.15,3.078h6.4V7.179z
		 M6.758,3.173c0.173-0.326,0.231-0.39,0.616-0.39h1.314c0.384,0,0.443,0.063,0.616,0.39c0.064,0.122,0.24,0.453,0.434,0.818H6.323
		C6.518,3.626,6.693,3.295,6.758,3.173 M8.599,10.928H7.386v-0.927H1.362c0,0,0.094,1.357,0.15,2.508
		c0.023,0.477,0.164,1.266,1.358,1.266h10.32c1.194,0,1.331-0.789,1.357-1.266c0.066-1.184,0.151-2.508,0.151-2.508H8.599V10.928z"
		/>
</g>
</svg>
