<?xml version="1.0" encoding="utf-8"?>
<!-- Generator: Adobe Illustrator 13.0.0, SVG Export Plug-In . SVG Version: 6.00 Build 14948)  -->
<!DOCTYPE svg PUBLIC "-//W3C//DTD SVG 1.1//EN" "http://www.w3.org/Graphics/SVG/1.1/DTD/svg11.dtd">
<svg version="1.1" xmlns="http://www.w3.org/2000/svg" xmlns:xlink="http://www.w3.org/1999/xlink" x="0px" y="0px" width="16px"
	 height="16px" viewBox="0 0 16 16" enable-background="new 0 0 16 16" xml:space="preserve">
<g id="Area" display="none">
	<path display="inline" fill-rule="evenodd" clip-rule="evenodd" d="M2.344,3.088l2.129,10.828l7.141-1.776l3.368-8.929L8.144,6.262
		L2.344,3.088z"/>
</g>
<g id="Line" display="none">
	<g display="inline">
		<g>
			<path d="M13.058,2.456c-1.57,0-2.844,1.273-2.844,2.844c0,0.764,0.305,1.454,0.795,1.965l-2.188,4.423L5.565,6.417
				c-0.173-0.278-0.474-0.456-0.8-0.473c-0.328-0.016-0.645,0.13-0.843,0.39L0,11.438l1.585,1.219l3.039-3.955l3.444,5.572
				c0.183,0.293,0.504,0.475,0.848,0.475c0.019,0,0.034-0.002,0.052-0.002c0.362-0.016,0.688-0.229,0.85-0.557l3.002-6.07
				c0.08,0.006,0.158,0.023,0.24,0.023c1.57,0,2.844-1.273,2.844-2.844C15.903,3.728,14.628,2.456,13.058,2.456z"/>
		</g>
	</g>
</g>
<g id="Layer_3">
	<g>
		<g>
			<path d="M8.011,0.004c-4.382,0-7.935,3.553-7.935,7.936c0,4.384,3.553,7.937,7.935,7.937s7.935-3.553,7.935-7.937
				C15.945,3.558,12.395,0.004,8.011,0.004z M8.994,13.867v-2.986H7.003v2.984C4.485,13.438,2.5,11.453,2.081,8.932h2.912v-1.99
				H2.082c0.42-2.511,2.392-4.492,4.897-4.926v2.938h2.024V2.012c2.522,0.421,4.513,2.406,4.937,4.93h-2.967v1.99h2.967
				C13.52,11.461,11.523,13.449,8.994,13.867z"/>
		</g>
	</g>
</g>
</svg>
