<?xml version="1.0" encoding="utf-8"?>
<!-- Generator: Adobe Illustrator 13.0.0, SVG Export Plug-In . SVG Version: 6.00 Build 14948)  -->
<!DOCTYPE svg PUBLIC "-//W3C//DTD SVG 1.1//EN" "http://www.w3.org/Graphics/SVG/1.1/DTD/svg11.dtd">
<svg version="1.1" xmlns="http://www.w3.org/2000/svg" xmlns:xlink="http://www.w3.org/1999/xlink" x="0px" y="0px" width="16px"
	 height="16px" viewBox="0 0 16 16" enable-background="new 0 0 16 16" xml:space="preserve">
<g id="Area" display="none">
	<path display="inline" fill-rule="evenodd" clip-rule="evenodd" d="M2.344,3.088l2.129,10.828l7.141-1.776l3.368-8.929L8.144,6.262
		L2.344,3.088z"/>
</g>
<g id="Line" display="none">
	<g display="inline">
		<g>
			<path d="M13.058,2.456c-1.57,0-2.844,1.273-2.844,2.844c0,0.764,0.305,1.454,0.795,1.965l-2.188,4.423L5.565,6.417
				c-0.173-0.278-0.474-0.456-0.8-0.473c-0.328-0.016-0.645,0.13-0.843,0.39L0,11.438l1.585,1.219l3.039-3.955l3.444,5.572
				c0.183,0.293,0.504,0.475,0.848,0.475c0.019,0,0.034-0.002,0.052-0.002c0.362-0.016,0.688-0.229,0.85-0.557l3.002-6.07
				c0.08,0.006,0.158,0.023,0.24,0.023c1.57,0,2.844-1.273,2.844-2.844C15.903,3.728,14.628,2.456,13.058,2.456z"/>
		</g>
	</g>
</g>
<g id="Crosshair" display="none">
	<g display="inline">
		<g>
			<path d="M8.011,0.004c-4.382,0-7.935,3.553-7.935,7.936c0,4.384,3.553,7.937,7.935,7.937s7.935-3.553,7.935-7.937
				C15.945,3.558,12.395,0.004,8.011,0.004z M8.994,13.867v-2.986H7.003v2.984C4.485,13.438,2.5,11.453,2.081,8.932h2.912v-1.99
				H2.082c0.42-2.511,2.392-4.492,4.897-4.926v2.938h2.024V2.012c2.522,0.421,4.513,2.406,4.937,4.93h-2.967v1.99h2.967
				C13.52,11.461,11.523,13.449,8.994,13.867z"/>
		</g>
	</g>
</g>
<g id="Routing" display="none">
	<g display="inline">
		<g>
			<path fill-rule="evenodd" clip-rule="evenodd" d="M15.663,7.191L8.805,0.333c-0.446-0.445-1.168-0.445-1.614,0L0.333,7.191
				c-0.446,0.445-0.446,1.168,0,1.614l6.858,6.858c0.446,0.445,1.168,0.445,1.614,0l6.858-6.858
				C16.108,8.359,16.108,7.636,15.663,7.191z M8.951,9.896V7.902H8.119c-0.283,0-0.513,0.23-0.513,0.514v3.537H5.604V8.087
				c0-1.204,0.976-2.181,2.18-2.181h1.167V3.884l3.641,3.031L8.951,9.896z"/>
		</g>
	</g>
</g>
<g id="Navigate" display="none">
	<path display="inline" d="M14.701,1.324c-0.481-0.482-0.942-0.027-2.503,0.724C8.022,4.054,0.744,8.133,0.744,8.133l6.253,0.895
		l0.894,6.254c0,0,4.079-7.279,6.086-11.455C14.728,2.265,15.183,1.805,14.701,1.324"/>
</g>
<g id="Measure" display="none">
	<g display="inline">
		<g>
			<path fill-rule="evenodd" clip-rule="evenodd" d="M15.049,4.037H1.943c-0.526,0-0.953,0.427-0.953,0.953v6.074
				c0,0.526,0.427,0.952,0.953,0.952h13.105c0.525,0,0.952-0.426,0.952-0.952V4.99C16.001,4.463,15.574,4.037,15.049,4.037z
				 M13.965,9.985H2.985V7.018h0.953v2.016H6.01V7.986h0.953v1.047h3.045V7.986h0.953v1.047h2.052V6.986h0.952V9.985z"/>
		</g>
	</g>
</g>
<g id="Print" display="none">
	<path display="inline" d="M1.523,5.805h12.978c0.436,0,0.364-0.464,0.147-0.54S12.02,4.278,11.6,4.278h-0.687v-2.29H5.111v2.29
		H4.425c-0.42,0-2.832,0.912-3.049,0.987S1.088,5.805,1.523,5.805 M14.653,6.645H1.371c-0.42,0-0.84,0.496-0.84,0.916v2.672
		c0,0.42,0.42,0.916,0.84,0.916h1.513l-0.673,3.817h11.603l-0.673-3.817h1.513c0.42,0,0.84-0.496,0.84-0.916V7.561
		C15.493,7.141,15.073,6.645,14.653,6.645 M3.737,13.438l1.068-4.962h6.413l1.068,4.962H3.737z"/>
</g>
<g id="Share" display="none">
	<path display="inline" d="M0.445,14.562c0,0,0.369-9.095,8.569-9.095V1.854l6.584,6.116l-6.584,6.252v-4.156
		C4.562,10.065,2.766,10.46,0.445,14.562"/>
</g>
<g id="Manstanding" display="none">
	<g display="inline">
		<g>
			<path d="M8.019,4.08c1.318,0,1.853-0.658,1.853-1.977c0-1.335-0.534-2.097-1.853-2.097S6.167,0.768,6.167,2.103
				C6.167,3.421,6.7,4.08,8.019,4.08z M8.889,4.989H7.234C4.952,4.989,4,7.218,4,7.891v3.073l0.992-0.031l0.04-2.609l1.006-0.001
				L6.012,16h1.203l0.796-5.032L8.879,16h1.162l-0.027-7.677l0.943,0.001l0.041,2.615l0.992,0.031V7.898
				C11.99,7.225,11.17,4.989,8.889,4.989z"/>
		</g>
	</g>
</g>
<g id="Location" display="none">
	<path display="inline" fill-rule="evenodd" clip-rule="evenodd" d="M8.026,2.736c2.809,0,5.087,2.278,5.087,5.087
		c0,2.809-4.981,7.577-5.142,7.577c-0.161,0-5.033-4.768-5.033-7.577C2.938,5.014,5.216,2.736,8.026,2.736z"/>
</g>
<g id="Expand" display="none">
	<g display="inline">
		<g>
			<path fill-rule="evenodd" clip-rule="evenodd" d="M5.503,8.989l-2.388,2.399L0.999,9.263l0.005,5.72h5.715l-2.137-2.137
				l2.4-2.389L5.503,8.989z M14.999,1.001H9.284l2.137,2.136L8.989,5.526l1.479,1.468l2.419-2.4l2.116,2.126L14.999,1.001z"/>
		</g>
	</g>
</g>
<g id="Contract" display="none">
	<g display="inline">
		<g>
			<path fill-rule="evenodd" clip-rule="evenodd" d="M2.25,7.986l2.137,2.137l-2.4,2.389l1.48,1.468l2.387-2.399l2.117,2.126
				l-0.005-5.72H2.25z M14.011,3.474l-1.479-1.468l-2.419,2.4L7.996,2.279l0.005,5.72h5.715l-2.137-2.136L14.011,3.474z"/>
		</g>
	</g>
</g>
<g id="Dropdown" display="none">
	<path display="inline" fill-rule="evenodd" clip-rule="evenodd" d="M2.942,6.081l10.246-0.049l-5.166,4.885L2.942,6.081z"/>
</g>
<g id="Hemnet" display="none">
	<g display="inline">
		<g>
			<path d="M8.003,0.085c-4.368,0-7.909,3.541-7.909,7.909c0,1.771,0.583,3.408,1.567,4.726l-1.24,1.24
				c-0.447,0.445-0.447,1.168,0,1.615c0.222,0.223,0.515,0.334,0.808,0.334s0.585-0.111,0.808-0.334l1.24-1.24
				c1.319,0.984,2.955,1.566,4.727,1.566c4.368,0,7.909-3.541,7.909-7.908C15.912,3.626,12.371,0.085,8.003,0.085z M8.003,13.904
				c-3.264,0-5.91-2.646-5.91-5.91c0-3.264,2.646-5.91,5.91-5.91c3.262,0,5.91,2.646,5.91,5.91
				C13.913,11.258,11.266,13.904,8.003,13.904z M4.84,6.573v4.152h2.571V9.236h1.186v1.488h2.569V6.573L8.003,4.398L4.84,6.573z"/>
		</g>
	</g>
</g>
<g id="Posten" display="none">
	<g display="inline">
		<g>
			<path fill-rule="evenodd" clip-rule="evenodd" d="M13.662,2.37c-1.501-1.501-3.498-2.329-5.621-2.329
				c-2.12,0-4.116,0.828-5.619,2.332S0.09,5.872,0.09,7.992c0,2.123,0.827,4.121,2.329,5.623c1.501,1.502,3.498,2.328,5.622,2.328
				c2.123,0,4.12-0.826,5.621-2.328c1.502-1.502,2.33-3.5,2.33-5.623C15.992,5.868,15.164,3.872,13.662,2.37z M7.938,3.052
				C7.836,2.999,7.76,2.892,7.76,2.772c0-0.146,0.114-0.276,0.25-0.306V2.285H7.87V2.17h0.14V2.036h0.114V2.17h0.14v0.115h-0.14
				v0.181c0.138,0.029,0.253,0.159,0.253,0.307c0,0.119-0.075,0.227-0.177,0.279c0.542,0.009,2.588,0.154,2.782,1.797h-0.653
				c-0.047-0.904-0.461-1.214-1.205-1.406c0.559,0.474,0.533,0.847,0.569,1.406H9.016c0-0.978-0.25-1.463-0.708-1.531
				c0.116,0.456,0.145,1.385,0.108,1.531H7.718C7.681,4.703,7.71,3.774,7.826,3.318C7.368,3.386,7.118,3.872,7.118,4.849H6.441
				c0.036-0.559,0.011-0.932,0.57-1.406C6.267,3.635,5.852,3.945,5.807,4.849H5.152C5.346,3.203,7.399,3.061,7.938,3.052z
				 M5.372,4.931c0.142,0,0.256,0.115,0.256,0.256c0,0.069-0.028,0.158-0.072,0.204C5.582,5.383,5.636,5.38,5.665,5.38
				c0.142,0,0.256,0.115,0.256,0.256c0,0.142-0.115,0.256-0.256,0.256c-0.091,0-0.163-0.042-0.208-0.113
				c0.079,0.255,0.267,0.422,0.597,0.422c0.418,0,0.556-0.278,0.6-0.422C6.607,5.848,6.528,5.893,6.439,5.893
				c-0.142,0-0.256-0.114-0.256-0.256c0-0.141,0.114-0.256,0.256-0.256c0.036,0,0.069-0.002,0.1,0.011
				C6.493,5.344,6.462,5.258,6.462,5.187c0-0.141,0.114-0.256,0.256-0.256c0.141,0,0.256,0.115,0.256,0.256
				c0,0.069-0.028,0.158-0.072,0.204C6.928,5.383,6.982,5.38,7.011,5.38c0.142,0,0.256,0.115,0.256,0.256
				c0,0.142-0.114,0.256-0.256,0.256c-0.089,0-0.182-0.044-0.228-0.113c0.072,0.196,0.146,0.422,0.619,0.422
				c0.461,0,0.54-0.25,0.602-0.422c-0.046,0.069-0.14,0.113-0.228,0.113c-0.142,0-0.256-0.114-0.256-0.256
				c0-0.141,0.114-0.256,0.256-0.256c0.029,0,0.083,0.003,0.109,0.011C7.84,5.345,7.812,5.256,7.812,5.187
				c0-0.141,0.115-0.256,0.257-0.256c0.141,0,0.256,0.115,0.256,0.256c0,0.071-0.032,0.157-0.078,0.204
				c0.031-0.013,0.064-0.011,0.1-0.011c0.142,0,0.257,0.115,0.257,0.256c0,0.142-0.115,0.256-0.257,0.256
				c-0.089,0-0.17-0.045-0.216-0.113c0.071,0.196,0.134,0.424,0.605,0.424c0.473,0,0.543-0.228,0.613-0.424
				C9.304,5.848,9.211,5.893,9.123,5.893c-0.143,0-0.257-0.114-0.257-0.256c0-0.141,0.114-0.256,0.257-0.256
				c0.028,0,0.082,0.003,0.108,0.011C9.188,5.345,9.16,5.256,9.16,5.187c0-0.141,0.114-0.256,0.256-0.256
				c0.141,0,0.256,0.115,0.256,0.256c0,0.071-0.031,0.157-0.078,0.204C9.625,5.377,9.66,5.38,9.695,5.38
				c0.141,0,0.256,0.115,0.256,0.256c0,0.142-0.115,0.256-0.256,0.256c-0.09,0-0.168-0.045-0.215-0.113
				c0.045,0.144,0.182,0.422,0.601,0.422c0.329,0,0.518-0.167,0.596-0.422c-0.045,0.071-0.116,0.113-0.207,0.113
				c-0.142,0-0.257-0.114-0.257-0.256c0-0.141,0.115-0.256,0.257-0.256c0.028,0,0.083,0.003,0.108,0.011
				c-0.045-0.046-0.072-0.135-0.072-0.204c0-0.141,0.115-0.256,0.257-0.256s0.256,0.115,0.256,0.256c0,0.04-0.008,0.078-0.015,0.09
				c0.002-0.004-0.604,1.402-0.604,1.402H5.734c0,0-0.606-1.406-0.604-1.402c-0.006-0.012-0.015-0.05-0.015-0.09
				C5.115,5.046,5.23,4.931,5.372,4.931z M13.734,8.424c-0.52,3.469-3.349,5.01-5.666,5.01c-2.988,0-5.374-2.078-5.924-4.898
				l-0.319-0.24V8.262h3.04v0.035L4.548,8.536c0,0-0.142,1.605,0.593,2.475c-0.04-0.195-0.077-0.348-0.077-0.555
				c0-1.639,1.369-3.01,3.007-3.01s3.001,1.372,3.001,3.01c0,0.586-0.147,1.086-0.439,1.545c1.145-0.623,2.099-1.66,2.443-3.577
				l-0.087-0.126l-0.001-0.036h0.837v0.036L13.734,8.424z M8.068,8.222c-1.23,0-2.229,0.998-2.229,2.228
				c0,1.232,0.998,2.229,2.229,2.229c1.231,0,2.229-0.996,2.229-2.229C10.297,9.22,9.299,8.222,8.068,8.222z"/>
		</g>
	</g>
</g>
<g id="Telia" display="none">
	<path display="inline" d="M15.312,3.631c-0.008,0.012-0.013,0.021-0.018,0.034c-0.344,0.765-1.044,1.657-1.973,2.554
		c0.74,0.346,1.32,0.77,1.682,1.315c0.006,0.01,0.012,0.018,0.016,0.026c0.141-0.565,0.242-1.123,0.303-1.663
		C15.415,5.079,15.407,4.317,15.312,3.631z M12.502,6.962c-2.989,2.546-7.532,4.851-10.54,4.069c-0.013-0.004-0.018-0.002-0.024,0
		c0.027,0.043,0.053,0.087,0.08,0.131c0.04,0.045,0.083,0.092,0.104,0.123l0.006,0.009c2.955,4.754,11.167,1.117,12.106-1.899
		C14.449,8.37,13.73,7.587,12.502,6.962z M4.067,13.732c-0.024-0.012-0.046-0.021-0.07-0.031c0.152,0.154,0.304,0.302,0.457,0.439
		c0.729,0.658,1.458,1.122,2.164,1.381c0.443,0.162,0.881,0.245,1.303,0.245c0.322,0,0.642-0.048,0.95-0.144
		c0.832-0.258,1.649-0.746,2.428-1.451c0.921-0.833,1.752-1.947,2.426-3.22c-0.019,0.017-0.035,0.032-0.055,0.052
		C11.94,13.1,7.325,15.129,4.067,13.732z M6.695,4.619c2.08,0.366,4.083,0.687,5.643,1.21c1.52-1.167,2.582-2.405,2.647-3.428
		c0.001-0.017,0.004-0.031,0.005-0.047c-0.021-0.056-0.04-0.113-0.062-0.167c-0.068-0.157-0.148-0.312-0.236-0.462
		c-0.066-0.11-0.145-0.213-0.23-0.311c-0.004,0.006-0.01,0.01-0.014,0.016C12.512,3.881,9.694,4.684,6.695,4.619z M3.396,3.821
		c4.622,0.837,8.511,0.154,10.803-2.629c0.006-0.006,0.012-0.012,0.018-0.019c-0.545-0.466-1.36-0.763-2.408-0.867
		c-0.269-0.026-0.551-0.04-0.844-0.04c-2.107,0-4.56,0.662-6.561,1.771C3.593,2.486,2.892,2.993,2.316,3.536
		c0.01,0.003,0.017,0.007,0.025,0.01C2.689,3.644,3.04,3.737,3.396,3.821z M11.416,6.493c-2.807-1.042-7.05-1.588-9.779-2.197
		C1.629,4.294,1.624,4.292,1.616,4.291C1.149,4.874,0.817,5.488,0.64,6.115C0.513,6.568,0.461,7.032,0.487,7.492
		c0.019,0.36,0.156,0.869,0.386,1.451c0.015,0.017,0.029,0.032,0.043,0.05C2.143,10.926,7.662,9.026,11.416,6.493z"/>
</g>
<g id="Opus" display="none">
	<g display="inline">
		<g>
			<path d="M9.26,15.651c3.7-0.59,6.529-3.786,6.529-7.651c0-1.652-0.521-3.181-1.401-4.439c0-0.001-0.001-0.002-0.001-0.003
				c-0.003-0.004-0.007-0.007-0.01-0.012c-0.281-0.399-0.598-0.771-0.947-1.11c-0.001,0-0.001-0.001-0.002-0.002c0,0,0,0,0,0.001
				c-0.286-0.278-0.595-0.532-0.921-0.764l0,0l-0.002-0.001c-0.231-0.165-0.471-0.319-0.721-0.457v0c-0.001,0-0.001,0-0.002-0.001
				c-0.277-0.154-0.566-0.288-0.862-0.407c-0.002,0-0.003-0.001-0.004-0.001v0c-0.109-0.044-0.223-0.083-0.335-0.123v0
				c-0.062-0.021-0.121-0.047-0.184-0.067l0,0c-0.064-0.021-0.13-0.038-0.194-0.057l0,0c-0.039-0.011-0.08-0.02-0.119-0.031v0
				c-0.075-0.021-0.15-0.04-0.227-0.059l0,0c-0.041-0.01-0.079-0.021-0.119-0.031c0,0,0,0,0,0C9.665,0.42,9.593,0.402,9.519,0.388
				l0,0C9.461,0.376,9.401,0.371,9.344,0.361c0,0,0,0,0,0c-0.428-0.073-0.865-0.12-1.313-0.12c-1.206,0-2.342,0.283-3.36,0.774
				c-0.001,0-0.002,0-0.003,0.001l0,0c-1.305,0.63-2.405,1.61-3.178,2.824h0C1.486,3.845,1.484,3.85,1.481,3.854
				C1.353,4.058,1.233,4.267,1.123,4.482C1.12,4.487,1.118,4.493,1.115,4.498c-0.11,0.217-0.21,0.439-0.3,0.668
				c0,0.001-0.001,0.002-0.001,0.003l0,0C0.588,5.743,0.431,6.35,0.348,6.98h0c0,0.001,0,0.003,0,0.005
				C0.304,7.318,0.273,7.655,0.273,8c0,0.217,0.015,0.431,0.032,0.644l0,0c0.048,0.581,0.155,1.146,0.324,1.684h0
				c0.001,0.005,0.004,0.01,0.006,0.015c0.124,0.392,0.284,0.767,0.465,1.128c0.011,0.021,0.02,0.043,0.031,0.063
				c0.19,0.371,0.41,0.722,0.655,1.055c0,0.001,0.001,0.002,0.002,0.003c0,0,0,0,0,0c0.155,0.211,0.321,0.413,0.497,0.607
				c0,0,0,0,0,0c0.001,0.001,0.002,0.002,0.002,0.003c0.297,0.327,0.619,0.63,0.968,0.903c0.01,0.008,0.021,0.015,0.031,0.022
				c0.94,0.729,2.048,1.25,3.261,1.485c0,0,0,0,0,0c0.009,0.002,0.018,0.002,0.026,0.004c0.231,0.044,0.465,0.08,0.703,0.104
				c0.233,0.023,0.47,0.034,0.709,0.036c0.016,0,0.031,0.002,0.047,0.002h0c0,0,0,0,0.001,0c0.348,0,0.687-0.031,1.023-0.075
				C9.123,15.673,9.191,15.662,9.26,15.651z M15.305,8c-0.005,2.617-1.392,4.902-3.466,6.184c2.657-2.401,3.505-5.27,3.271-7.821
				C15.232,6.89,15.304,7.436,15.305,8z M8.729,0.762C7.816,1.247,6.958,1.2,6.337,0.935c0.544-0.13,1.109-0.208,1.693-0.208
				C8.266,0.727,8.498,0.74,8.729,0.762z M9.18,0.827c0.126,0.021,0.253,0.038,0.377,0.064C8.458,3.26,5.422,2.653,3.972,1.967
				C4.353,1.71,4.76,1.489,5.188,1.307C6.273,1.79,8.097,1.991,9.18,0.827z M3.011,2.749c1.601,0.723,5.676,1.373,6.71-1.815
				c0.092,0.022,0.183,0.045,0.273,0.071C9.17,5.278,3.896,4.772,1.939,4.039C2.246,3.568,2.606,3.136,3.011,2.749z M1.282,5.306
				c2.584,0.669,8.478,0.945,8.88-4.258c0.112,0.034,0.219,0.077,0.328,0.117c0.631,4.294-4.144,6.248-9.657,5.849
				C0.915,6.418,1.066,5.846,1.282,5.306z M0.792,8.667C6.926,9.01,11.928,5.689,10.752,1.26c0.146,0.059,0.287,0.126,0.429,0.194
				c1.774,4.8-3.999,8.456-10.046,8.837C0.962,9.773,0.844,9.23,0.792,8.667z M2.313,12.479c6.121-1.273,11.305-4.639,9.669-10.577
				c0.106,0.069,0.21,0.144,0.312,0.218c1.548,5.164-2.488,9.2-9.476,10.941C2.64,12.877,2.472,12.682,2.313,12.479z M5.093,14.646
				c6.657-1.931,9.706-7.344,7.9-11.949c0.362,0.338,0.689,0.712,0.977,1.118C15.361,8.433,12.131,13,7.385,15.24
				C6.575,15.167,5.805,14.962,5.093,14.646z"/>
		</g>
	</g>
</g>
<g id="Synoptik" display="none">
	<g display="inline">
		<g>
			<path d="M1.013,1.012v14.976h14.975V1.012H1.013z M8.319,7.888c2.127,0.092,4.138-0.116,4.138,2.149
				c0,1.688-1.572,2.197-4.138,2.174c-2.451-0.023-3.815-0.508-3.815-2.219h1.525c0,0.809,0.486,1.133,2.266,1.133
				c1.758,0,2.521-0.139,2.521-1.18c0-0.879-0.67-0.855-2.149-0.901c-2.059-0.07-4.001,0-3.978-2.128
				c0.023-1.688,1.596-2.15,4.139-2.127c2.29,0.023,3.677,0.532,3.677,2.22h-1.526c0-0.833-0.555-1.11-2.127-1.133
				c-2.012-0.022-2.497,0.301-2.52,0.971C6.307,7.934,7.14,7.841,8.319,7.888z"/>
		</g>
	</g>
</g>
<g id="Navigateright">
	<g>
		<g>
			<polygon fill-rule="evenodd" clip-rule="evenodd" points="11.578,8.007 9.965,6.394 9.956,6.402 6.05,2.496 4.438,4.109 
				8.344,8.016 4.438,11.922 6.05,13.535 9.957,9.629 9.965,9.637 11.578,8.024 11.569,8.016 			"/>
		</g>
	</g>
</g>
<g id="Navigatedown" display="none">
	<g display="inline">
		<g>
			<polygon fill-rule="evenodd" clip-rule="evenodd" points="13.535,6.05 11.922,4.438 8.016,8.344 4.109,4.438 2.496,6.05 
				6.402,9.956 6.394,9.965 8.007,11.578 8.016,11.569 8.024,11.578 9.637,9.965 9.629,9.957 			"/>
		</g>
	</g>
</g>
</svg>
