<?xml version="1.0" encoding="utf-8"?>
<!-- Generator: Adobe Illustrator 13.0.0, SVG Export Plug-In . SVG Version: 6.00 Build 14948)  -->
<!DOCTYPE svg PUBLIC "-//W3C//DTD SVG 1.1//EN" "http://www.w3.org/Graphics/SVG/1.1/DTD/svg11.dtd">
<svg version="1.1" xmlns="http://www.w3.org/2000/svg" xmlns:xlink="http://www.w3.org/1999/xlink" x="0px" y="0px" width="16px"
	 height="16px" viewBox="0 0 16 16" enable-background="new 0 0 16 16" xml:space="preserve">
<g id="Area" display="none">
	<path display="inline" fill-rule="evenodd" clip-rule="evenodd" d="M2.344,3.088l2.129,10.828l7.141-1.776l3.368-8.929L8.144,6.262
		L2.344,3.088z"/>
</g>
<g id="Line" display="none">
	<g display="inline">
		<g>
			<path d="M13.058,2.456c-1.57,0-2.844,1.273-2.844,2.844c0,0.764,0.305,1.454,0.795,1.965l-2.188,4.423L5.565,6.417
				c-0.173-0.278-0.474-0.456-0.8-0.473c-0.328-0.016-0.645,0.13-0.843,0.39L0,11.438l1.585,1.219l3.039-3.955l3.444,5.572
				c0.183,0.293,0.504,0.475,0.848,0.475c0.019,0,0.034-0.002,0.052-0.002c0.362-0.016,0.688-0.229,0.85-0.557l3.002-6.07
				c0.08,0.006,0.158,0.023,0.24,0.023c1.57,0,2.844-1.273,2.844-2.844C15.903,3.728,14.628,2.456,13.058,2.456z"/>
		</g>
	</g>
</g>
<g id="Crosshair" display="none">
	<g display="inline">
		<g>
			<path d="M8.011,0.004c-4.382,0-7.935,3.553-7.935,7.936c0,4.384,3.553,7.937,7.935,7.937s7.935-3.553,7.935-7.937
				C15.945,3.558,12.395,0.004,8.011,0.004z M8.994,13.867v-2.986H7.003v2.984C4.485,13.438,2.5,11.453,2.081,8.932h2.912v-1.99
				H2.082c0.42-2.511,2.392-4.492,4.897-4.926v2.938h2.024V2.012c2.522,0.421,4.513,2.406,4.937,4.93h-2.967v1.99h2.967
				C13.52,11.461,11.523,13.449,8.994,13.867z"/>
		</g>
	</g>
</g>
<g id="Routing" display="none">
	<g display="inline">
		<g>
			<path fill-rule="evenodd" clip-rule="evenodd" d="M15.663,7.191L8.805,0.333c-0.446-0.445-1.168-0.445-1.614,0L0.333,7.191
				c-0.446,0.445-0.446,1.168,0,1.614l6.858,6.858c0.446,0.445,1.168,0.445,1.614,0l6.858-6.858
				C16.108,8.359,16.108,7.636,15.663,7.191z M8.951,9.896V7.902H8.119c-0.283,0-0.513,0.23-0.513,0.514v3.537H5.604V8.087
				c0-1.204,0.976-2.181,2.18-2.181h1.167V3.884l3.641,3.031L8.951,9.896z"/>
		</g>
	</g>
</g>
<g id="Navigate" display="none">
	<path display="inline" d="M14.701,1.324c-0.481-0.482-0.942-0.027-2.503,0.724C8.022,4.054,0.744,8.133,0.744,8.133l6.253,0.895
		l0.894,6.254c0,0,4.079-7.279,6.086-11.455C14.728,2.265,15.183,1.805,14.701,1.324"/>
</g>
<g id="Measure" display="none">
	<g display="inline">
		<g>
			<path fill-rule="evenodd" clip-rule="evenodd" d="M15.049,4.037H1.943c-0.526,0-0.953,0.427-0.953,0.953v6.074
				c0,0.526,0.427,0.952,0.953,0.952h13.105c0.525,0,0.952-0.426,0.952-0.952V4.99C16.001,4.463,15.574,4.037,15.049,4.037z
				 M13.965,9.985H2.985V7.018h0.953v2.016H6.01V7.986h0.953v1.047h3.045V7.986h0.953v1.047h2.052V6.986h0.952V9.985z"/>
		</g>
	</g>
</g>
<g id="Print" display="none">
	<path display="inline" d="M1.523,5.805h12.978c0.436,0,0.364-0.464,0.147-0.54S12.02,4.278,11.6,4.278h-0.687v-2.29H5.111v2.29
		H4.425c-0.42,0-2.832,0.912-3.049,0.987S1.088,5.805,1.523,5.805 M14.653,6.645H1.371c-0.42,0-0.84,0.496-0.84,0.916v2.672
		c0,0.42,0.42,0.916,0.84,0.916h1.513l-0.673,3.817h11.603l-0.673-3.817h1.513c0.42,0,0.84-0.496,0.84-0.916V7.561
		C15.493,7.141,15.073,6.645,14.653,6.645 M3.737,13.438l1.068-4.962h6.413l1.068,4.962H3.737z"/>
</g>
<g id="Share" display="none">
	<path display="inline" d="M0.445,14.562c0,0,0.369-9.095,8.569-9.095V1.854l6.584,6.116l-6.584,6.252v-4.156
		C4.562,10.065,2.766,10.46,0.445,14.562"/>
</g>
<g id="Manstanding" display="none">
	<g display="inline">
		<g>
			<path d="M8.019,4.08c1.318,0,1.853-0.658,1.853-1.977c0-1.335-0.534-2.097-1.853-2.097S6.167,0.768,6.167,2.103
				C6.167,3.421,6.7,4.08,8.019,4.08z M8.889,4.989H7.234C4.952,4.989,4,7.218,4,7.891v3.073l0.992-0.031l0.04-2.609l1.006-0.001
				L6.012,16h1.203l0.796-5.032L8.879,16h1.162l-0.027-7.677l0.943,0.001l0.041,2.615l0.992,0.031V7.898
				C11.99,7.225,11.17,4.989,8.889,4.989z"/>
		</g>
	</g>
</g>
<g id="Location" display="none">
	<path display="inline" fill-rule="evenodd" clip-rule="evenodd" d="M8.026,2.736c2.809,0,5.087,2.278,5.087,5.087
		c0,2.809-4.981,7.577-5.142,7.577c-0.161,0-5.033-4.768-5.033-7.577C2.938,5.014,5.216,2.736,8.026,2.736z"/>
</g>
<g id="Expand" display="none">
	<g display="inline">
		<g>
			<path fill-rule="evenodd" clip-rule="evenodd" d="M5.503,8.989l-2.388,2.399L0.999,9.263l0.005,5.72h5.715l-2.137-2.137
				l2.4-2.389L5.503,8.989z M14.999,1.001H9.284l2.137,2.136L8.989,5.526l1.479,1.468l2.419-2.4l2.116,2.126L14.999,1.001z"/>
		</g>
	</g>
</g>
<g id="Contract" display="none">
	<g display="inline">
		<g>
			<path fill-rule="evenodd" clip-rule="evenodd" d="M2.25,7.986l2.137,2.137l-2.4,2.389l1.48,1.468l2.387-2.399l2.117,2.126
				l-0.005-5.72H2.25z M14.011,3.474l-1.479-1.468l-2.419,2.4L7.996,2.279l0.005,5.72h5.715l-2.137-2.136L14.011,3.474z"/>
		</g>
	</g>
</g>
<g id="Dropdown">
	<path fill-rule="evenodd" clip-rule="evenodd" d="M2.942,6.081l10.246-0.049l-5.166,4.885L2.942,6.081z"/>
</g>
</svg>
