<?xml version="1.0" encoding="utf-8"?>
<!-- Generator: Adobe Illustrator 13.0.0, SVG Export Plug-In . SVG Version: 6.00 Build 14948)  -->
<!DOCTYPE svg PUBLIC "-//W3C//DTD SVG 1.1//EN" "http://www.w3.org/Graphics/SVG/1.1/DTD/svg11.dtd">
<svg version="1.1" xmlns="http://www.w3.org/2000/svg" xmlns:xlink="http://www.w3.org/1999/xlink" x="0px" y="0px" width="16px"
	 height="16px" viewBox="0 0 16 16" enable-background="new 0 0 16 16" xml:space="preserve">
<g id="Area" display="none">
	<path display="inline" fill-rule="evenodd" clip-rule="evenodd" d="M2.344,3.088l2.129,10.828l7.141-1.776l3.368-8.929L8.144,6.262
		L2.344,3.088z"/>
</g>
<g id="Line" display="none">
	<g display="inline">
		<g>
			<path d="M13.058,2.456c-1.57,0-2.844,1.273-2.844,2.844c0,0.764,0.305,1.454,0.795,1.965l-2.188,4.423L5.565,6.417
				c-0.173-0.278-0.474-0.456-0.8-0.473c-0.328-0.016-0.645,0.13-0.843,0.39L0,11.438l1.585,1.219l3.039-3.955l3.444,5.572
				c0.183,0.293,0.504,0.475,0.848,0.475c0.019,0,0.034-0.002,0.052-0.002c0.362-0.016,0.688-0.229,0.85-0.557l3.002-6.07
				c0.08,0.006,0.158,0.023,0.24,0.023c1.57,0,2.844-1.273,2.844-2.844C15.903,3.728,14.628,2.456,13.058,2.456z"/>
		</g>
	</g>
</g>
<g id="Crosshair" display="none">
	<g display="inline">
		<g>
			<path d="M8.011,0.004c-4.382,0-7.935,3.553-7.935,7.936c0,4.384,3.553,7.937,7.935,7.937s7.935-3.553,7.935-7.937
				C15.945,3.558,12.395,0.004,8.011,0.004z M8.994,13.867v-2.986H7.003v2.984C4.485,13.438,2.5,11.453,2.081,8.932h2.912v-1.99
				H2.082c0.42-2.511,2.392-4.492,4.897-4.926v2.938h2.024V2.012c2.522,0.421,4.513,2.406,4.937,4.93h-2.967v1.99h2.967
				C13.52,11.461,11.523,13.449,8.994,13.867z"/>
		</g>
	</g>
</g>
<g id="Routing" display="none">
	<g display="inline">
		<g>
			<path fill-rule="evenodd" clip-rule="evenodd" d="M15.663,7.191L8.805,0.333c-0.446-0.445-1.168-0.445-1.614,0L0.333,7.191
				c-0.446,0.445-0.446,1.168,0,1.614l6.858,6.858c0.446,0.445,1.168,0.445,1.614,0l6.858-6.858
				C16.108,8.359,16.108,7.636,15.663,7.191z M8.951,9.896V7.902H8.119c-0.283,0-0.513,0.23-0.513,0.514v3.537H5.604V8.087
				c0-1.204,0.976-2.181,2.18-2.181h1.167V3.884l3.641,3.031L8.951,9.896z"/>
		</g>
	</g>
</g>
<g id="Navigate" display="none">
	<path display="inline" d="M14.701,1.324c-0.481-0.482-0.942-0.027-2.503,0.724C8.022,4.054,0.744,8.133,0.744,8.133l6.253,0.895
		l0.894,6.254c0,0,4.079-7.279,6.086-11.455C14.728,2.265,15.183,1.805,14.701,1.324"/>
</g>
<g id="Measure" display="none">
	<g display="inline">
		<g>
			<path fill-rule="evenodd" clip-rule="evenodd" d="M15.049,4.037H1.943c-0.526,0-0.953,0.427-0.953,0.953v6.074
				c0,0.526,0.427,0.952,0.953,0.952h13.105c0.525,0,0.952-0.426,0.952-0.952V4.99C16.001,4.463,15.574,4.037,15.049,4.037z
				 M13.965,9.985H2.985V7.018h0.953v2.016H6.01V7.986h0.953v1.047h3.045V7.986h0.953v1.047h2.052V6.986h0.952V9.985z"/>
		</g>
	</g>
</g>
<g id="Print" display="none">
	<path display="inline" d="M1.523,5.805h12.978c0.436,0,0.364-0.464,0.147-0.54S12.02,4.278,11.6,4.278h-0.687v-2.29H5.111v2.29
		H4.425c-0.42,0-2.832,0.912-3.049,0.987S1.088,5.805,1.523,5.805 M14.653,6.645H1.371c-0.42,0-0.84,0.496-0.84,0.916v2.672
		c0,0.42,0.42,0.916,0.84,0.916h1.513l-0.673,3.817h11.603l-0.673-3.817h1.513c0.42,0,0.84-0.496,0.84-0.916V7.561
		C15.493,7.141,15.073,6.645,14.653,6.645 M3.737,13.438l1.068-4.962h6.413l1.068,4.962H3.737z"/>
</g>
<g id="Share" display="none">
	<path display="inline" d="M0.445,14.562c0,0,0.369-9.095,8.569-9.095V1.854l6.584,6.116l-6.584,6.252v-4.156
		C4.562,10.065,2.766,10.46,0.445,14.562"/>
</g>
<g id="Manstanding" display="none">
	<g display="inline">
		<g>
			<path d="M8.019,4.08c1.318,0,1.853-0.658,1.853-1.977c0-1.335-0.534-2.097-1.853-2.097S6.167,0.768,6.167,2.103
				C6.167,3.421,6.7,4.08,8.019,4.08z M8.889,4.989H7.234C4.952,4.989,4,7.218,4,7.891v3.073l0.992-0.031l0.04-2.609l1.006-0.001
				L6.012,16h1.203l0.796-5.032L8.879,16h1.162l-0.027-7.677l0.943,0.001l0.041,2.615l0.992,0.031V7.898
				C11.99,7.225,11.17,4.989,8.889,4.989z"/>
		</g>
	</g>
</g>
<g id="Location" display="none">
	<path display="inline" fill-rule="evenodd" clip-rule="evenodd" d="M8.026,2.736c2.809,0,5.087,2.278,5.087,5.087
		c0,2.809-4.981,7.577-5.142,7.577c-0.161,0-5.033-4.768-5.033-7.577C2.938,5.014,5.216,2.736,8.026,2.736z"/>
</g>
<g id="Location2" display="none">
	<g display="inline">
		<g>
			<path fill-rule="evenodd" clip-rule="evenodd" d="M8.026,2.736c-2.81,0-5.087,2.278-5.087,5.087c0,2.809,4.873,7.577,5.033,7.577
				c0.16,0,5.142-4.768,5.142-7.577C13.113,5.014,10.835,2.736,8.026,2.736z M7.999,10.059c-1.3,0-2.355-1.055-2.355-2.355
				c0-1.301,1.055-2.355,2.355-2.355s2.355,1.055,2.355,2.355C10.354,9.004,9.299,10.059,7.999,10.059z"/>
		</g>
	</g>
</g>
<g id="List">
	<g>
		<g>
			<path fill-rule="evenodd" clip-rule="evenodd" d="M14.011,7.005H6.996c-0.565,0-1.024,0.458-1.024,1.024
				c0,0.564,0.459,1.023,1.024,1.023h7.015c0.565,0,1.023-0.459,1.023-1.023C15.034,7.463,14.576,7.005,14.011,7.005z M6.996,5.049
				h7.015c0.565,0,1.023-0.458,1.023-1.023s-0.458-1.024-1.023-1.024H6.996c-0.565,0-1.024,0.458-1.024,1.024
				S6.431,5.049,6.996,5.049z M14.011,11.005H6.996c-0.565,0-1.024,0.458-1.024,1.024c0,0.564,0.459,1.023,1.024,1.023h7.015
				c0.565,0,1.023-0.459,1.023-1.023C15.034,11.463,14.576,11.005,14.011,11.005z M2.979,3.001H1.995
				c-0.564,0-1.023,0.458-1.023,1.024s0.459,1.023,1.023,1.023h0.983c0.565,0,1.024-0.458,1.024-1.023S3.544,3.001,2.979,3.001z
				 M2.979,11.002H1.995c-0.564,0-1.023,0.458-1.023,1.023s0.459,1.023,1.023,1.023h0.983c0.565,0,1.024-0.458,1.024-1.023
				S3.544,11.002,2.979,11.002z M2.979,7.001H1.995c-0.564,0-1.023,0.458-1.023,1.024s0.459,1.023,1.023,1.023h0.983
				c0.565,0,1.024-0.458,1.024-1.023S3.544,7.001,2.979,7.001z"/>
		</g>
	</g>
</g>
<g id="Expand" display="none">
	<g display="inline">
		<g>
			<path fill-rule="evenodd" clip-rule="evenodd" d="M5.503,8.989l-2.388,2.399L0.999,9.263l0.005,5.72h5.715l-2.137-2.137
				l2.4-2.389L5.503,8.989z M14.999,1.001H9.284l2.137,2.136L8.989,5.526l1.479,1.468l2.419-2.4l2.116,2.126L14.999,1.001z"/>
		</g>
	</g>
</g>
<g id="Contract" display="none">
	<g display="inline">
		<g>
			<path fill-rule="evenodd" clip-rule="evenodd" d="M2.25,7.986l2.137,2.137l-2.4,2.389l1.48,1.468l2.387-2.399l2.117,2.126
				l-0.005-5.72H2.25z M14.011,3.474l-1.479-1.468l-2.419,2.4L7.996,2.279l0.005,5.72h5.715l-2.137-2.136L14.011,3.474z"/>
		</g>
	</g>
</g>
<g id="Dropdown" display="none">
	<path display="inline" fill-rule="evenodd" clip-rule="evenodd" d="M2.942,6.081l10.246-0.049l-5.166,4.885L2.942,6.081z"/>
</g>
<g id="Hemnet" display="none">
	<g display="inline">
		<g>
			<path d="M8.003,0.085c-4.368,0-7.909,3.541-7.909,7.909c0,1.771,0.583,3.408,1.567,4.726l-1.24,1.24
				c-0.447,0.445-0.447,1.168,0,1.615c0.222,0.223,0.515,0.334,0.808,0.334s0.585-0.111,0.808-0.334l1.24-1.24
				c1.319,0.984,2.955,1.566,4.727,1.566c4.368,0,7.909-3.541,7.909-7.908C15.912,3.626,12.371,0.085,8.003,0.085z M8.003,13.904
				c-3.264,0-5.91-2.646-5.91-5.91c0-3.264,2.646-5.91,5.91-5.91c3.262,0,5.91,2.646,5.91,5.91
				C13.913,11.258,11.266,13.904,8.003,13.904z M4.84,6.573v4.152h2.571V9.236h1.186v1.488h2.569V6.573L8.003,4.398L4.84,6.573z"/>
		</g>
	</g>
</g>
<g id="Posten" display="none">
	<g display="inline">
		<g>
			<path fill-rule="evenodd" clip-rule="evenodd" d="M13.662,2.37c-1.501-1.501-3.498-2.329-5.621-2.329
				c-2.12,0-4.116,0.828-5.619,2.332S0.09,5.872,0.09,7.992c0,2.123,0.827,4.121,2.329,5.623c1.501,1.502,3.498,2.328,5.622,2.328
				c2.123,0,4.12-0.826,5.621-2.328c1.502-1.502,2.33-3.5,2.33-5.623C15.992,5.868,15.164,3.872,13.662,2.37z M7.938,3.052
				C7.836,2.999,7.76,2.892,7.76,2.772c0-0.146,0.114-0.276,0.25-0.306V2.285H7.87V2.17h0.14V2.036h0.114V2.17h0.14v0.115h-0.14
				v0.181c0.138,0.029,0.253,0.159,0.253,0.307c0,0.119-0.075,0.227-0.177,0.279c0.542,0.009,2.588,0.154,2.782,1.797h-0.653
				c-0.047-0.904-0.461-1.214-1.205-1.406c0.559,0.474,0.533,0.847,0.569,1.406H9.016c0-0.978-0.25-1.463-0.708-1.531
				c0.116,0.456,0.145,1.385,0.108,1.531H7.718C7.681,4.703,7.71,3.774,7.826,3.318C7.368,3.386,7.118,3.872,7.118,4.849H6.441
				c0.036-0.559,0.011-0.932,0.57-1.406C6.267,3.635,5.852,3.945,5.807,4.849H5.152C5.346,3.203,7.399,3.061,7.938,3.052z
				 M5.372,4.931c0.142,0,0.256,0.115,0.256,0.256c0,0.069-0.028,0.158-0.072,0.204C5.582,5.383,5.636,5.38,5.665,5.38
				c0.142,0,0.256,0.115,0.256,0.256c0,0.142-0.115,0.256-0.256,0.256c-0.091,0-0.163-0.042-0.208-0.113
				c0.079,0.255,0.267,0.422,0.597,0.422c0.418,0,0.556-0.278,0.6-0.422C6.607,5.848,6.528,5.893,6.439,5.893
				c-0.142,0-0.256-0.114-0.256-0.256c0-0.141,0.114-0.256,0.256-0.256c0.036,0,0.069-0.002,0.1,0.011
				C6.493,5.344,6.462,5.258,6.462,5.187c0-0.141,0.114-0.256,0.256-0.256c0.141,0,0.256,0.115,0.256,0.256
				c0,0.069-0.028,0.158-0.072,0.204C6.928,5.383,6.982,5.38,7.011,5.38c0.142,0,0.256,0.115,0.256,0.256
				c0,0.142-0.114,0.256-0.256,0.256c-0.089,0-0.182-0.044-0.228-0.113c0.072,0.196,0.146,0.422,0.619,0.422
				c0.461,0,0.54-0.25,0.602-0.422c-0.046,0.069-0.14,0.113-0.228,0.113c-0.142,0-0.256-0.114-0.256-0.256
				c0-0.141,0.114-0.256,0.256-0.256c0.029,0,0.083,0.003,0.109,0.011C7.84,5.345,7.812,5.256,7.812,5.187
				c0-0.141,0.115-0.256,0.257-0.256c0.141,0,0.256,0.115,0.256,0.256c0,0.071-0.032,0.157-0.078,0.204
				c0.031-0.013,0.064-0.011,0.1-0.011c0.142,0,0.257,0.115,0.257,0.256c0,0.142-0.115,0.256-0.257,0.256
				c-0.089,0-0.17-0.045-0.216-0.113c0.071,0.196,0.134,0.424,0.605,0.424c0.473,0,0.543-0.228,0.613-0.424
				C9.304,5.848,9.211,5.893,9.123,5.893c-0.143,0-0.257-0.114-0.257-0.256c0-0.141,0.114-0.256,0.257-0.256
				c0.028,0,0.082,0.003,0.108,0.011C9.188,5.345,9.16,5.256,9.16,5.187c0-0.141,0.114-0.256,0.256-0.256
				c0.141,0,0.256,0.115,0.256,0.256c0,0.071-0.031,0.157-0.078,0.204C9.625,5.377,9.66,5.38,9.695,5.38
				c0.141,0,0.256,0.115,0.256,0.256c0,0.142-0.115,0.256-0.256,0.256c-0.09,0-0.168-0.045-0.215-0.113
				c0.045,0.144,0.182,0.422,0.601,0.422c0.329,0,0.518-0.167,0.596-0.422c-0.045,0.071-0.116,0.113-0.207,0.113
				c-0.142,0-0.257-0.114-0.257-0.256c0-0.141,0.115-0.256,0.257-0.256c0.028,0,0.083,0.003,0.108,0.011
				c-0.045-0.046-0.072-0.135-0.072-0.204c0-0.141,0.115-0.256,0.257-0.256s0.256,0.115,0.256,0.256c0,0.04-0.008,0.078-0.015,0.09
				c0.002-0.004-0.604,1.402-0.604,1.402H5.734c0,0-0.606-1.406-0.604-1.402c-0.006-0.012-0.015-0.05-0.015-0.09
				C5.115,5.046,5.23,4.931,5.372,4.931z M13.734,8.424c-0.52,3.469-3.349,5.01-5.666,5.01c-2.988,0-5.374-2.078-5.924-4.898
				l-0.319-0.24V8.262h3.04v0.035L4.548,8.536c0,0-0.142,1.605,0.593,2.475c-0.04-0.195-0.077-0.348-0.077-0.555
				c0-1.639,1.369-3.01,3.007-3.01s3.001,1.372,3.001,3.01c0,0.586-0.147,1.086-0.439,1.545c1.145-0.623,2.099-1.66,2.443-3.577
				l-0.087-0.126l-0.001-0.036h0.837v0.036L13.734,8.424z M8.068,8.222c-1.23,0-2.229,0.998-2.229,2.228
				c0,1.232,0.998,2.229,2.229,2.229c1.231,0,2.229-0.996,2.229-2.229C10.297,9.22,9.299,8.222,8.068,8.222z"/>
		</g>
	</g>
</g>
<g id="Telia" display="none">
	<path display="inline" d="M15.312,3.631c-0.008,0.012-0.013,0.021-0.018,0.034c-0.344,0.765-1.044,1.657-1.973,2.554
		c0.74,0.346,1.32,0.77,1.682,1.315c0.006,0.01,0.012,0.018,0.016,0.026c0.141-0.565,0.242-1.123,0.303-1.663
		C15.415,5.079,15.407,4.317,15.312,3.631z M12.502,6.962c-2.989,2.546-7.532,4.851-10.54,4.069c-0.013-0.004-0.018-0.002-0.024,0
		c0.027,0.043,0.053,0.087,0.08,0.131c0.04,0.045,0.083,0.092,0.104,0.123l0.006,0.009c2.955,4.754,11.167,1.117,12.106-1.899
		C14.449,8.37,13.73,7.587,12.502,6.962z M4.067,13.732c-0.024-0.012-0.046-0.021-0.07-0.031c0.152,0.154,0.304,0.302,0.457,0.439
		c0.729,0.658,1.458,1.122,2.164,1.381c0.443,0.162,0.881,0.245,1.303,0.245c0.322,0,0.642-0.048,0.95-0.144
		c0.832-0.258,1.649-0.746,2.428-1.451c0.921-0.833,1.752-1.947,2.426-3.22c-0.019,0.017-0.035,0.032-0.055,0.052
		C11.94,13.1,7.325,15.129,4.067,13.732z M6.695,4.619c2.08,0.366,4.083,0.687,5.643,1.21c1.52-1.167,2.582-2.405,2.647-3.428
		c0.001-0.017,0.004-0.031,0.005-0.047c-0.021-0.056-0.04-0.113-0.062-0.167c-0.068-0.157-0.148-0.312-0.236-0.462
		c-0.066-0.11-0.145-0.213-0.23-0.311c-0.004,0.006-0.01,0.01-0.014,0.016C12.512,3.881,9.694,4.684,6.695,4.619z M3.396,3.821
		c4.622,0.837,8.511,0.154,10.803-2.629c0.006-0.006,0.012-0.012,0.018-0.019c-0.545-0.466-1.36-0.763-2.408-0.867
		c-0.269-0.026-0.551-0.04-0.844-0.04c-2.107,0-4.56,0.662-6.561,1.771C3.593,2.486,2.892,2.993,2.316,3.536
		c0.01,0.003,0.017,0.007,0.025,0.01C2.689,3.644,3.04,3.737,3.396,3.821z M11.416,6.493c-2.807-1.042-7.05-1.588-9.779-2.197
		C1.629,4.294,1.624,4.292,1.616,4.291C1.149,4.874,0.817,5.488,0.64,6.115C0.513,6.568,0.461,7.032,0.487,7.492
		c0.019,0.36,0.156,0.869,0.386,1.451c0.015,0.017,0.029,0.032,0.043,0.05C2.143,10.926,7.662,9.026,11.416,6.493z"/>
</g>
<g id="Opus" display="none">
	<g display="inline">
		<g>
			<path d="M9.26,15.651c3.7-0.59,6.529-3.786,6.529-7.651c0-1.652-0.521-3.181-1.401-4.439c0-0.001-0.001-0.002-0.001-0.003
				c-0.003-0.004-0.007-0.007-0.01-0.012c-0.281-0.399-0.598-0.771-0.947-1.11c-0.001,0-0.001-0.001-0.002-0.002c0,0,0,0,0,0.001
				c-0.286-0.278-0.595-0.532-0.921-0.764l0,0l-0.002-0.001c-0.231-0.165-0.471-0.319-0.721-0.457v0c-0.001,0-0.001,0-0.002-0.001
				c-0.277-0.154-0.566-0.288-0.862-0.407c-0.002,0-0.003-0.001-0.004-0.001v0c-0.109-0.044-0.223-0.083-0.335-0.123v0
				c-0.062-0.021-0.121-0.047-0.184-0.067l0,0c-0.064-0.021-0.13-0.038-0.194-0.057l0,0c-0.039-0.011-0.08-0.02-0.119-0.031v0
				c-0.075-0.021-0.15-0.04-0.227-0.059l0,0c-0.041-0.01-0.079-0.021-0.119-0.031c0,0,0,0,0,0C9.665,0.42,9.593,0.402,9.519,0.388
				l0,0C9.461,0.376,9.401,0.371,9.344,0.361c0,0,0,0,0,0c-0.428-0.073-0.865-0.12-1.313-0.12c-1.206,0-2.342,0.283-3.36,0.774
				c-0.001,0-0.002,0-0.003,0.001l0,0c-1.305,0.63-2.405,1.61-3.178,2.824h0C1.486,3.845,1.484,3.85,1.481,3.854
				C1.353,4.058,1.233,4.267,1.123,4.482C1.12,4.487,1.118,4.493,1.115,4.498c-0.11,0.217-0.21,0.439-0.3,0.668
				c0,0.001-0.001,0.002-0.001,0.003l0,0C0.588,5.743,0.431,6.35,0.348,6.98h0c0,0.001,0,0.003,0,0.005
				C0.304,7.318,0.273,7.655,0.273,8c0,0.217,0.015,0.431,0.032,0.644l0,0c0.048,0.581,0.155,1.146,0.324,1.684h0
				c0.001,0.005,0.004,0.01,0.006,0.015c0.124,0.392,0.284,0.767,0.465,1.128c0.011,0.021,0.02,0.043,0.031,0.063
				c0.19,0.371,0.41,0.722,0.655,1.055c0,0.001,0.001,0.002,0.002,0.003c0,0,0,0,0,0c0.155,0.211,0.321,0.413,0.497,0.607h0
				c0.001,0.001,0.002,0.002,0.002,0.003c0.297,0.327,0.619,0.63,0.968,0.903c0.01,0.008,0.021,0.015,0.031,0.022
				c0.94,0.729,2.048,1.25,3.261,1.485h0c0.009,0.002,0.018,0.002,0.026,0.004c0.231,0.044,0.465,0.08,0.703,0.104
				c0.233,0.023,0.47,0.034,0.709,0.036c0.016,0,0.031,0.002,0.047,0.002h0c0,0,0,0,0.001,0c0.348,0,0.687-0.031,1.023-0.075
				C9.123,15.673,9.191,15.662,9.26,15.651z M15.305,8c-0.005,2.617-1.392,4.902-3.466,6.184c2.657-2.401,3.505-5.27,3.271-7.821
				C15.232,6.89,15.304,7.436,15.305,8z M8.729,0.762C7.816,1.247,6.958,1.2,6.337,0.935c0.544-0.13,1.109-0.208,1.693-0.208
				C8.266,0.727,8.498,0.74,8.729,0.762z M9.18,0.827c0.126,0.021,0.253,0.038,0.377,0.064C8.458,3.26,5.422,2.653,3.972,1.967
				C4.353,1.71,4.76,1.489,5.188,1.307C6.273,1.79,8.097,1.991,9.18,0.827z M3.011,2.749c1.601,0.723,5.676,1.373,6.71-1.815
				c0.092,0.022,0.183,0.045,0.273,0.071C9.17,5.278,3.896,4.772,1.939,4.039C2.246,3.568,2.606,3.136,3.011,2.749z M1.282,5.306
				c2.584,0.669,8.478,0.945,8.88-4.258c0.112,0.034,0.219,0.077,0.328,0.117c0.631,4.294-4.144,6.248-9.657,5.849
				C0.915,6.418,1.066,5.846,1.282,5.306z M0.792,8.667C6.926,9.01,11.928,5.689,10.752,1.26c0.146,0.059,0.287,0.126,0.429,0.194
				c1.774,4.8-3.999,8.456-10.046,8.837C0.962,9.773,0.844,9.23,0.792,8.667z M2.313,12.479c6.121-1.273,11.305-4.639,9.669-10.577
				c0.106,0.069,0.21,0.144,0.312,0.218c1.548,5.164-2.488,9.2-9.476,10.941C2.64,12.877,2.472,12.682,2.313,12.479z M5.093,14.646
				c6.657-1.931,9.706-7.344,7.9-11.949c0.362,0.338,0.689,0.712,0.977,1.118C15.361,8.433,12.131,13,7.385,15.24
				C6.575,15.167,5.805,14.962,5.093,14.646z"/>
		</g>
	</g>
</g>
<g id="Synoptik" display="none">
	<g display="inline">
		<g>
			<path d="M1.013,1.012v14.976h14.975V1.012H1.013z M8.319,7.888c2.127,0.092,4.138-0.116,4.138,2.149
				c0,1.688-1.572,2.197-4.138,2.174c-2.451-0.023-3.815-0.508-3.815-2.219h1.525c0,0.809,0.486,1.133,2.266,1.133
				c1.758,0,2.521-0.139,2.521-1.18c0-0.879-0.67-0.855-2.149-0.901c-2.059-0.07-4.001,0-3.978-2.128
				c0.023-1.688,1.596-2.15,4.139-2.127c2.29,0.023,3.677,0.532,3.677,2.22h-1.526c0-0.833-0.555-1.11-2.127-1.133
				c-2.012-0.022-2.497,0.301-2.52,0.971C6.307,7.934,7.14,7.841,8.319,7.888z"/>
		</g>
	</g>
</g>
<g id="Navigateright" display="none">
	<g display="inline">
		<g>
			<polygon fill-rule="evenodd" clip-rule="evenodd" points="11.578,8.007 9.965,6.394 9.956,6.402 6.05,2.496 4.438,4.109 
				8.344,8.016 4.438,11.922 6.05,13.535 9.957,9.629 9.965,9.637 11.578,8.024 11.569,8.016 			"/>
		</g>
	</g>
</g>
<g id="Navigatedown" display="none">
	<g display="inline">
		<g>
			<polygon fill-rule="evenodd" clip-rule="evenodd" points="13.535,6.05 11.922,4.438 8.016,8.344 4.109,4.438 2.496,6.05 
				6.402,9.956 6.394,9.965 8.007,11.578 8.016,11.569 8.024,11.578 9.637,9.965 9.629,9.957 			"/>
		</g>
	</g>
</g>
<g id="Navigateleft" display="none">
	<g display="inline">
		<g>
			<polygon fill-rule="evenodd" clip-rule="evenodd" points="11.594,4.109 9.981,2.496 6.074,6.403 6.065,6.394 4.453,8.007 
				4.462,8.016 4.453,8.024 6.065,9.637 6.074,9.628 9.981,13.535 11.594,11.922 7.687,8.016 			"/>
		</g>
	</g>
</g>
<g id="Navigateup" display="none">
	<g display="inline">
		<g>
			<polygon fill-rule="evenodd" clip-rule="evenodd" points="13.535,9.98 9.629,6.074 9.637,6.066 8.024,4.453 8.016,4.461 
				8.007,4.453 6.395,6.066 6.403,6.074 2.496,9.98 4.109,11.594 8.016,7.687 11.922,11.594 			"/>
		</g>
	</g>
</g>
<g id="Foretagsombud" display="none">
	<path display="inline" fill-rule="evenodd" clip-rule="evenodd" d="M14.476,13.996c-0.844,0-2.088-0.002-3.286-0.004
		c-1.098,0.662-2.349,1.036-3.666,1.036c-1.895,0-3.677-0.731-5.017-2.062S0.429,9.869,0.429,7.989c0-1.877,0.739-3.644,2.081-4.975
		s3.122-2.064,5.014-2.064c1.327,0,2.589,0.378,3.691,1.05c1.192,0,2.425,0,3.261,0C15.341,2,15.5,2.97,15.5,2.97v10.057
		C15.5,13.027,15.367,13.996,14.476,13.996z M11.83,3.716c-1.15-1.141-2.68-1.77-4.307-1.77c-1.625,0-3.153,0.629-4.306,1.772
		C2.066,4.861,1.433,6.378,1.433,7.989c0,1.614,0.633,3.132,1.783,4.272c1.151,1.143,2.681,1.771,4.308,1.771
		s3.156-0.629,4.307-1.771c1.15-1.141,1.784-2.658,1.784-4.272C13.614,6.375,12.98,4.858,11.83,3.716z M7.541,12.508
		c-1.212,0-2.351-0.468-3.206-1.318c-0.856-0.85-1.328-1.979-1.328-3.18c0-1.2,0.472-2.329,1.329-3.18S6.332,3.51,7.541,3.51
		c1.211,0,2.35,0.468,3.206,1.318s1.328,1.979,1.328,3.181s-0.472,2.331-1.328,3.18C9.891,12.04,8.752,12.508,7.541,12.508z
		 M7.605,5.415c0.052-0.026,0.089-0.08,0.089-0.139c0-0.074-0.058-0.139-0.127-0.153v-0.09h0.07V4.976h-0.07V4.909H7.51v0.067h-0.07
		v0.057h0.07v0.09c-0.068,0.015-0.125,0.08-0.125,0.153c0,0.059,0.038,0.113,0.089,0.139C7.203,5.42,6.172,5.491,6.074,6.312h0.329
		c0.022-0.451,0.23-0.605,0.605-0.701C6.728,5.847,6.74,6.033,6.723,6.312h0.34c0-0.487,0.125-0.729,0.355-0.764
		c-0.059,0.228-0.072,0.69-0.055,0.764h0.352C7.733,6.238,7.719,5.775,7.66,5.548c0.23,0.034,0.355,0.276,0.355,0.764h0.341
		C8.338,6.033,8.351,5.847,8.069,5.611c0.375,0.095,0.583,0.25,0.605,0.701h0.329C8.906,5.492,7.879,5.42,7.605,5.415z M8.894,6.352
		c-0.071,0-0.129,0.058-0.129,0.128c0,0.035,0.014,0.079,0.036,0.102c-0.013-0.004-0.04-0.005-0.054-0.005
		c-0.071,0-0.129,0.057-0.129,0.128s0.058,0.128,0.129,0.128c0.045,0,0.081-0.021,0.104-0.057c-0.039,0.127-0.134,0.21-0.299,0.21
		c-0.211,0-0.279-0.139-0.302-0.21C8.273,6.81,8.312,6.832,8.357,6.832c0.07,0,0.129-0.057,0.129-0.128S8.428,6.576,8.357,6.576
		c-0.019,0-0.035-0.001-0.051,0.005C8.33,6.558,8.346,6.516,8.346,6.48c0-0.07-0.058-0.128-0.129-0.128S8.088,6.41,8.088,6.48
		c0,0.035,0.015,0.079,0.036,0.102c-0.013-0.004-0.04-0.005-0.055-0.005c-0.07,0-0.129,0.057-0.129,0.128s0.059,0.128,0.129,0.128
		c0.045,0,0.092-0.022,0.114-0.057c-0.035,0.098-0.07,0.211-0.309,0.211c-0.236,0-0.268-0.113-0.304-0.211
		C7.595,6.81,7.636,6.832,7.681,6.832c0.071,0,0.129-0.057,0.129-0.128S7.752,6.576,7.681,6.576c-0.019,0-0.035-0.001-0.051,0.005
		C7.653,6.558,7.669,6.516,7.669,6.48c0-0.07-0.058-0.128-0.129-0.128S7.411,6.41,7.411,6.48c0,0.035,0.014,0.079,0.036,0.102
		c-0.013-0.004-0.04-0.005-0.055-0.005c-0.071,0-0.128,0.057-0.128,0.128s0.057,0.128,0.128,0.128c0.045,0,0.092-0.022,0.115-0.057
		c-0.031,0.086-0.071,0.21-0.303,0.21c-0.238,0-0.275-0.113-0.311-0.21C6.917,6.81,6.964,6.832,7.009,6.832
		c0.071,0,0.129-0.057,0.129-0.128S7.08,6.576,7.009,6.576c-0.015,0-0.042,0.001-0.055,0.005C6.977,6.559,6.99,6.515,6.99,6.48
		c0-0.07-0.058-0.128-0.129-0.128S6.732,6.41,6.732,6.48c0,0.036,0.016,0.078,0.039,0.101C6.756,6.575,6.739,6.576,6.721,6.576
		c-0.07,0-0.128,0.057-0.128,0.128S6.65,6.832,6.721,6.832c0.045,0,0.085-0.022,0.107-0.057c-0.021,0.072-0.091,0.21-0.301,0.21
		c-0.166,0-0.261-0.083-0.3-0.21C6.25,6.811,6.286,6.832,6.332,6.832c0.071,0,0.129-0.057,0.129-0.128S6.403,6.576,6.332,6.576
		c-0.015,0-0.042,0.001-0.055,0.005C6.3,6.559,6.313,6.515,6.313,6.48c0-0.07-0.058-0.128-0.129-0.128S6.056,6.41,6.056,6.48
		c0,0.02,0.004,0.039,0.008,0.045C6.062,6.523,6.367,7.224,6.367,7.224h1.172h1.172c0,0,0.306-0.701,0.304-0.699
		C9.019,6.519,9.022,6.5,9.022,6.48C9.022,6.41,8.965,6.352,8.894,6.352z M10.434,8.013h-0.421v0.018l0.044,0.063
		C9.883,9.05,9.404,9.567,8.829,9.877C8.976,9.648,9.05,9.398,9.05,9.107c0-0.816-0.686-1.501-1.509-1.501S6.029,8.291,6.029,9.107
		c0,0.104,0.019,0.18,0.039,0.276C5.699,8.951,5.771,8.15,5.771,8.15l0.159-0.12V8.013H4.402v0.018l0.16,0.12
		c0.276,1.406,1.476,2.441,2.978,2.441c1.164,0,2.586-0.768,2.848-2.498l0.046-0.063V8.013z M7.539,10.216
		c-0.618,0-1.119-0.497-1.119-1.111c0-0.613,0.501-1.111,1.119-1.111c0.619,0,1.12,0.498,1.12,1.111
		C8.659,9.719,8.158,10.216,7.539,10.216z"/>
</g>
<g id="Postombud" display="none">
	<g display="inline">
		<g>
			<path fill-rule="evenodd" clip-rule="evenodd" d="M14.5,2h-3.285c-1.103-0.672-2.364-1.05-3.691-1.05
				c-1.892,0-3.672,0.732-5.014,2.064C1.168,4.346,0.429,6.112,0.429,7.989c0,1.88,0.738,3.647,2.078,4.978s3.122,2.062,5.017,2.062
				c1.317,0,2.569-0.374,3.666-1.036c1.183,0.002,2.418,0.003,3.311,0.003c0.885,0,1-1.04,1-1.04V3.042C15.5,3.042,15.386,2,14.5,2z
				 M11.254,11.691c-0.996,0.989-2.321,1.533-3.73,1.533c-1.41,0-2.734-0.544-3.731-1.533C2.795,10.703,2.246,9.388,2.246,7.99
				c0-1.396,0.55-2.71,1.548-3.7c0.998-0.99,2.322-1.535,3.729-1.535c1.409,0,2.734,0.544,3.73,1.533
				C12.251,5.276,12.8,6.591,12.8,7.99C12.8,9.388,12.251,10.703,11.254,11.691z M7.541,3.51c-1.209,0-2.348,0.469-3.205,1.319
				S3.007,6.809,3.007,8.009c0,1.202,0.472,2.331,1.328,3.181c0.855,0.851,1.994,1.318,3.206,1.318c1.211,0,2.35-0.468,3.206-1.318
				c0.856-0.85,1.328-1.979,1.328-3.181c0-1.201-0.472-2.331-1.328-3.181S8.752,3.51,7.541,3.51z M7.474,5.415
				c-0.051-0.026-0.089-0.08-0.089-0.139c0-0.073,0.057-0.137,0.125-0.152v-0.09h-0.07V4.976h0.07V4.909h0.058v0.067h0.07v0.057
				h-0.07v0.09c0.069,0.014,0.127,0.08,0.127,0.153c0,0.06-0.037,0.113-0.089,0.139C7.879,5.42,8.906,5.492,9.004,6.312H8.675
				c-0.022-0.451-0.23-0.605-0.605-0.701c0.281,0.236,0.269,0.422,0.287,0.701H8.016c0-0.487-0.125-0.729-0.355-0.764
				c0.059,0.228,0.073,0.69,0.055,0.764H7.363C7.346,6.238,7.359,5.775,7.418,5.548c-0.23,0.034-0.355,0.276-0.355,0.764h-0.34
				C6.74,6.033,6.728,5.847,7.009,5.61c-0.375,0.096-0.583,0.25-0.605,0.701H6.074C6.172,5.491,7.203,5.42,7.474,5.415z
				 M6.185,6.352c0.071,0,0.129,0.058,0.129,0.128c0,0.035-0.014,0.079-0.036,0.102c0.013-0.004,0.04-0.005,0.055-0.005
				c0.071,0,0.129,0.057,0.129,0.128S6.403,6.832,6.332,6.832c-0.046,0-0.082-0.021-0.104-0.057c0.039,0.127,0.134,0.21,0.3,0.21
				c0.21,0,0.279-0.139,0.301-0.21C6.806,6.81,6.766,6.832,6.721,6.832c-0.07,0-0.128-0.057-0.128-0.128S6.65,6.576,6.721,6.576
				c0.019,0,0.035-0.001,0.051,0.005C6.748,6.558,6.732,6.516,6.732,6.48c0-0.07,0.058-0.128,0.129-0.128S6.99,6.41,6.99,6.48
				c0,0.035-0.014,0.079-0.036,0.102c0.013-0.004,0.04-0.005,0.055-0.005c0.071,0,0.129,0.057,0.129,0.128S7.08,6.832,7.009,6.832
				c-0.045,0-0.092-0.022-0.114-0.057c0.035,0.098,0.072,0.21,0.311,0.21c0.231,0,0.271-0.125,0.303-0.21
				C7.484,6.81,7.438,6.832,7.393,6.832c-0.071,0-0.128-0.057-0.128-0.128s0.057-0.128,0.128-0.128c0.015,0,0.042,0.001,0.055,0.005
				C7.425,6.559,7.411,6.515,7.411,6.48c0-0.07,0.058-0.128,0.129-0.128S7.669,6.41,7.669,6.48c0,0.036-0.016,0.078-0.039,0.102
				c0.016-0.007,0.032-0.005,0.051-0.005c0.071,0,0.129,0.057,0.129,0.128S7.752,6.832,7.681,6.832
				c-0.045,0-0.086-0.022-0.109-0.057c0.036,0.098,0.067,0.211,0.304,0.211c0.238,0,0.273-0.114,0.309-0.211
				C8.161,6.81,8.114,6.832,8.069,6.832c-0.07,0-0.129-0.057-0.129-0.128s0.059-0.128,0.129-0.128c0.015,0,0.042,0.001,0.055,0.005
				C8.103,6.559,8.088,6.515,8.088,6.48c0-0.07,0.058-0.128,0.129-0.128S8.346,6.41,8.346,6.48c0,0.036-0.016,0.078-0.039,0.102
				c0.016-0.007,0.032-0.005,0.051-0.005c0.07,0,0.129,0.057,0.129,0.128S8.428,6.832,8.357,6.832c-0.045,0-0.084-0.022-0.107-0.057
				c0.022,0.072,0.091,0.21,0.302,0.21c0.165,0,0.26-0.083,0.299-0.21C8.828,6.811,8.792,6.832,8.747,6.832
				c-0.071,0-0.129-0.057-0.129-0.128s0.058-0.128,0.129-0.128c0.014,0,0.041,0.001,0.054,0.005C8.778,6.559,8.765,6.515,8.765,6.48
				c0-0.07,0.058-0.128,0.129-0.128S9.022,6.41,9.022,6.48c0,0.02-0.004,0.039-0.008,0.045c0.002-0.002-0.303,0.699-0.303,0.699
				H6.367c0,0-0.305-0.701-0.304-0.699C6.06,6.519,6.056,6.5,6.056,6.48C6.056,6.41,6.113,6.352,6.185,6.352z M10.434,8.031
				l-0.046,0.063c-0.262,1.73-1.684,2.498-2.848,2.498c-1.502,0-2.701-1.035-2.978-2.441l-0.16-0.12V8.013H5.93v0.018L5.771,8.15
				c0,0-0.071,0.801,0.298,1.233C6.048,9.287,6.029,9.211,6.029,9.107c0-0.816,0.688-1.501,1.512-1.501S9.05,8.291,9.05,9.107
				c0,0.291-0.074,0.541-0.221,0.77c0.575-0.31,1.054-0.827,1.228-1.783l-0.044-0.063V8.013h0.421V8.031z M7.539,7.994
				c-0.618,0-1.119,0.498-1.119,1.111c0,0.614,0.501,1.111,1.119,1.111c0.619,0,1.12-0.497,1.12-1.111
				C8.659,8.491,8.158,7.994,7.539,7.994z"/>
		</g>
	</g>
</g>
<g id="Mailbox" display="none">
	<g display="inline">
		<g>
			<path fill-rule="evenodd" clip-rule="evenodd" d="M8.03,1.708c-3.276,0-5.027,0.785-5.027,1.8v9.032c0,1.401,1,1.419,1,1.419
				l8.011,0.014c0,0,1-0.041,1-1.474V3.527C13.014,2.559,11.307,1.708,8.03,1.708z M8.736,9.834L5.907,7.006h4.181l0.738,0.739
				L8.736,9.834z M11.998,6.001H4.005v-1h7.993V6.001z"/>
		</g>
	</g>
</g>
<g id="Tollroad-se" display="none">
	<path display="inline" d="M13.435,9.399c0.202-0.096,0.394-0.211,0.571-0.354c0.562-0.439,0.854-1.171,0.835-1.802
		c0.026-0.76-0.411-1.446-0.923-1.826l0.168-0.213c0.148-0.176,0.287-0.481,0.285-0.807c0-0.396-0.184-0.72-0.382-0.918
		c-0.203-0.205-0.428-0.32-0.655-0.39l-0.02-0.006l-0.016-0.004c-0.085-0.022-0.172-0.043-0.26-0.062
		c-0.1-0.419-0.393-0.701-0.623-0.837c-0.297-0.179-0.592-0.244-0.903-0.247h-0.446l-0.01,0.001
		c-0.301,0.015-0.583,0.085-0.869,0.265C9.958,2.34,9.656,2.634,9.57,3.091C9.324,3.172,9.088,3.288,8.861,3.436L7.433,1.573
		C4.696,1.665,2.805,2.074,2.805,2.074C2.336,2.167,2,2.577,2,3.055v9.998c0,0.494,0.345,0.919,0.851,0.988
		c0,0,2.45,0.386,5.649,0.386c3.199,0,5.648-0.386,5.648-0.386C14.638,13.967,15,13.547,15,13.053V11.44L13.435,9.399z M4.351,2.139
		h0.944l0.393,0.86H4.617L4.351,2.139z M4.879,3.838h1.192L6.62,5.036H5.252L4.879,3.838z M5.627,6.241H7.17l0.646,1.413
		c-0.05,0.117-0.085,0.242-0.102,0.37H6.183L5.627,6.241z M7.679,12.832L6.766,9.898h2.076l1.34,2.934H7.679z M11.876,8.677v0.608
		c0,0.157-0.206,0.285-0.461,0.285h-0.413c-0.245,0.01-0.451-0.117-0.461-0.285V8.696c-0.56-0.029-1.07-0.128-1.473-0.255
		C8.832,8.382,8.744,8.215,8.842,8.058l0.227-0.304c0.078-0.138,0.354-0.196,0.569-0.138c0.442,0.128,0.913,0.207,1.384,0.207
		c0.736-0.01,0.982-0.177,0.992-0.501c-0.01-0.363-0.236-0.432-0.973-0.56C9.834,6.557,8.95,6.281,8.94,5.329
		C8.93,4.514,9.598,4.102,10.658,3.984l-0.01-0.658c0-0.157,0.206-0.285,0.452-0.294h0.412c0.255,0,0.462,0.127,0.462,0.284
		l0.01,0.658c0.383,0.029,0.736,0.088,1.031,0.167c0.225,0.068,0.322,0.245,0.205,0.383l-0.215,0.275
		c-0.128,0.147-0.403,0.207-0.639,0.147c-0.285-0.069-0.58-0.108-0.982-0.099c-0.529,0-0.766,0.158-0.766,0.412
		c0,0.314,0.138,0.374,0.864,0.511c1.188,0.186,2.248,0.422,2.259,1.473C13.742,8.009,13.211,8.539,11.876,8.677z"/>
</g>
<g id="Snowmobile" display="none">
	<g display="inline">
		<g>
			<path d="M7.121,4.592c0.702,0,1.271-0.57,1.271-1.271c0-0.702-0.57-1.271-1.271-1.271S5.85,2.618,5.85,3.32
				C5.85,4.021,6.419,4.592,7.121,4.592z M14.506,10.318c0.455-0.832,0.348-1.757-1.062-2.845c-1.053-0.812-2.549-1.274-2.549-1.274
				S10.104,7.293,9.752,7.85C9.4,8.408,8.791,8.536,8.226,8.532c-0.171-0.001-0.814-0.021-1.625-0.05
				c-0.064-0.08-0.133-0.146-0.267-0.231C5.823,7.929,5.186,7.885,4.55,7.733C4.91,7.329,5.27,6.974,5.63,6.569
				c0.232,0.275,1.241,1.016,1.496,1.122c0.256,0.105,1.586-0.133,2.231-0.512c0.438-0.256,0.183-0.93-0.286-0.966
				C8.746,6.188,7.844,6.55,7.76,6.53C7.496,6.466,6.641,5.501,6.323,5.029C6.028,4.59,5.513,4.076,4.938,4.242
				C4.474,4.374,4.079,4.834,3.753,5.167C3.327,5.601,2.91,6.043,2.484,6.477C2.104,6.862,1.871,7.46,2.021,8
				c0.036,0.129,0.077,0.228,0.121,0.321c-0.1-0.004-0.169-0.006-0.169-0.006s-1.547,0.83-1.899,3.183h12.678
				C12.752,11.497,13.924,11.381,14.506,10.318z M15.921,10.924c-0.811,1.027-1.315,1.624-2.63,1.629H8.607
				c-0.688-0.005-0.7,0.648-0.7,0.648s-0.042,0.745,0.7,0.75c0,0,3.084,0,4.684,0h0.052c1.987,0,2.306-0.975,2.306-0.975
				C15.984,12.521,15.921,10.924,15.921,10.924z M1.738,13.948h3.484c1.604,0,1.713-1.396,1.713-1.396H0.121
				C0.121,12.553,0.426,13.948,1.738,13.948z"/>
		</g>
	</g>
</g>
<g id="Trafficwarning-se" display="none">
	<g display="inline">
		<g>
			<path d="M14.876,11.82L9.371,2.546C9.082,2.061,8.56,1.763,7.995,1.763h0c-0.565,0-1.088,0.298-1.376,0.785l-5.495,9.275
				C0.831,12.316,0.825,12.93,1.11,13.43c0.285,0.499,0.815,0.808,1.39,0.808h11c0.575,0,1.105-0.309,1.391-0.809
				C15.175,12.93,15.17,12.314,14.876,11.82z M2.5,12.637l5.495-9.274l5.505,9.274H2.5z M7.136,6.75l0.028,4.205
				c0.003,0.468,0.383,0.845,0.85,0.845H8.02c0.47-0.003,0.847-0.387,0.843-0.854L8.836,6.739C8.832,6.27,8.449,5.892,7.979,5.895
				C7.51,5.898,7.132,6.281,7.136,6.75z"/>
		</g>
	</g>
</g>
<g id="Speedcamera-se" display="none">
	<g display="inline">
		<g>
			<path d="M14.197,2.083c0,0-2.396-0.52-5.697-0.52s-5.695,0.52-5.695,0.52C2.336,2.177,2,2.586,2,3.064v9.997
				c0,0.495,0.346,0.919,0.851,0.988c0,0,2.45,0.386,5.649,0.386c3.199,0,5.648-0.386,5.648-0.386
				C14.639,13.977,15,13.557,15,13.062V3.064C15,2.586,14.665,2.177,14.197,2.083z M5.516,9.548
				c-0.341,0.321-0.732,0.694-0.875,0.831c-0.146,0.145-0.263,0.242-0.276,0.227c-0.048-0.051-1.36-2.364-1.348-2.376
				c0.022-0.024,2.24-0.65,2.288-0.645C5.337,7.586,5.56,7.94,5.797,8.354C5.981,8.672,6.13,8.94,6.13,8.95
				C6.13,8.961,5.854,9.229,5.516,9.548z M10.508,13.217H9.385V9.357c0,0,1.113-0.654,1.123-0.654
				C10.516,8.703,10.508,13.217,10.508,13.217z M12.625,6.613L8.358,8.958c-0.726,0.399-1.232,0.251-1.63-0.475L6.039,7.229
				c-0.4-0.726-0.252-1.232,0.474-1.631l4.266-2.345c0.727-0.399,1.232-0.251,1.631,0.475L13.1,4.982
				C13.499,5.708,13.352,6.214,12.625,6.613z"/>
		</g>
	</g>
</g>
<g id="Camera" display="none">
	<g display="inline">
		<g>
			<path d="M7.969,7.107c-1.122,0-2.033,0.912-2.033,2.035c0,1.121,0.911,2.033,2.033,2.033c1.123,0,2.033-0.912,2.033-2.033
				C10.002,8.019,9.092,7.107,7.969,7.107z M14.769,5.729c-0.344-1-1.237-1.04-1.237-1.04h-2.815
				c-0.055-0.567-0.884-1.495-1.838-1.495H7.074c-0.997,0-1.803,0.927-1.856,1.495H2.463c0,0-0.953-0.019-1.257,0.99
				c-0.616,2.055-0.616,5.116,0,7.083c0.341,1.085,1.257,1.042,1.257,1.042h11.068c0,0,0.909,0.029,1.237-1.042
				C15.38,10.766,15.457,7.734,14.769,5.729z M7.969,12.347c-1.771,0-3.206-1.435-3.206-3.205c0-1.771,1.436-3.208,3.206-3.208
				c1.771,0,3.207,1.436,3.207,3.208C11.176,10.912,9.74,12.347,7.969,12.347z"/>
		</g>
	</g>
</g>
<g id="Reststop" display="none">
	<path display="inline" d="M6.177,11.572c-1.039,0-0.893,0-0.893,0v1.877h4.449V8.988c0,0-3.316,0.213-3.316-0.194
		c0-0.886,3.206-2.105,3.206-2.105S7.041,6.815,7.067,6.44c0.05-0.733,2.669-1.474,2.669-1.474C8.847,4.992,7.83,5.05,7.83,4.469
		c0.029-0.232,0.799-0.783,1.394-1.534c0.61-0.769,0.674-1.585,1.306-1.592c0.612,0.042,0.674,0.888,1.278,1.65
		c0.552,0.696,1.294,1.04,1.277,1.476c-0.029,0.523-1.104,0.552-1.914,0.497c0,0,2.783,0.739,2.783,1.491
		c0,0.357-2.548,0.231-2.548,0.231s3.207,1.168,3.207,2.105c0,0.411-3.316,0.194-3.316,0.194v4.461c0,0,0.609,0,1.888,0
		c1.279,0,1.264,1.564,0,1.564c-1.263,0-9.094,0-10.2,0c-1.107,0-1.095-1.564,0-1.564s0.726,0,0.726,0v-1.877c0,0-0.413,0-0.882,0
		c-1.226,0-1.226-1.564,0-1.564c0.617,0,2.551,0,3.349,0C7.49,10.008,7.473,11.572,6.177,11.572z"/>
</g>
</svg>
